<?xml version="1.0" encoding="utf-8"?>
<svg version="1.1" xmlns:xlink="http://www.w3.org/1999/xlink" width="10px" height="10px" xmlns="http://www.w3.org/2000/svg">
  <g transform="matrix(1 0 0 1 -1421 -280 )">
    <path d="M 9.265 4.9821875  C 9.265 7.3228125  7.3603125 9.226875  5.02 9.226875  C 2.6796875 9.226875  0.775625 7.3228125  0.775625 4.9821875  C 0.775625 2.641875  2.6796875 0.7378125  5.02 0.7378125  C 7.360625 0.7378125  9.265 2.641875  9.265 4.9821875  Z M 9.89 4.9821875  C 9.89 2.2978125  7.7053125 0.1128125  5.02 0.1128125  C 2.3353125 0.1128125  0.150625 2.2975  0.150625 4.9821875  C 0.150625 7.6675  2.335 9.851875  5.02 9.851875  C 7.7053125 9.851875  9.89 7.6675  9.89 4.9821875  Z " fill-rule="nonzero" fill="#f59a23" stroke="none" transform="matrix(1 0 0 1 1421 280 )" />
  </g>
</svg>