<?xml version="1.0" encoding="utf-8"?>
<svg version="1.1" xmlns:xlink="http://www.w3.org/1999/xlink" width="4px" height="4px" xmlns="http://www.w3.org/2000/svg">
  <g transform="matrix(1 0 0 1 -1424 -283 )">
    <path d="M 3.34375 0.9715625  L 3.34375 2.9934375  C 3.34375 3.1653125  3.203125 3.3059375  3.03125 3.3059375  L 1.009375 3.3059375  C 0.836875000000001 3.3059375  0.696875 3.1653125  0.696875 2.9934375  L 0.696875 0.9715625  C 0.696875 0.798973515677877  0.836786015677878 0.6590625  1.009375 0.6590625  L 3.03125 0.6590625  C 3.203125 0.6590625  3.34375 0.799375  3.34375 0.9715625  Z M 3.96875 0.9715625  C 3.96875 0.4546875  3.5478125 0.0340625000000001  3.03125 0.0340624999999992  L 1.009375 0.0340624999999992  C 0.492187500000001 0.0340624999999992  0.0718750000000004 0.454687499999999  0.0718750000000004 0.971562499999999  L 0.0718750000000004 2.9934375  C 0.0718750000000004 3.5103125  0.492187500000001 3.9309375  1.009375 3.9309375  L 3.03125 3.9309375  C 3.5478125 3.9309375  3.96875 3.5103125  3.96875 2.9934375  L 3.96875 0.9715625  Z " fill-rule="nonzero" fill="#f59a23" stroke="none" transform="matrix(1 0 0 1 1424 283 )" />
  </g>
</svg>