<?xml version="1.0" encoding="utf-8"?>
<svg version="1.1" xmlns:xlink="http://www.w3.org/1999/xlink" width="73px" height="30px" xmlns="http://www.w3.org/2000/svg">
  <g transform="matrix(1 0 0 1 -1193 -606 )">
    <path d="M 1193.5 611  A 4.5 4.5 0 0 1 1198 606.5 L 1261 606.5  A 4.5 4.5 0 0 1 1265.5 611 L 1265.5 631  A 4.5 4.5 0 0 1 1261 635.5 L 1198 635.5  A 4.5 4.5 0 0 1 1193.5 631 L 1193.5 611  Z " fill-rule="nonzero" fill="#ffffff" stroke="none" />
    <path d="M 1193.5 611  A 4.5 4.5 0 0 1 1198 606.5 L 1261 606.5  A 4.5 4.5 0 0 1 1265.5 611 L 1265.5 631  A 4.5 4.5 0 0 1 1261 635.5 L 1198 635.5  A 4.5 4.5 0 0 1 1193.5 631 L 1193.5 611  Z " stroke-width="1" stroke="#d7d7d7" fill="none" />
  </g>
</svg>