<?xml version="1.0" encoding="utf-8"?>
<svg version="1.1" xmlns:xlink="http://www.w3.org/1999/xlink" width="21px" height="12px" xmlns="http://www.w3.org/2000/svg">
  <g transform="matrix(1 0 0 1 -36 -915 )">
    <path d="M 11.9715310527832 1.69099662890625  L 11.9715310527832 0.484754578125  L 20 0.484754578125  L 20 11.515245421875  L 11.9715310527832 11.515245421875  L 11.9715310527832 10.1364340664062  L 18.4848894675293 10.1364340664062  L 18.4848894675293 9.43918433134191  L 11.9715310527832 9.43918433134191  L 11.9715310527832 8.58505340625  L 18.4848894675293 8.58505340625  L 18.4848894675293 7.88780365670956  L 11.9715310527832 7.88780365670956  L 11.9715310527832 7.03367273161764  L 18.4848894675293 7.03367273161764  L 18.4848894675293 6.33642299655331  L 11.9715310527832 6.33642299655331  L 11.9715310527832 5.46486083134191  L 18.4848894675293 5.46486083134191  L 18.4848894675293 4.79375794921875  L 11.9715310527832 4.79375794921875  L 11.9715310527832 3.92219578400735  L 18.4848894675293 3.92219578400735  L 18.4848894675293 3.2423772890625  L 11.9715310527832 3.2423772890625  L 11.9715310527832 2.37953073667279  L 18.4848894675293 2.37953073667279  L 18.4848894675293 1.69099662890625  L 11.9715310527832 1.69099662890625  Z M 3.06752117724609 6.91165403630515  C 3.41496944414063 5.78385258777574  3.77538218510742 4.65779426470588  4.13579492607422 3.52999280170037  C 4.61288806289063 3.51081843612132  5.08738830058594 3.49687343244485  5.56448141586914 3.47944220680147  C 5.8989651871582 4.64384926102941  6.23863475668945 5.80477007881434  6.60164039677734 6.96569088212316  C 6.88426622871094 5.76816445863971  7.19800680703125 4.57586741153492  7.50137583193359 3.38182723897059  C 8.00180503930664 3.36962537522978  8.50223424667969 3.35045099517463  9.00266345405274 3.32953350413603  C 8.43481891259766 4.99944662316176  7.9395755034668 6.68504787132353  7.31987300112305 8.34450223759191  C 6.90241650102539 8.49441092578125  6.28271402021484 8.34450223759191  5.7796919137207 8.3619334777114  C 5.43224364682617 7.21844391452206  5.04590193618164 6.08366996415441  4.74771873105469 4.93843727550551  C 4.45472132416992 6.05229373483456  4.07356539023437 7.15569144140625  3.73908161894531 8.2608322734375  C 3.25680268388672 8.24340103331802  2.77452377036133 8.22422666773897  2.28965193618164 8.20156605124081  C 1.87478833520508 6.68504787132353  1.38473072431641 5.17724531870404  0.993203193896485 3.65724088786765  C 1.42103126894531 3.64329589866728  1.85145224311523 3.63109402045037  2.28965193618164 3.62063526769302  C 2.54894167602539 4.71880359788603  2.84193910444336 5.81174256617647  3.06752117724609 6.91165403630515  Z " fill-rule="nonzero" fill="#ffffff" stroke="none" transform="matrix(1 0 0 1 36 915 )" />
  </g>
</svg>