<?xml version="1.0" encoding="utf-8"?>
<svg version="1.1" xmlns:xlink="http://www.w3.org/1999/xlink" width="21px" height="15px" xmlns="http://www.w3.org/2000/svg">
  <g transform="matrix(1 0 0 1 -35 -914 )">
    <path d="M 0 1.39875353027344  C 3.65722013671875 0.931326430664063  7.31690968066406 0.476246469726562  10.9741298173828 0  L 12.4014581455078 0  L 12.4014581455078 1.39522577636719  C 14.9548447822266 1.41110065429687  17.5057619912109 1.37582314453125  20.0542097929687 1.41110065429687  C 20.0869434442744 1.40830121162723  20.1198815843068 1.40689775803962  20.1528490259903 1.40689775803962  C 20.6110946970878 1.40689775803962  20.9825762115371 1.67224169693199  20.9825762115371 1.99956003343025  C 20.9825762115371 2.02574132291396  20.9801474014728 2.05189384133111  20.9753057431641 2.07784571777344  C 21.0172859941406 5.51387582519531  20.9753057431641 8.95696142578125  21 12.3876999023438  C 20.9753057431641 12.7404750732422  21.0469191064453 13.1302916308594  20.7678739365234 13.4460254003906  C 20.4196848515625 13.6224129785156  19.9702492910156 13.6047742236328  19.5627939814453 13.6224129785156  L 12.4014581455078 13.6224129785156  L 12.4014581455078 14.9929444921875  L 10.9198024482422 14.9929444921875  C 7.27986830566406 14.5149341455078  3.63993414257813 14.0704374462891  0 13.6047742236328  L 0 1.39875353027344  Z " fill-rule="nonzero" fill="#2a5699" stroke="none" transform="matrix(1 0 0 1 35 914 )" />
  </g>
</svg>