<?xml version="1.0" encoding="utf-8"?>
<svg version="1.1" xmlns:xlink="http://www.w3.org/1999/xlink" width="6px" height="7px" xmlns="http://www.w3.org/2000/svg">
  <g transform="matrix(1 0 0 1 -39 -870 )">
    <path d="M 5.99272727272727 2.268  C 5.99272727272727 0.849333333333333  4.94545454545455 0.14  2.89745454545455 0.14  L 0.0116363636363636 0.14  L 0.0116363636363636 6.86  L 1.80363636363636 6.86  L 1.80363636363636 4.54533333333333  L 2.73454545454545 4.54533333333333  C 3.73527272727273 4.54533333333333  4.52654545454545 4.34  5.10836363636364 3.91066666666667  C 5.69018181818182 3.5  5.99272727272727 2.94  5.99272727272727 2.268  Z M 4.03781818181818 2.324  C 4.03781818181818 3.052  3.54909090909091 3.388  2.57163636363636 3.388  L 1.80363636363636 3.388  L 1.80363636363636 1.29733333333333  L 2.57163636363636 1.29733333333333  C 3.54909090909091 1.29733333333333  4.03781818181818 1.63333333333333  4.03781818181818 2.324  Z " fill-rule="nonzero" fill="#ffffff" stroke="none" transform="matrix(1 0 0 1 39 870 )" />
  </g>
</svg>