<?xml version="1.0" encoding="utf-8"?>
<svg version="1.1" xmlns:xlink="http://www.w3.org/1999/xlink" width="10px" height="10px" xmlns="http://www.w3.org/2000/svg">
  <g transform="matrix(1 0 0 1 -1393 -280 )">
    <path d="M 4.86547619047619 3.73665048543689  C 4.8702380952381 3.91504854368932  4.81428571428571 4.08252427184466  4.71428571428571 4.21844660194175  C 4.61428571428571 4.35315533980583  4.47142857142857 4.45509708737864  4.3 4.50121359223301  C 3.40714285714286 4.74150485436893  1.78690476190476 5.05097087378641  0.975 4.42718446601942  C -0.0880952380952382 3.60922330097087  -0.3 2.0631067961165  0.502380952380952 0.979368932038835  C 1.3047619047619 -0.104368932038835  2.82142857142857 -0.320388349514563  3.88452380952381 0.497572815533981  C 4.69642857142857 1.12257281553398  4.84761904761905 2.79490291262136  4.86547619047619 3.73665048543689  Z M 3.4 1.15169902912621  C 2.69166666666667 0.605582524271845  1.68095238095238 0.750000000000001  1.1452380952381 1.47208737864078  C 0.610714285714286 2.19417475728155  0.751190476190476 3.22572815533981  1.46071428571429 3.77063106796117  C 1.83452380952381 4.05825242718447  2.85238095238095 4.03640776699029  4.06071428571429 3.71601941747573  C 4.03214285714286 2.44296116504854  3.77380952380952 1.43932038834952  3.4 1.15169902912621  Z M 5.20595238095238 4.21723300970874  C 5.10714285714286 4.08252427184466  5.05119047619048 3.91504854368932  5.05476190476191 3.73543689320388  C 5.07261904761905 2.79368932038835  5.225 1.12135922330097  6.03571428571429 0.496359223300971  C 7.09880952380952 -0.321601941747572  8.61547619047619 -0.105582524271844  9.41785714285714 0.978155339805826  C 10.2202380952381 2.0618932038835  10.0083333333333 3.60800970873786  8.94523809523809 4.42597087378641  C 8.13333333333333 5.05097087378641  6.51428571428571 4.74029126213592  5.62023809523809 4.5  C 5.45 4.45388349514563  5.30595238095238 4.35315533980583  5.20595238095238 4.21723300970874  Z M 8.775 1.47087378640777  C 8.24047619047619 0.74878640776699  7.2297619047619 0.605582524271845  6.5202380952381 1.1504854368932  C 6.14642857142857 1.4381067961165  5.88809523809524 2.44296116504854  5.85952380952381 3.71480582524272  C 7.06785714285714 4.03519417475728  8.08690476190476 4.05703883495146  8.45952380952381 3.76941747572816  C 9.16785714285714 3.2245145631068  9.30952380952381 2.19296116504854  8.775 1.47087378640777  Z M 4.71547619047619 5.71116504854369  C 4.81428571428571 5.84587378640777  4.8702380952381 6.01334951456311  4.86666666666667 6.19296116504854  C 4.84880952380952 7.13470873786408  4.69642857142857 8.80703883495146  3.88571428571429 9.43203883495146  C 2.82261904761905 10.25  1.30595238095238 10.0339805825243  0.503571428571428 8.9502427184466  C -0.298809523809525 7.86650485436893  -0.0869047619047619 6.32038834951456  0.976190476190476 5.50242718446602  C 1.78809523809524 4.87742718446602  3.40714285714286 5.18810679611651  4.30119047619048 5.42839805825243  C 4.47142857142857 5.4745145631068  4.61547619047619 5.5752427184466  4.71547619047619 5.71116504854369  Z M 1.14642857142857 8.45752427184466  C 1.68095238095238 9.17839805825243  2.69166666666667 9.32281553398058  3.40119047619048 8.77791262135922  C 3.775 8.49029126213592  4.03333333333333 7.48543689320388  4.06190476190476 6.21359223300971  C 2.85357142857143 5.89320388349515  1.83452380952381 5.87135922330097  1.46190476190476 6.15898058252427  C 0.753571428571429 6.70388349514563  0.611904761904762 7.73543689320388  1.14642857142857 8.45752427184466  Z M 5.05476190476191 6.19296116504855  C 5.05119047619048 6.01334951456311  5.10714285714286 5.84587378640777  5.20714285714286 5.70995145631068  C 5.30714285714286 5.5752427184466  5.45 5.47330097087379  5.62142857142857 5.42718446601942  C 6.51428571428571 5.1868932038835  8.13452380952381 4.87742718446602  8.94642857142857 5.50121359223301  C 10.0095238095238 6.31917475728155  10.2214285714286 7.86529126213592  9.41904761904762 8.94902912621359  C 8.61666666666667 10.0327669902913  7.09880952380952 10.25  6.03571428571429 9.43203883495146  C 5.22380952380952 8.80703883495146  5.07261904761905 7.13470873786408  5.05476190476191 6.19296116504855  Z M 6.52142857142857 8.77669902912621  C 7.22976190476191 9.32281553398058  8.24047619047619 9.17839805825243  8.77619047619048 8.45631067961165  C 9.31071428571429 7.73422330097087  9.1702380952381 6.70266990291262  8.46071428571429 6.15776699029126  C 8.08690476190476 5.87014563106796  7.06904761904762 5.89199029126214  5.86071428571429 6.2123786407767  C 5.88928571428571 7.48543689320388  6.14761904761905 8.48907766990291  6.52142857142857 8.77669902912621  Z " fill-rule="nonzero" fill="#f59a23" stroke="none" transform="matrix(1 0 0 1 1393 280 )" />
  </g>
</svg>