<?xml version="1.0" encoding="utf-8"?>
<svg version="1.1" xmlns:xlink="http://www.w3.org/1999/xlink" width="16px" height="12px" xmlns="http://www.w3.org/2000/svg">
  <g transform="matrix(1 0 0 1 -36 -675 )">
    <path d="M 9.12116651640625 1.69099662890625  L 9.12116651640625 0.484754578125  L 15.4191909742188 0.484754578125  L 15.4191909742188 11.515245421875  L 9.12116651640625 11.515245421875  L 9.12116651640625 10.1364340664062  L 14.0837253085938 10.1364340664062  L 14.0837253085938 9.43918433134191  L 9.12116651640625 9.43918433134191  L 9.12116651640625 8.58505340625  L 14.0837253085938 8.58505340625  L 14.0837253085938 7.88780365670956  L 9.12116651640625 7.88780365670956  L 9.12116651640625 7.03367273161764  L 14.0837253085938 7.03367273161764  L 14.0837253085938 6.33642299655331  L 9.12116651640625 6.33642299655331  L 9.12116651640625 5.46486083134191  L 14.0837253085938 5.46486083134191  L 14.0837253085938 4.79375794921875  L 9.12116651640625 4.79375794921875  L 9.12116651640625 3.92219578400735  L 14.0837253085938 3.92219578400735  L 14.0837253085938 3.2423772890625  L 9.12116651640625 3.2423772890625  L 9.12116651640625 2.37953073667279  L 14.0837253085938 2.37953073667279  L 14.0837253085938 1.69099662890625  L 9.12116651640625 1.69099662890625  Z M 2.3371589921875 6.91165403630515  C 2.60188148125 5.78385258777574  2.87648166484375 4.65779426470588  3.1510818484375 3.52999280170037  C 3.51458138125 3.51081843612132  3.876105371875 3.49687343244485  4.23960488828125 3.47944220680147  C 4.49444966640625 4.64384926102941  4.75324552890625 5.80477007881434  5.0298212546875 6.96569088212316  C 5.245155221875 5.76816445863971  5.4841956625 4.57586741153492  5.7153339671875 3.38182723897059  C 6.09661336328125 3.36962537522978  6.477892759375 3.35045099517463  6.85917215546875 3.32953350413603  C 6.4265286953125 4.99944662316176  6.04920038359375 6.68504787132353  5.57704609609375 8.34450223759191  C 5.25898400078125 8.49441092578125  4.7868297296875 8.34450223759191  4.40357479140625 8.3619334777114  C 4.13885230234375 7.21844391452206  3.84449671328125 6.08366996415441  3.617309509375 4.93843727550551  C 3.39407338984375 6.05229373483456  3.10366886875 7.15569144140625  2.848824090625 8.2608322734375  C 2.4813734734375 8.24340103331802  2.11392287265625 8.22422666773897  1.74449671328125 8.20156605124081  C 1.42841016015625 6.68504787132353  1.0550329328125 5.17724531870404  0.75672624296875 3.65724088786765  C 1.082690490625 3.64329589866728  1.41063028046875 3.63109402045037  1.74449671328125 3.62063526769302  C 1.94205080078125 4.71880359788603  2.16528693671875 5.81174256617647  2.3371589921875 6.91165403630515  Z " fill-rule="nonzero" fill="#ffffff" stroke="none" transform="matrix(1 0 0 1 36 675 )" />
  </g>
</svg>