<?xml version="1.0" encoding="utf-8"?>
<svg version="1.1" xmlns:xlink="http://www.w3.org/1999/xlink" width="16px" height="15px" xmlns="http://www.w3.org/2000/svg">
  <g transform="matrix(1 0 0 1 -35 -674 )">
    <path d="M 0 1.39875353027344  C 2.7864534375 0.931326430664063  5.574788328125 0.476246469726562  8.361241765625 0  L 9.448730015625 0  L 9.448730015625 1.39522577636719  C 11.394167453125 1.41110065429687  13.337723421875 1.37582314453125  15.2793979375 1.41110065429687  C 15.3043378623043 1.40830121162723  15.3294335880433 1.40689775803962  15.3545516388497 1.40689775803962  C 15.7036911977812 1.40689775803962  15.9867247325997 1.67224169693199  15.9867247325997 1.99956003343025  C 15.9867247325997 2.02574132291396  15.9848742106459 2.05189384133111  15.981185328125 2.07784571777344  C 16.01317028125 5.51387582519531  15.981185328125 8.95696142578125  16 12.3876999023438  C 15.981185328125 12.7404750732422  16.035747890625 13.1302916308594  15.823142046875 13.4460254003906  C 15.557855125 13.6224129785156  15.21542803125 13.6047742236328  14.904985890625 13.6224129785156  L 9.448730015625 13.6224129785156  L 9.448730015625 14.9929444921875  L 8.319849484375 14.9929444921875  C 5.546566328125 14.5149341455078  2.77328315625 14.0704374462891  0 13.6047742236328  L 0 1.39875353027344  Z " fill-rule="nonzero" fill="#2a5699" stroke="none" transform="matrix(1 0 0 1 35 674 )" />
  </g>
</svg>