<?xml version="1.0" encoding="utf-8"?>
<svg version="1.1" xmlns:xlink="http://www.w3.org/1999/xlink" width="15px" height="15px" xmlns="http://www.w3.org/2000/svg">
  <g transform="matrix(1 0 0 1 -342 -100 )">
    <path d="M 349.5 102  C 352.58 102  355 104.42  355 107.5  C 355 110.58  352.58 113  349.5 113  C 346.42 113  344 110.58  344 107.5  C 344 104.42  346.42 102  349.5 102  Z " fill-rule="nonzero" fill="#fcfcfc" stroke="none" />
    <path d="M 349.5 101.5  C 352.86 101.5  355.5 104.14  355.5 107.5  C 355.5 110.86  352.86 113.5  349.5 113.5  C 346.14 113.5  343.5 110.86  343.5 107.5  C 343.5 104.14  346.14 101.5  349.5 101.5  Z " stroke-width="3" stroke="#409eff" fill="none" />
  </g>
</svg>