<?xml version="1.0" encoding="utf-8"?>
<svg version="1.1" xmlns:xlink="http://www.w3.org/1999/xlink" width="15px" height="15px" xmlns="http://www.w3.org/2000/svg">
  <g transform="matrix(1 0 0 1 -64 -100 )">
    <path d="M 71.5 102  C 74.58 102  77 104.42  77 107.5  C 77 110.58  74.58 113  71.5 113  C 68.42 113  66 110.58  66 107.5  C 66 104.42  68.42 102  71.5 102  Z " fill-rule="nonzero" fill="#409eff" stroke="none" />
    <path d="M 71.5 101.5  C 74.86 101.5  77.5 104.14  77.5 107.5  C 77.5 110.86  74.86 113.5  71.5 113.5  C 68.14 113.5  65.5 110.86  65.5 107.5  C 65.5 104.14  68.14 101.5  71.5 101.5  Z " stroke-width="3" stroke="#409eff" fill="none" />
  </g>
</svg>