<?xml version="1.0" encoding="utf-8"?>
<svg version="1.1" xmlns:xlink="http://www.w3.org/1999/xlink" width="50px" height="47px" xmlns="http://www.w3.org/2000/svg">
  <g transform="matrix(1 0 0 1 -107 -206 )">
    <path d="M 5 2  L 45 2  L 45 41.448125  L 49.0384615572416 41.448125  L 49.0384615572416 45  L 0.961538442758413 45  L 0.961538442758413 41.448125  L 5 41.448125  L 5 2  Z M 17.8413461726262 41.428541685791  L 22.24999998122 31.428802064209  L 20.7235576923077 31.428802064209  L 16.3028846153846 41.445677064209  L 17.875 41.445677064209  L 17.8413461726262 41.428541685791  Z M 11.9831730769231 41.428541685791  L 16.391826941857 31.428802064209  L 14.9302884427584 31.428802064209  L 10.5096153658353 41.445677064209  L 12.0216346341647 41.445677064209  L 11.9831730769231 41.428541685791  Z M 23.6033654033954 41.435885435791  L 28.0144230769231 31.428802064209  L 26.5817307880108 31.428802064209  L 22.1610577110877 41.445677064209  L 23.6274038273738 41.445677064209  L 23.6033654033954 41.435885435791  Z M 29.3966345966046 41.435885435791  L 33.8100961350661 31.428802064209  L 32.3461538273738 31.428802064209  L 27.9278846153846 41.445677064209  L 29.4182692119892 41.445677064209  L 29.3966345966046 41.435885435791  Z M 35.2548076923077 41.435885435791  L 39.6682692307692 31.428802064209  L 38.141826941857 31.428802064209  L 33.7235576735276 41.445677064209  L 35.2764423076923 41.445677064209  L 35.2548076923077 41.435885435791  Z M 41.5673077110877 41.445677064209  L 41.5649038461538 36.948854185791  L 39.5817307692308 41.445677064209  L 41.5673077110877 41.445677064209  Z M 8.66346151968149 35.810572935791  L 10.5961538273738 31.428802064209  L 8.66346151968149 31.428802064209  L 8.66346151968149 35.810572935791  Z M 23 27  L 23 6  L 9 6  L 9 27  L 23 27  Z M 41 27  L 41 6  L 27 6  L 27 27  L 41 27  Z " fill-rule="nonzero" fill="#33ccb0" stroke="none" transform="matrix(1 0 0 1 107 206 )" />
  </g>
</svg>