<?xml version="1.0" encoding="utf-8"?>
<svg version="1.1" xmlns:xlink="http://www.w3.org/1999/xlink" width="9px" height="9px" xmlns="http://www.w3.org/2000/svg">
  <g transform="matrix(1 0 0 1 -1464 -275 )">
    <path d="M 8.51258909533074 0.537644980544747  C 8.68183453631647 0.720164571984436  8.81291678664073 0.910980505836576  8.90583583657588 1.11009275291829  C 8.93238413748379 1.16982643644617  8.95395463359274 1.23951573281453  8.97054732490273 1.31916064202335  C 8.98714001621271 1.39880555123217  8.99543636186771 1.48176900129702  8.99543636186771 1.5680509922179  C 8.99543636186771 1.65433298313878  8.97884367055772 1.74061497081712  8.94565828793774 1.82689695525292  C 8.91247290531777 1.91317893968872  8.85937629701686 1.99614238975357  8.78636846303502 2.07578730544747  C 8.7067235538262 2.15543221465629  8.63537498702983 2.22512151102464  8.57232276264592 2.28485519455253  C 8.509270538262 2.34458887808041  8.45451466277562 2.39768548638132  8.40805513618677 2.44414501945525  C 8.35495852788586 2.49724162775616  8.30518045719845 2.54370116083009  8.25872092412451 2.58352361867704  L 6.39702112840467 0.721823822957199  C 6.47666603761349 0.648815988975357  6.57124437094683 0.560874734111544  6.68075612840467 0.458000058365759  C 6.79026788586252 0.355125382619974  6.88152768158236 0.273821202983139  6.9545355155642 0.214087519455253  C 7.04745458171206 0.141079685473411  7.14369218223087 0.0896423476005189  7.24324831712062 0.059775505836576  C 7.34280445201038 0.0299086640726331  7.4407013229572 0.0166345136186772  7.53693892996109 0.0199530544747083  C 7.63317653696498 0.0232715953307394  7.7260955998703 0.0382050162127109  7.81569611867704 0.0647533171206227  C 7.90529663748379 0.0913016180285345  7.98328227950713 0.121168459792477  8.04965304474708 0.154353842412451  C 8.18903163748379 0.227361676394293  8.34334365434501 0.355125389105059  8.51258909533074 0.537644980544747  Z M 0.936366887159533 6.22230049610895  C 0.986144954604411 6.14597412775616  1.05749352140078 6.06135141050584  1.15041260700389 5.96843234435798  C 1.19023506485084 5.92860988651102  1.28315412775616 5.83403155317769  1.42916979571984 5.68469734435798  C 1.57518546368353 5.53536313553826  1.75770505188067 5.3511842769131  1.97672856031128 5.13216076848249  L 2.70348837548638 4.40540095330739  L 3.50989310311284 3.59899622568093  L 5.65035009727626 1.45853923151751  L 7.51204989299611 3.33019464980545  L 5.37159289883269 5.47065164396887  L 4.57514378404669 6.27705637159533  C 4.30966074902724 6.53590233138781  4.0707260149157 6.77317779507134  3.85833958171206 6.98888276264592  C 3.64595314850843 7.20458773022049  3.47007063553826 7.38212951037614  3.33069204280156 7.52150810311284  C 3.19131345006485 7.66088669584955  3.10835 7.74053160830091  3.081801692607 7.76044284046693  C 3.01543093385214 7.82017652399481  2.93910455901427 7.88322874513619  2.85282256809339 7.94959950389105  C 2.7665405771725 8.01597026264592  2.67694005188068 8.06906687094682  2.5840209922179 8.10888932879377  C 2.49110192607004 8.15534886186771  2.35504187094682 8.2117640077821  2.17584082684825 8.27813476653697  C 1.99663978274968 8.34450552529183  1.80914238651102 8.40921701686122  1.6133486381323 8.47226924124514  C 1.41755488975357 8.53532146562906  1.23171676394293 8.59007734111544  1.05583426070039 8.63653686770428  C 0.879951757457847 8.68299639429313  0.748869507133593 8.71286323605707  0.662587509727626 8.72613739299611  C 0.483386459143969 8.74604861867704  0.363919092088197 8.71950031452659  0.304185408560311 8.64649248054475  C 0.244451725032425 8.57348464656291  0.227859033722438 8.45069874189365  0.25440733463035 8.27813476653697  C 0.267681485084306 8.18521570038911  0.299207597276264 8.05081491245136  0.348985671206226 7.87493240272374  C 0.398763745136187 7.69904989299611  0.451860353437095 7.51653030479896  0.50827549610895 7.3273736381323  C 0.564690638780805 7.13821697146563  0.619446514267186 6.96399372892348  0.672543122568093 6.80470391050584  C 0.725639730869001 6.6454140920882  0.7687807230869 6.53590233787289  0.80196609922179 6.47616864785992  C 0.841788557068742 6.38324958171206  0.886588819714657 6.29862686446174  0.936366887159533 6.22230049610895  Z " fill-rule="nonzero" fill="#33ccb0" stroke="none" transform="matrix(1 0 0 1 1464 275 )" />
  </g>
</svg>