<?xml version="1.0" encoding="utf-8"?>
<svg version="1.1" xmlns:xlink="http://www.w3.org/1999/xlink" width="10px" height="10px" xmlns="http://www.w3.org/2000/svg">
  <g transform="matrix(1 0 0 1 -1403 -274 )">
    <path d="M 4.53125 7.8125  L 5.46875 7.8125  L 5.3665625 3.75  L 4.6334375 3.75  L 4.53125 7.8125  Z M 5 3.125  C 5.128125 3.125  5.23875 3.079375  5.330625 2.9884375  C 5.4228125 2.8975  5.46875 2.7865625  5.46875 2.65625  C 5.46875 2.5234375  5.4228125 2.4121875  5.330625 2.3221875  C 5.24324481416421 2.2343087718003  5.12391414787094 2.18569675178858  5 2.1875  C 4.871875 2.1875  4.76125 2.2325  4.669375 2.3221875  C 4.57843735207223 2.40918571321422  4.52830476593051 2.53043398150721  4.53125 2.65625  C 4.53125 2.7865625  4.5771875 2.8975  4.669375 2.9884375  C 4.76125 3.079375  4.8715625 3.125  5 3.125  Z M 9.6875 5  C 9.6875 2.41125  7.58875 0.3125  5 0.3125  C 2.41125 0.3125  0.3125 2.41125  0.3125 5  C 0.3125 7.58875  2.41125 9.6875  5 9.6875  C 7.58875 9.6875  9.6875 7.58875  9.6875 5  Z M 0.9375 5  C 0.9375 2.75625  2.75625 0.9375  5 0.9375  C 7.24375 0.9375  9.0625 2.75625  9.0625 5  C 9.0625 7.24375  7.24375 9.0625  5 9.0625  C 2.75625 9.0625  0.9375 7.24375  0.9375 5  Z " fill-rule="nonzero" fill="#02a7f0" stroke="none" transform="matrix(1 0 0 1 1403 274 )" />
  </g>
</svg>