<?xml version="1.0" encoding="utf-8"?>
<svg version="1.1" xmlns:xlink="http://www.w3.org/1999/xlink" width="15px" height="12px" xmlns="http://www.w3.org/2000/svg">
  <g transform="matrix(1 0 0 1 -63 -617 )">
    <path d="M 8.55109360913086 1.69099662890625  L 8.55109360913086 0.484754578125  L 14.4554915383301 0.484754578125  L 14.4554915383301 11.515245421875  L 8.55109360913086 11.515245421875  L 8.55109360913086 10.1364340664062  L 13.2034924768066 10.1364340664062  L 13.2034924768066 9.43918433134191  L 8.55109360913086 9.43918433134191  L 8.55109360913086 8.58505340625  L 13.2034924768066 8.58505340625  L 13.2034924768066 7.88780365670956  L 8.55109360913086 7.88780365670956  L 8.55109360913086 7.03367273161764  L 13.2034924768066 7.03367273161764  L 13.2034924768066 6.33642299655331  L 8.55109360913086 6.33642299655331  L 8.55109360913086 5.46486083134191  L 13.2034924768066 5.46486083134191  L 13.2034924768066 4.79375794921875  L 8.55109360913086 4.79375794921875  L 8.55109360913086 3.92219578400735  L 13.2034924768066 3.92219578400735  L 13.2034924768066 3.2423772890625  L 8.55109360913086 3.2423772890625  L 8.55109360913086 2.37953073667279  L 13.2034924768066 2.37953073667279  L 13.2034924768066 1.69099662890625  L 8.55109360913086 1.69099662890625  Z M 2.19108655517578 6.91165403630515  C 2.43926388867188 5.78385258777574  2.69670156079102 4.65779426470588  2.95413923291016 3.52999280170037  C 3.29492004492188 3.51081843612132  3.63384878613281 3.49687343244485  3.97462958276367 3.47944220680147  C 4.21354656225586 4.64384926102941  4.45616768334961 5.80477007881434  4.71545742626953 6.96569088212316  C 4.91733302050781 5.76816445863971  5.14143343359375 4.57586741153492  5.35812559423828 3.38182723897059  C 5.71557502807617 3.36962537522978  6.07302446191406 3.35045099517463  6.43047389575195 3.32953350413603  C 6.02487065185547 4.99944662316176  5.67112535961914 6.68504787132353  5.22848071508789 8.34450223759191  C 4.93029750073242 8.49441092578125  4.48765287158203 8.34450223759191  4.12835136694336 8.3619334777114  C 3.88017403344727 7.21844391452206  3.60421566870117 6.08366996415441  3.39122766503906 4.93843727550551  C 3.18194380297852 6.05229373483456  2.90968956445313 7.15569144140625  2.67077258496094 8.2608322734375  C 2.32628763134766 8.24340103331802  1.98180269311523 8.22422666773897  1.63546566870117 8.20156605124081  C 1.33913452514648 6.68504787132353  0.989093374511719 5.17724531870404  0.709430852783203 3.65724088786765  C 1.01502233496094 3.64329589866728  1.32246588793945 3.63109402045037  1.63546566870117 3.62063526769302  C 1.82067262573242 4.71880359788603  2.02995650317383 5.81174256617647  2.19108655517578 6.91165403630515  Z " fill-rule="nonzero" fill="#ffffff" stroke="none" transform="matrix(1 0 0 1 63 617 )" />
  </g>
</svg>