<?xml version="1.0" encoding="utf-8"?>
<svg version="1.1" xmlns:xlink="http://www.w3.org/1999/xlink" width="4px" height="7px" xmlns="http://www.w3.org/2000/svg">
  <g transform="matrix(1 0 0 1 -65 -572 )">
    <path d="M 3.99515151515151 2.268  C 3.99515151515152 0.849333333333333  3.2969696969697 0.14  1.93163636363636 0.14  L 0.00775757575757576 0.14  L 0.00775757575757576 6.86  L 1.20242424242424 6.86  L 1.20242424242424 4.54533333333333  L 1.8230303030303 4.54533333333333  C 2.49018181818182 4.54533333333333  3.01769696969697 4.34  3.40557575757576 3.91066666666667  C 3.79345454545455 3.5  3.99515151515151 2.94  3.99515151515151 2.268  Z M 2.69187878787879 2.324  C 2.69187878787879 3.052  2.36606060606061 3.388  1.71442424242424 3.388  L 1.20242424242424 3.388  L 1.20242424242424 1.29733333333333  L 1.71442424242424 1.29733333333333  C 2.36606060606061 1.29733333333333  2.69187878787879 1.63333333333333  2.69187878787879 2.324  Z " fill-rule="nonzero" fill="#ffffff" stroke="none" transform="matrix(1 0 0 1 65 572 )" />
  </g>
</svg>