<?xml version="1.0" encoding="utf-8"?>
<svg version="1.1" xmlns:xlink="http://www.w3.org/1999/xlink" width="15px" height="15px" xmlns="http://www.w3.org/2000/svg">
  <g transform="matrix(1 0 0 1 -62 -616 )">
    <path d="M 0 1.39875353027344  C 2.61230009765625 0.931326430664063  5.22636405761719 0.476246469726562  7.83866415527344 0  L 8.85818438964844 0  L 8.85818438964844 1.39522577636719  C 10.6820319873047 1.41110065429687  12.5041157080078 1.37582314453125  14.3244355664062 1.41110065429687  C 14.3478167459103 1.40830121162723  14.3713439887906 1.40689775803962  14.3948921614216 1.40689775803962  C 14.7222104979199 1.40689775803962  14.9875544368122 1.67224169693199  14.9875544368122 1.99956003343025  C 14.9875544368122 2.02574132291396  14.9858195724806 2.05189384133111  14.9823612451172 2.07784571777344  C 15.0123471386719 5.51387582519531  14.9823612451172 8.95696142578125  15 12.3876999023438  C 14.9823612451172 12.7404750732422  15.0335136474609 13.1302916308594  14.8341956689453 13.4460254003906  C 14.5854891796875 13.6224129785156  14.2644637792969 13.6047742236328  13.9734242724609 13.6224129785156  L 8.85818438964844 13.6224129785156  L 8.85818438964844 14.9929444921875  L 7.79985889160156 14.9929444921875  C 5.19990593261719 14.5149341455078  2.59995295898438 14.0704374462891  0 13.6047742236328  L 0 1.39875353027344  Z " fill-rule="nonzero" fill="#2a5699" stroke="none" transform="matrix(1 0 0 1 62 616 )" />
  </g>
</svg>