<?xml version="1.0" encoding="utf-8"?>
<svg version="1.1" xmlns:xlink="http://www.w3.org/1999/xlink" width="25px" height="25px" xmlns="http://www.w3.org/2000/svg">
  <g transform="matrix(1 0 0 1 -1438 -257 )">
    <path d="M 13.5567801339286 13.543701171875  C 14.2578125 12.8426688058036  15.1890345982143 12.4555315290179  16.1830357142857 12.4555315290179  C 17.1744210379464 12.4555315290179  18.1082589285714 12.8426688058036  18.8092912946429 13.543701171875  C 19.5103236607143 14.2447335379464  19.8974609375 15.1785714285714  19.8974609375 16.1699567522321  C 19.8974609375 17.1613420758929  19.5103236607143 18.0951799665179  18.8092912946429 18.7962123325893  C 18.1082589285714 19.4972446986607  17.1744210379464 19.8843819754464  16.1830357142857 19.8843819754464  C 15.191650390625 19.8843819754464  14.2578125 19.4972446986607  13.5567801339286 18.7962123325893  C 12.8557477678571 18.0951799665179  12.4686104910714 17.1613420758929  12.4686104910714 16.1699567522321  C 12.4686104910714 15.1785714285714  12.8557477678571 14.2447335379464  13.5567801339286 13.543701171875  Z M 20.8914620535714 16.1699567522321  C 20.8914620535714 13.5698590959821  18.7831333705357 11.4615304129464  16.1830357142857 11.4615304129464  C 13.5829380580357 11.4615304129464  11.474609375 13.5698590959821  11.474609375 16.1699567522321  C 11.474609375 18.7700544084821  13.5829380580357 20.8783830915179  16.1830357142857 20.8783830915179  C 18.7831333705357 20.8783830915179  20.8914620535714 18.7700544084821  20.8914620535714 16.1699567522321  Z M 18.798828125 7.63462611607143  C 18.798828125 7.95375279017857  18.5398646763393 8.21010044642857  18.2233537946429 8.21010044642857  L 4.72586495535714 8.21010044642857  C 4.40673828125 8.21010044642857  4.150390625 7.95375279017857  4.150390625 7.63462611607143  C 4.150390625 7.31549944196429  4.40673828125 7.05915178571429  4.72586495535714 7  L 18.2233537946429 7  C 18.54248046875 7.05915178571429  18.798828125 7.31549944196429  18.798828125 7.63462611607143  Z M 10.4282924107143 12.8662109375  C 10.4282924107143 13.1853376116071  10.1693289620536 13.4416852678571  9.85281808035714 13.4416852678571  L 4.72586495535714 13.4416852678571  C 4.40673828125 13.4416852678571  4.150390625 13.1853376116071  4.150390625 12.8662109375  C 4.150390625 12.5470842633929  4.40673828125 12.2907366071429  4.72586495535714 12.2907366071429  L 9.85281808035714 12.2907366071429  C 10.1719447544643 12.2907366071429  10.4282924107143 12.5470842633929  10.4282924107143 12.8662109375  Z M 10.4282924107143 18.0977957589286  C 10.4282924107143 18.4169224330357  10.1693289620536 18.6732700892857  9.85281808035714 18.6732700892857  L 4.72586495535714 18.6732700892857  C 4.40673828125 18.6732700892857  4.150390625 18.4169224330357  4.150390625 18.0977957589286  C 4.150390625 17.7786690848214  4.40673828125 17.5223214285714  4.72586495535714 17.5223214285714  L 9.85281808035714 17.5223214285714  C 10.1719447544643 17.5223214285714  10.4282924107143 17.7786690848214  10.4282924107143 18.0977957589286  Z M 23.3084542410714 23.3163016183036  C 23.08349609375 23.541259765625  22.7199009486607 23.541259765625  22.4949428013393 23.3163016183036  L 18.8694545200893 19.6908133370536  C 18.6444963727679 19.4658551897321  18.6444963727679 19.1022600446429  18.8694545200893 18.8773018973214  C 19.0944126674107 18.65234375  19.4580078125 18.65234375  19.6829659598214 18.8773018973214  L 23.3084542410714 22.5027901785714  C 23.5334123883929 22.7277483258929  23.5334123883929 23.0913434709821  23.3084542410714 23.3163016183036  Z M 24 3.46766880580357  C 24.21875 1.98451450892857  23.0154854910714 0.78125  21.5323311941964 1  L 3.46766880580357 1  C 1.98451450892857 0.78125  0.78125 1.98451450892857  1 3.46766880580357  L 1 21.5349469866071  C 0.78125 23.0154854910714  1.98451450892857 24.21875  3.46766880580357 24  L 15.7958984375 24  C 16.1150251116071 24.21875  16.3713727678571 23.96240234375  16.3713727678571 23.6432756696429  C 16.3713727678571 23.3241489955357  16.1150251116071 23.0678013392857  15.7958984375 23  L 3.46766880580357 23  C 2.62015206473214 23.0678013392857  1.93219866071429 22.3798479352679  2 21.5323311941964  L 2 3.46766880580357  C 1.93219866071429 2.62015206473214  2.62015206473214 1.93219866071429  3.46766880580357 2  L 21.5349469866071 2  C 22.3824637276786 1.93219866071429  23.0704171316964 2.62015206473214  23 3.46766880580357  L 23 15.7958984375  C 23.0704171316964 16.1150251116071  23.3267647879464 16.3713727678571  23.6458914620536 16.3713727678571  C 23.9650181361607 16.3713727678571  24.2213657924107 16.1150251116071  24 15.7958984375  L 24 3.46766880580357  Z " fill-rule="nonzero" fill="#2b85e4" stroke="none" transform="matrix(1 0 0 1 1438 257 )" />
  </g>
</svg>