<?xml version="1.0" encoding="utf-8"?>
<svg version="1.1" xmlns:xlink="http://www.w3.org/1999/xlink" width="26px" height="23px" xmlns="http://www.w3.org/2000/svg">
  <g transform="matrix(1 0 0 1 -448 -611 )">
    <path d="M 6.93333333333333 8.13846153846154  L 12.6533333333333 13.9769230769231  C 12.8266666666667 14.1538461538462  13.3466666666667 14.1538461538462  13.52 13.9769230769231  L 19.0666666666667 8.31538461538462  C 19.24 8.13846153846154  19.24 7.96153846153846  19.24 7.96153846153846  C 19.24 7.60769230769231  19.0666666666667 7.25384615384615  18.72 7.25384615384615  L 15.6 7.25384615384615  L 15.6 0.884615384615385  C 15.6 0.53076923076923  15.2533333333333 0.353846153846154  15.08 0.353846153846154  L 10.92 0.353846153846154  C 10.5733333333333 0.353846153846154  10.4 0.530769230769231  10.4 0.884615384615385  L 10.4 7.07692307692308  L 7.45333333333333 7.07692307692308  C 7.28 7.07692307692308  7.10666666666667 7.07692307692308  6.93333333333333 7.25384615384615  C 6.76 7.43076923076923  6.76 7.96153846153846  6.93333333333333 8.13846153846154  Z M 8.84 8.31538461538462  L 10.92 8.31538461538462  C 11.2666666666667 8.31538461538462  11.6133333333333 7.96153846153846  11.6133333333333 7.78461538461539  L 11.6133333333333 1.59230769230769  L 14.56 1.59230769230769  L 14.56 7.78461538461539  C 14.56 8.13846153846154  14.9066666666667 8.31538461538462  15.08 8.31538461538462  L 17.16 8.31538461538462  L 13 12.5615384615385  L 8.84 8.31538461538462  Z M 26 12.2076923076923  C 26 12.3846153846154  26 12.2076923076923  26 12.2076923076923  C 26 12.0307692307692  26 11.8538461538462  25.8266666666667 11.5  L 22.5333333333333 5.83846153846154  C 22.36 5.30769230769231  21.6666666666667 5.13076923076923  21.1466666666667 5.48461538461538  C 20.6266666666667 5.83846153846154  20.4533333333333 6.36923076923077  20.8 6.9  L 23.4 11.3230769230769  L 19.0666666666667 11.3230769230769  C 18.5466666666667 11.3230769230769  18.2 11.6769230769231  18.0266666666667 12.2076923076923  C 17.8533333333333 13.4461538461538  17.16 14.6846153846154  16.2933333333333 15.3923076923077  C 15.4266666666667 16.1  14.2133333333333 16.6307692307692  13 16.6307692307692  C 11.7866666666667 16.6307692307692  10.5733333333333 16.1  9.70666666666667 15.3923076923077  C 8.84 14.5076923076923  8.14666666666667 13.4461538461538  7.97333333333333 12.2076923076923  C 7.97333333333333 11.6769230769231  7.45333333333333 11.3230769230769  6.93333333333333 11.3230769230769  L 2.6 11.3230769230769  L 5.2 6.9  C 5.54666666666667 6.36923076923077  5.37333333333333 5.83846153846154  4.85333333333333 5.48461538461539  C 4.33333333333333 5.13076923076923  3.64 5.30769230769231  3.46666666666667 5.83846153846154  L 0.173333333333333 11.6769230769231  C 0 11.8538461538462  0 12.0307692307692  0 12.2076923076923  L 0 21.5846153846154  C 0 22.1153846153846  0.52 22.6461538461538  1.04 22.6461538461538  L 24.96 22.6461538461538  C 25.48 22.6461538461538  26 22.1153846153846  26 21.5846153846154  L 26 12.2076923076923  Z M 23.92 13.4461538461538  L 23.92 20.7  L 2.08 20.7  L 2.08 13.4461538461538  L 6.06666666666667 13.4461538461538  C 6.41333333333333 14.8615384615385  7.28 16.1  8.32 16.9846153846154  C 9.53333333333333 18.0461538461538  11.2666666666667 18.7538461538462  13 18.7538461538462  C 14.7333333333333 18.7538461538462  16.4666666666667 18.0461538461538  17.68 16.9846153846154  C 18.72 16.1  19.5866666666667 14.8615384615385  19.9333333333333 13.4461538461538  L 23.92 13.4461538461538  Z " fill-rule="nonzero" fill="#2b85e4" stroke="none" transform="matrix(1 0 0 1 448 611 )" />
  </g>
</svg>