<?xml version="1.0" encoding="utf-8"?>
<svg version="1.1" xmlns:xlink="http://www.w3.org/1999/xlink" width="11px" height="11px" xmlns="http://www.w3.org/2000/svg">
  <g transform="matrix(1 0 0 1 -32 -123 )">
    <path d="M 10.45 4.94999999613281  C 10.45 7.68377499829392  6.18749999570313 10.9999999871094  5.5 11  C 4.81250000429688 11  0.55 7.68377499829392  0.55 4.94999999613281  C 0.55 2.2162249939717  2.76622499570313 0  5.5 0  C 8.23377500429688 0  10.45 2.2162249939717  10.45 4.94999999613281  Z M 3.98750000429688 4.94999999613281  C 3.98750000429688 5.78531249548023  4.6646875 6.4624999906543  5.5 6.46250000354492  C 6.3353125 6.46250000354492  7.01249999570313 5.78531250837085  7.01249999570313 4.94999999613281  C 7.01249999570313 4.11468748389478  6.3353125 3.43750000161133  5.5 3.43750000161133  C 4.6646875 3.43750000161133  3.98750000429688 4.1146874967854  3.98750000429688 4.94999999613281  Z " fill-rule="nonzero" fill="#2b85e4" stroke="none" transform="matrix(1 0 0 1 32 123 )" />
  </g>
</svg>