<?xml version="1.0" encoding="utf-8"?>
<svg version="1.1" xmlns:xlink="http://www.w3.org/1999/xlink" width="14px" height="14px" xmlns="http://www.w3.org/2000/svg">
  <g transform="matrix(1 0 0 1 -33 -171 )">
    <path d="M 13.2688836429961 0.806467470817121  C 13.5227518044747 1.08024685797665  13.7193751799611 1.36647075875486  13.8587537548638 1.66513912937743  C 13.8985762062257 1.75473965466926  13.9309319503891 1.85927359922179  13.9558209873541 1.97874096303502  C 13.9807100243191 2.09820832684825  13.9931545428016 2.22265350194553  13.9931545428016 2.35207648832685  C 13.9931545428016 2.48149947470817  13.9682655058366 2.61092245622568  13.9184874319066 2.74034543287938  C 13.8687093579767 2.86976840953307  13.7890644455253 2.99421358463035  13.6795526945525 3.11368095817121  C 13.5600853307393 3.23314832198444  13.4530624805447 3.33768226653697  13.3584841439689 3.42728279182879  C 13.263905807393 3.51688331712062  13.1817719941634 3.59652822957198  13.1120827042802 3.66621752918288  C 13.0324377918288 3.74586244163424  12.9577706857977 3.81555174124514  12.8880813861868 3.87528542801556  L 10.095531692607 1.0827357344358  C 10.2149990564202 0.973223983463035  10.3568665564202 0.841312101167315  10.521134192607 0.687000087548638  C 10.6854018287938 0.532688073929961  10.8222915223735 0.410731804474708  10.9318032733463 0.32113127918288  C 11.0711818725681 0.211619528210117  11.2155382733463 0.134463521400778  11.3648724756809 0.089663258754864  C 11.5142066780156 0.0448629961089496  11.6610519844358 0.0249517704280158  11.8054083949416 0.0299295817120625  C 11.9497648054475 0.0349073929961091  12.0891433998054 0.0573075243190663  12.2235441780156 0.0971299756809341  C 12.3579449562257 0.136952427042802  12.4749234192607 0.181752689688716  12.5744795671206 0.231530763618677  C 12.7835474562257 0.34104251459144  13.0150154815175 0.532688083657588  13.2688836429961 0.806467470817121  Z M 1.9045503307393 9.33345074416342  C 1.97921743190662 9.21896119163424  2.08624028210117 9.09202711575875  2.22561891050584 8.95264851653696  C 2.28535259727627 8.89291482976654  2.42473119163424 8.75104732976654  2.64375469357977 8.52704601653696  C 2.86277819552529 8.30304470330739  3.13655757782101 8.02677641536965  3.46509284046693 7.69824115272374  L 4.55523256322957 6.60810142996109  L 5.76483965466926 5.3984943385214  L 8.9755251459144 2.18780884727626  L 11.7680748394942 4.99529197470817  L 8.55738934824903 8.20597746595331  L 7.36271567607004 9.415584557393  C 6.96449112354086 9.80385349708171  6.60608902237354 10.159766692607  6.28750937256809 10.4833241439689  C 5.96892972276265 10.8068815953307  5.7051059533074 11.0731942655642  5.49603806420234 11.2822621546693  C 5.28697017509728 11.4913300437743  5.162525 11.6107974124514  5.12270253891051 11.6406642607004  C 5.02314640077821 11.7302647859922  4.9086568385214 11.8248431177043  4.77923385214008 11.9243992558366  C 4.64981086575876 12.0239553939689  4.51541007782101 12.1036003064202  4.37603148832685 12.1633339931907  C 4.23665288910506 12.2330232928016  4.03256280642023 12.3176460116732  3.76376124027237 12.4172021498054  C 3.49495967412452 12.5167582879377  3.21371357976654 12.6138255252918  2.92002295719844 12.7084038618677  C 2.62633233463035 12.8029821984436  2.3475751459144 12.8851160116732  2.08375139105058 12.9548053015564  C 1.81992763618677 13.0244945914397  1.62330426070039 13.0692948540856  1.49388126459144 13.0892060894942  C 1.22507968871595 13.1190729280156  1.0458786381323 13.0792504717899  0.956278112840467 12.9697387208171  C 0.866677587548638 12.8602269698444  0.841788550583658 12.6760481128405  0.881611001945525 12.4172021498054  C 0.901522227626459 12.2778235505837  0.948811395914397 12.076222368677  1.02347850680934 11.8123986040856  C 1.09814561770428 11.5485748394942  1.17779053015564 11.2747954571984  1.26241324416342 10.9910604571984  C 1.34703595817121 10.7073254571984  1.42916977140078 10.4459905933852  1.50881468385214 10.2070558657588  C 1.5884595963035 9.96812113813229  1.65317108463035 9.80385350680934  1.70294914883269 9.71425297178988  C 1.76268283560311 9.57487437256809  1.82988322957199 9.44794029669261  1.9045503307393 9.33345074416342  Z " fill-rule="nonzero" fill="#ffffff" stroke="none" transform="matrix(1 0 0 1 33 171 )" />
  </g>
</svg>