<?xml version="1.0" encoding="utf-8"?>
<svg version="1.1" xmlns:xlink="http://www.w3.org/1999/xlink" width="11px" height="9px" xmlns="http://www.w3.org/2000/svg">
  <g transform="matrix(1 0 0 1 -1421 -237 )">
    <path d="M 10.8845 6.7446  C 10.9615 6.921  11 7.11  11 7.3116  C 11 7.4916  10.9688333333333 7.6608  10.9065 7.8192  C 10.8441666666667 7.9776  10.7561666666667 8.1198  10.6425 8.2458  C 10.5288333333333 8.3718  10.3968333333333 8.478  10.2465 8.5644  C 10.0961666666667 8.6508  9.933 8.7084  9.757 8.7372  L 9.768 8.748  L 9.581 8.748  L 9.537 8.748  L 9.493 8.748  L 2.233 8.748  C 2.19633333333333 8.7552  2.13766666666667 8.7588  2.057 8.7588  C 1.771 8.7588  1.50333333333333 8.7048  1.254 8.5968  C 1.00466666666667 8.4888  0.7865 8.343  0.5995 8.1594  C 0.412499999999999 7.9758  0.265833333333333 7.7616  0.159499999999999 7.5168  C 0.0531666666666665 7.272  0 7.0092  0 6.7284  C 0 6.4476  0.0531666666666665 6.1848  0.159499999999999 5.94  C 0.265833333333332 5.6952  0.412499999999999 5.481  0.5995 5.2974  C 0.7865 5.1138  1.00466666666667 4.968  1.254 4.86  C 1.50333333333333 4.752  1.771 4.698  2.057 4.698  L 2.068 4.698  C 2.06066666666667 4.6404  2.057 4.5864  2.057 4.536  L 2.057 4.3632  C 2.057 3.852  2.156 3.3696  2.354 2.916  C 2.552 2.4624  2.82333333333333 2.0682  3.168 1.7334  C 3.51266666666667 1.3986  3.91416666666667 1.134  4.3725 0.939600000000002  C 4.83083333333333 0.745200000000002  5.32033333333333 0.648000000000002  5.841 0.648000000000002  C 6.36166666666667 0.648000000000002  6.853 0.745200000000002  7.315 0.939600000000002  C 7.777 1.134  8.18033333333333 1.3986  8.525 1.7334  C 8.86966666666667 2.0682  9.141 2.4624  9.339 2.916  C 9.537 3.3696  9.636 3.852  9.636 4.3632  C 9.636 4.6296  9.60666666666667 4.8906  9.548 5.1462  C 9.48933333333333 5.4018  9.40866666666667 5.6448  9.306 5.8752  C 9.34266666666667 5.868  9.38116666666667 5.8626  9.4215 5.859  C 9.46183333333333 5.8554  9.50033333333333 5.8536  9.537 5.8536  C 9.735 5.8536  9.92383333333333 5.8914  10.1035 5.967  C 10.2831666666667 6.0426  10.439 6.147  10.571 6.2802  C 10.703 6.4134  10.8075 6.5682  10.8845 6.7446  Z M 6.8035 6.0318  C 6.95383333333333 6.0282  7.06933333333333 6.0264  7.15 6.0264  C 7.29666666666667 6.0264  7.392 6.0102  7.436 5.9778  C 7.48 5.9454  7.45066666666667 5.868  7.348 5.7456  C 7.24533333333333 5.616  7.13166666666667 5.4468  7.007 5.238  C 6.88233333333333 5.0292  6.75216666666667 4.8168  6.6165 4.6008  C 6.48083333333333 4.3848  6.34333333333333 4.1832  6.204 3.996  C 6.06466666666667 3.8088  5.929 3.672  5.797 3.5856  C 5.665 3.492  5.56783333333333 3.4416  5.5055 3.4344  C 5.44316666666667 3.4272  5.35333333333334 3.4704  5.236 3.564  C 5.104 3.672  4.97566666666667 3.8088  4.851 3.9744  C 4.72633333333333 4.14  4.59983333333333 4.3164  4.4715 4.5036  C 4.34316666666667 4.6908  4.21483333333333 4.8744  4.0865 5.0544  C 3.95816666666667 5.2344  3.828 5.3928  3.696 5.5296  C 3.564 5.6592  3.51633333333333 5.7744  3.553 5.8752  C 3.58966666666667 5.976  3.68133333333334 6.0264  3.828 6.0264  L 4.004 6.0264  C 4.07 6.0264  4.1415 6.0282  4.2185 6.0318  C 4.2955 6.0354  4.37066666666667 6.0372  4.444 6.0372  L 4.631 6.0372  C 4.73366666666667 6.0444  4.79966666666667 6.0786  4.829 6.1398  C 4.85833333333334 6.201  4.873 6.2856  4.873 6.3936  C 4.873 6.516  4.87116666666667 6.624  4.8675 6.7176  C 4.86383333333333 6.8112  4.862 6.9012  4.862 6.9876  C 4.862 7.074  4.86016666666667 7.164  4.8565 7.2576  C 4.85283333333334 7.3512  4.851 7.4592  4.851 7.5816  C 4.851 7.632  4.8565 7.686  4.8675 7.7436  C 4.8785 7.8012  4.89866666666667 7.8552  4.928 7.9056  C 4.95733333333334 7.956  5.00133333333334 7.9974  5.06 8.0298  C 5.11866666666667 8.0622  5.19566666666667 8.0784  5.291 8.0784  L 5.544 8.0784  C 5.61 8.0784  5.709 8.082  5.841 8.0892  C 6.017 8.0892  6.11783333333334 8.046  6.1435 7.9596  C 6.16916666666667 7.8732  6.182 7.7364  6.182 7.5492  C 6.182 7.3836  6.18383333333334 7.2342  6.1875 7.101  C 6.19116666666667 6.9678  6.193 6.786  6.193 6.5556  C 6.193 6.39  6.2095 6.2622  6.2425 6.1722  C 6.2755 6.0822  6.347 6.0372  6.457 6.0372  C 6.53766666666667 6.0372  6.65316666666667 6.0354  6.8035 6.0318  Z " fill-rule="nonzero" fill="#f59a23" stroke="none" transform="matrix(1 0 0 1 1421 237 )" />
  </g>
</svg>