<?xml version="1.0" encoding="utf-8"?>
<svg version="1.1" xmlns:xlink="http://www.w3.org/1999/xlink" width="21px" height="13px" xmlns="http://www.w3.org/2000/svg">
  <g transform="matrix(1 0 0 1 -577 -583 )">
    <path d="M 20.6465000068359 5.09894999316406  L 17.9994500068359 11.7534999863281  L 15.7475500136719 11.7534999863281  C 15.8473000136719 10.9404499794922  15.9967500205078 9.86909999316406  16.1959000136719 8.53909997949219  C 15.9796000136719 9.12429998632813  15.7409000068359 9.71439998632813  15.4787500136719 10.3093999794922  L 14.8561000136719 11.7534999863281  L 12.5989500205078 11.7534999863281  L 13.5383500136719 5.09894999316406  L 15.3265000136719 5.09894999316406  C 15.2925500068359 5.27289998632812  15.0965500136719 6.54305  14.7381500068359 8.91009998632813  C 14.8274000068359 8.66649998632812  15.33 7.39599998632812  16.2459500068359 5.09894999316406  L 17.9637500068359 5.09894999316406  L 17.3424999931641 8.90975  C 17.7131499931641 7.79675  18.2188999863281 6.52660000683594  18.8601 5.09860000683594  L 20.6465000068359 5.09860000683594  Z M 12.7399999658203 7.39670002050781  L 12.4845 8.38265  L 9.64074999316406 8.38265  L 9.22425 9.99125  C 9.1371 10.3276000068359  9.10455 10.5442499931641  9.1266 10.6415500068359  C 9.14865 10.73885  9.22670000683594 10.78715  9.36075 10.78715  C 9.52734999316406 10.78715  9.65544999316406 10.7227499931641  9.74505 10.59395  C 9.83465000683594 10.4651500068359  9.92739999316406 10.2155999931641  10.0229499931641 9.84565000683594  L 10.2770499931641 8.86495000683594  L 12.35955 8.86495000683594  L 12.2174499931641 9.41410000683594  C 12.0984499863281 9.87365  11.9790999931641 10.2268000068359  11.8590499863281 10.4735500068359  C 11.7389999794922 10.7203000068359  11.5394999794922 10.9835  11.2601999794922 11.26385  C 10.9808999794922 11.5442  10.6648499794922 11.7542  10.3113499863281 11.8942000068359  C 9.95784999316406 12.0342000136719  9.54204999316406 12.1045500136719  9.06359997949219 12.1045500136719  C 8.59949997949219 12.1045500136719  8.20784997949219 12.0352500136719  7.88829997265625 11.8973500068359  C 7.56874996582031 11.7591000136719  7.34159997949219 11.5694  7.20649996582031 11.3286000136719  C 7.07139997265625 11.0874500205078  7.00314997265625 10.8221500068359  7.00209997265625 10.5327000136719  C 7.00104997265625 10.2432500205078  7.07209996582031 9.82185001367188  7.21524997265625 9.26885002050781  L 7.77664996582031 7.09990002734375  C 7.94499997265625 6.44960002050781  8.16304996582031 5.93685003417969  8.43044995898438 5.56130002050781  C 8.69784995214844 5.18575002734375  9.05169995214844 4.89805002734375  9.49129996582031 4.69820002050781  C 9.93089995898437 4.49835001367187  10.4026999658203 4.39825002734375  10.9063499589844 4.39825002734375  C 11.5226999589844 4.39825002734375  11.9997499658203 4.51865002050781  12.3378499658203 4.75980003417969  C 12.6759499658203 5.00095002734375  12.8740499589844 5.32015002734375  12.9324999726563 5.71810002734375  C 12.9905999794922 6.11605002734375  12.9265499794922 6.67570002734375  12.7399999658203 7.39670002050781  Z M 10.8692499931641 5.88295000683594  C 10.8587499931641 5.77094999316406  10.7915499931641 5.71495000683594  10.6683500068359 5.71495000683594  C 10.5161000068359 5.71495000683594  10.4093500136719 5.76255001367188  10.3488 5.85775000683594  C 10.2879 5.95295  10.2032000068359 6.20985001367187  10.0950500068359 6.62845000683594  L 9.954 7.172  L 10.59555 7.172  L 10.73625 6.62845000683594  C 10.836 6.24345001367188  10.8801 5.99495  10.8692499931641 5.88295000683594  Z M 9.28444998632812 4.05595000683594  C 9.13535000683594 4.10039999316406  8.98835000683594 4.15079999316406  8.84589999316406 4.21345000683594  C 8.36184999316406 4.42625  7.97229999316406 4.73215000683594  7.67794998632813 5.13185  C 7.38324999316406 5.53154999316406  7.14314997949219 6.07685  6.95799999316406 6.7688  L 6.33954999316406 9.0767  C 6.18204999316406 9.66505000683594  6.10365 10.1134000068359  6.10504998632813 10.4213999931641  C 6.10644999316406 10.7294  6.18134997949219 11.01185  6.33009999316406 11.26805  C 6.47884998632813 11.5246000068359  6.72909999316406 11.7262000068359  7.08084999316406 11.8732000068359  C 7.09554999316406 11.87915  7.11234999316406 11.88335  7.12704999316406 11.8893000136719  L 7.06789998632813 12.1045500136719  L 4.43204997949219 12.1045500136719  L 4.27069998632813 7.00890001367188  L 2.86790000683594 12.1042000068359  L 0.353499993164063 12.1042000068359  L 3.4398 0.895450006835939  L 5.95419999316406 0.895450006835939  L 6.25029999316406 5.94245  L 7.64014998632812 0.895450006835939  L 10.1545499794922 0.895450006835939  L 9.28444998632812 4.05595000683594  Z " fill-rule="nonzero" fill="#eb7027" stroke="none" transform="matrix(1 0 0 1 577 583 )" />
  </g>
</svg>