<?xml version="1.0" encoding="utf-8"?>
<svg version="1.1" xmlns:xlink="http://www.w3.org/1999/xlink" width="25px" height="13px" xmlns="http://www.w3.org/2000/svg">
  <g transform="matrix(1 0 0 1 -605 -583 )">
    <path d="M 25 1.68037037037037  C 25 0.797654320987654  24.2566666666667 0.0802469135802466  23.34 0  L 1.66 0  C 0.748333333333333 0.0802469135802466  0 0.796851851851852  0 1.68037037037037  L 0 11.3196296296296  C 0 12.2015432098765  0.743333333333333 12.9197530864198  1.66 13  L 23.3408333333333 13  C 24.2516666666667 12.9197530864198  25 12.2031481481481  25 11.3196296296296  L 25 1.68037037037037  Z M 16.465 2.95228395061728  L 16.465 2.2758024691358  L 22.285 2.2758024691358  L 22.285 2.95308641975309  L 19.4625 2.95308641975309  L 19.15 4.22259259259259  L 21.845 4.22259259259259  L 21.845 8.72685185185185  L 21.0933333333333 8.72685185185185  L 21.0933333333333 4.89907407407407  L 17.3241666666667 4.89907407407407  L 17.3241666666667 8.76376543209877  L 16.5725 8.76376543209877  L 16.5725 4.22179012345679  L 18.3983333333333 4.22179012345679  L 18.6716666666667 2.95228395061728  L 16.465 2.95228395061728  Z M 3.49583333333333 4.23222222222222  L 3.49583333333333 2.13537037037037  L 11.4941666666667 2.13537037037037  L 11.4941666666667 4.23222222222222  L 10.83 4.23222222222222  L 10.83 4.01555555555556  L 4.17 4.01555555555556  L 4.17 4.23222222222222  L 3.49583333333333 4.23222222222222  Z M 12.3341666666667 10.1375925925926  L 12.3341666666667 10.6832716049383  L 2.64666666666667 10.6832716049383  L 2.64666666666667 10.1375925925926  L 4.10166666666667 10.1375925925926  L 4.10166666666667 5.78339506172839  L 7.09 5.78339506172839  L 7.09 5.17271604938272  L 2.88083333333333 5.17271604938272  L 2.88083333333333 4.64549382716049  L 7.09 4.64549382716049  L 7.09 4.14716049382716  L 7.79333333333333 4.14716049382716  L 7.79333333333333 4.64549382716049  L 12.11 4.64549382716049  L 12.11 5.17191358024691  L 7.79333333333333 5.17191358024691  L 7.79333333333333 5.78339506172839  L 10.9866666666667 5.78339506172839  L 10.9866666666667 10.1375925925926  L 12.3341666666667 10.1375925925926  Z M 14.9791666666667 9.49802469135803  L 14.9808333333333 9.49802469135803  C 14.9808333333333 10.2443209876543  14.5808333333333 10.6174691358025  13.78 10.6174691358025  C 13.4483333333333 10.6174691358025  13.1808333333333 10.6110493827161  12.9791666666667 10.599012345679  C 12.9466666666667 10.3109259259259  12.8941666666667 10.0316666666667  12.8225 9.76203703703704  C 13.1216666666667 9.83104938271605  13.4308333333333 9.86555555555556  13.75 9.86555555555556  C 14.0625 9.86555555555556  14.2183333333333 9.72111111111111  14.2183333333333 9.43302469135802  L 14.2183333333333 3.18820987654321  L 12.6458333333333 3.18820987654321  L 12.6458333333333 2.5020987654321  L 16.2783333333333 2.5020987654321  L 16.2783333333333 3.18820987654321  L 14.9791666666667 3.18820987654321  L 14.9791666666667 9.49802469135803  Z M 22.315 10.3911728395062  L 21.7675 11.0219135802469  C 20.895 10.3261728395062  19.98 9.66734567901234  19.0233333333333 9.04703703703704  C 18.9583333333333 9.17222222222222  18.8866666666667 9.28537037037037  18.8083333333333 9.38567901234568  C 18.2683333333333 10.1006790123457  17.3333333333333 10.6583950617284  16.0058333333333 11.0596296296296  C 15.8825 10.8525925925926  15.7258333333333 10.6270987654321  15.5375 10.3823456790123  C 16.7683333333333 10.0437037037037  17.6375 9.57345679012346  18.145 8.97160493827161  C 18.5941666666667 8.40746913580247  18.8191666666667 7.55444444444444  18.8191666666667 6.41333333333333  L 18.8191666666667 5.36049382716049  L 19.5708333333333 5.36049382716049  L 19.5708333333333 6.39487654320988  C 19.5708333333333 7.17888888888889  19.4833333333333 7.84654320987654  19.3075 8.39783950617284  C 20.4075 9.07512345679012  21.41 9.73956790123457  22.315 10.3911728395062  Z " fill-rule="nonzero" fill="#d81e06" stroke="none" transform="matrix(1 0 0 1 605 583 )" />
  </g>
</svg>