<?xml version="1.0" encoding="utf-8"?>
<svg version="1.1" xmlns:xlink="http://www.w3.org/1999/xlink" width="7px" height="8px" xmlns="http://www.w3.org/2000/svg">
  <g transform="matrix(1 0 0 1 -609 -585 )">
    <path d="M 0.684444444444445 6.77  L 0.684444444444445 6.155  L 6.4062962962963 6.155  L 6.4062962962963 6.77  L 0.684444444444445 6.77  Z M 0.0466666666666666 1.0175  L 0.0466666666666666 0.119166666666667  L 1.90037037037037 0.119166666666667  L 1.90037037037037 1.0175  L 0.0466666666666666 1.0175  Z M 0.684444444444445 7.9025  L 0.684444444444445 7.2775  L 6.4062962962963 7.2775  L 6.4062962962963 7.9025  L 0.684444444444445 7.9025  Z M 5.09012345679012 1.0175  L 5.09012345679012 0.119166666666667  L 6.95333333333333 0.119166666666667  L 6.95333333333333 1.0175  L 5.09012345679012 1.0175  Z M 2.5683950617284 1.0175  L 2.5683950617284 0.119166666666667  L 4.4220987654321 0.119166666666667  L 4.4220987654321 1.0175  L 2.5683950617284 1.0175  Z " fill-rule="nonzero" fill="#d81e06" stroke="none" transform="matrix(1 0 0 1 609 585 )" />
  </g>
</svg>