<?xml version="1.0" encoding="utf-8"?>
<svg version="1.1" xmlns:xlink="http://www.w3.org/1999/xlink" width="120px" height="40px" xmlns="http://www.w3.org/2000/svg">
  <g transform="matrix(1 0 0 1 -310 -694 )">
    <path d="M 310.5 699  A 4.5 4.5 0 0 1 315 694.5 L 425 694.5  A 4.5 4.5 0 0 1 429.5 699 L 429.5 729  A 4.5 4.5 0 0 1 425 733.5 L 315 733.5  A 4.5 4.5 0 0 1 310.5 729 L 310.5 699  Z " fill-rule="nonzero" fill="#ffffff" stroke="none" />
    <path d="M 310.5 699  A 4.5 4.5 0 0 1 315 694.5 L 425 694.5  A 4.5 4.5 0 0 1 429.5 699 L 429.5 729  A 4.5 4.5 0 0 1 425 733.5 L 315 733.5  A 4.5 4.5 0 0 1 310.5 729 L 310.5 699  Z " stroke-width="1" stroke="#e4e4e4" fill="none" />
  </g>
</svg>