<?xml version="1.0" encoding="utf-8"?>
<svg version="1.1" xmlns:xlink="http://www.w3.org/1999/xlink" width="120px" height="40px" xmlns="http://www.w3.org/2000/svg">
  <g transform="matrix(1 0 0 1 -310 -694 )">
    <path d="M 311 699  A 4 4 0 0 1 315 695 L 425 695  A 4 4 0 0 1 429 699 L 429 729  A 4 4 0 0 1 425 733 L 315 733  A 4 4 0 0 1 311 729 L 311 699  Z " fill-rule="nonzero" fill="#f0f7ff" stroke="none" />
    <path d="M 310.5 699  A 4.5 4.5 0 0 1 315 694.5 L 425 694.5  A 4.5 4.5 0 0 1 429.5 699 L 429.5 729  A 4.5 4.5 0 0 1 425 733.5 L 315 733.5  A 4.5 4.5 0 0 1 310.5 729 L 310.5 699  Z " stroke-width="1" stroke="#7abbff" fill="none" stroke-opacity="0.996078431372549" />
  </g>
</svg>