<?xml version="1.0" encoding="utf-8"?>
<svg version="1.1" xmlns:xlink="http://www.w3.org/1999/xlink" width="13px" height="13px" xmlns="http://www.w3.org/2000/svg">
  <g transform="matrix(1 0 0 1 -35 -168 )">
    <path d="M 6.50006879589844 0  C 10.0898417851563 0  13 2.91024993847656  13 6.5  C 13 10.089887640625  10.0898417851563 13  6.50006879589844 13  C 2.91015821484375 13  0 10.089887640625  0 6.5  C 0 2.91024993847656  2.91015821484375 0  6.50006879589844 0  Z M 4.59871588769531 8.97007567675781  C 3.79979362597656 8.23263013574219  3.00103187109375 7.49520752246094  2.20208668164063 6.75778490917969  C 2.00417336132813 6.57509745800781  1.69578078515625 6.58747993261719  1.51320798535156 6.78525567382813  C 1.33052053417969 6.983191921875  1.34290300878906 7.29158449804688  1.54070167773438 7.47413437011719  L 3.93744553515625 9.68640219726563  C 4.46498509082031 10.1734005927734  5.28745700488281 10.1406328740234  5.77443247265625 9.61295573925781  L 10.7123136884766 4.26363219140625  C 10.8948406328125 4.06585645019531  10.8826186650391 3.75746388671875  10.6846824169922 3.57477642285156  C 10.4869066757812 3.39222655078125  10.178491171875 3.40447144628906  9.99580372070312 3.60238477929688  C 8.34994268164062 5.38550791796875  6.70394405078125 7.16858518847656  5.05794541992187 8.95170832714844  C 4.90206374023437 9.1204998828125  4.76764503515625 9.12598028417969  4.59871588769531 8.97007567675781  Z " fill-rule="nonzero" fill="#ffffff" stroke="none" transform="matrix(1 0 0 1 35 168 )" />
  </g>
</svg>