<?xml version="1.0" encoding="utf-8"?>
<svg version="1.1" xmlns:xlink="http://www.w3.org/1999/xlink" width="32px" height="32px" xmlns="http://www.w3.org/2000/svg">
  <g transform="matrix(1 0 0 1 -585 -608 )">
    <path d="M 585.5 611  A 2.5 2.5 0 0 1 588 608.5 L 614 608.5  A 2.5 2.5 0 0 1 616.5 611 L 616.5 637  A 2.5 2.5 0 0 1 614 639.5 L 588 639.5  A 2.5 2.5 0 0 1 585.5 637 L 585.5 611  Z " fill-rule="nonzero" fill="#ffffff" stroke="none" />
    <path d="M 585.5 611  A 2.5 2.5 0 0 1 588 608.5 L 614 608.5  A 2.5 2.5 0 0 1 616.5 611 L 616.5 637  A 2.5 2.5 0 0 1 614 639.5 L 588 639.5  A 2.5 2.5 0 0 1 585.5 637 L 585.5 611  Z " stroke-width="1" stroke="#e4e4e4" fill="none" />
  </g>
</svg>