<?xml version="1.0" encoding="utf-8"?>
<svg version="1.1" xmlns:xlink="http://www.w3.org/1999/xlink" width="9px" height="8px" xmlns="http://www.w3.org/2000/svg">
  <g transform="matrix(1 0 0 1 -260 -1478 )">
    <path d="M 6.8203125 7.234375  C 6.88882211538462 7.16840277777778  6.92307692307692 7.09027777777778  6.92307692307692 7  C 6.92307692307692 6.90972222222222  6.88882211538462 6.83159722222222  6.8203125 6.765625  C 6.75180288461539 6.69965277777778  6.67067307692308 6.66666666666667  6.57692307692308 6.66666666666667  C 6.48317307692308 6.66666666666667  6.40204326923077 6.69965277777778  6.33353365384615 6.765625  C 6.26502403846154 6.83159722222222  6.23076923076923 6.90972222222222  6.23076923076923 7  C 6.23076923076923 7.09027777777778  6.26502403846154 7.16840277777778  6.33353365384615 7.234375  C 6.40204326923077 7.30034722222222  6.48317307692308 7.33333333333333  6.57692307692308 7.33333333333333  C 6.67067307692308 7.33333333333333  6.75180288461539 7.30034722222222  6.8203125 7.234375  Z M 8.20492788461539 7.234375  C 8.2734375 7.16840277777778  8.30769230769231 7.09027777777778  8.30769230769231 7  C 8.30769230769231 6.90972222222222  8.2734375 6.83159722222222  8.20492788461539 6.765625  C 8.13641826923077 6.69965277777778  8.05528846153846 6.66666666666667  7.96153846153846 6.66666666666667  C 7.86778846153846 6.66666666666667  7.78665865384615 6.69965277777778  7.71814903846154 6.765625  C 7.64963942307692 6.83159722222222  7.61538461538462 6.90972222222222  7.61538461538462 7  C 7.61538461538462 7.09027777777778  7.64963942307692 7.16840277777778  7.71814903846154 7.234375  C 7.78665865384615 7.30034722222222  7.86778846153846 7.33333333333333  7.96153846153846 7.33333333333333  C 8.05528846153846 7.33333333333333  8.13641826923077 7.30034722222222  8.20492788461539 7.234375  Z M 8.84855769230769 5.47916666666667  C 8.94951923076923 5.57638888888889  9 5.69444444444444  9 5.83333333333333  L 9 7.5  C 9 7.63888888888889  8.94951923076923 7.75694444444444  8.84855769230769 7.85416666666667  C 8.74759615384616 7.95138888888889  8.625 8  8.48076923076923 8  L 0.519230769230769 8  C 0.375 8  0.252403846153846 7.95138888888889  0.151442307692308 7.85416666666667  C 0.0504807692307692 7.75694444444444  0 7.63888888888889  0 7.5  L 0 5.83333333333333  C 0 5.69444444444444  0.0504807692307692 5.57638888888889  0.151442307692308 5.47916666666667  C 0.252403846153846 5.38194444444444  0.375 5.33333333333333  0.519230769230769 5.33333333333333  L 3.03425480769231 5.33333333333333  L 3.76442307692308 6.04166666666667  C 3.97355769230769 6.23611111111111  4.21875 6.33333333333333  4.5 6.33333333333333  C 4.78125 6.33333333333333  5.02644230769231 6.23611111111111  5.23557692307692 6.04166666666667  L 5.97115384615385 5.33333333333333  L 8.48076923076923 5.33333333333333  C 8.625 5.33333333333333  8.74759615384616 5.38194444444444  8.84855769230769 5.47916666666667  Z M 6.92307692307692 2.66666666666667  C 7.07451923076923 2.66666666666667  7.18088942307692 2.734375  7.2421875 2.86979166666667  C 7.30348557692308 3.01215277777778  7.27824519230769 3.13368055555556  7.16646634615385 3.234375  L 4.74338942307692 5.56770833333333  C 4.67848557692308 5.63368055555556  4.59735576923077 5.66666666666667  4.5 5.66666666666667  C 4.40264423076923 5.66666666666667  4.32151442307692 5.63368055555556  4.25661057692308 5.56770833333333  L 1.83353365384615 3.234375  C 1.72175480769231 3.13368055555556  1.69651442307692 3.01215277777778  1.7578125 2.86979166666667  C 1.81911057692308 2.734375  1.92548076923077 2.66666666666667  2.07692307692308 2.66666666666667  L 3.46153846153846 2.66666666666667  L 3.46153846153846 0.333333333333333  C 3.46153846153846 0.243055555555554  3.49579326923077 0.164930555555554  3.56430288461538 0.098958333333333  C 3.6328125 0.0329861111111116  3.71394230769231 0  3.80769230769231 0  L 5.19230769230769 0  C 5.28605769230769 0  5.3671875 0.0329861111111116  5.43569711538462 0.098958333333333  C 5.50420673076923 0.164930555555554  5.53846153846154 0.243055555555554  5.53846153846154 0.333333333333333  L 5.53846153846154 2.66666666666667  L 6.92307692307692 2.66666666666667  Z " fill-rule="nonzero" fill="#33ccb0" stroke="none" transform="matrix(1 0 0 1 260 1478 )" />
  </g>
</svg>