<?xml version="1.0" encoding="utf-8"?>
<svg version="1.1" xmlns:xlink="http://www.w3.org/1999/xlink" width="9px" height="9px" xmlns="http://www.w3.org/2000/svg">
  <g transform="matrix(1 0 0 1 -1202 -325 )">
    <path d="M 9 4.5  C 9 2.01471862576143  6.98528137423857 0  4.5 0  C 2.01471862576143 0  0 2.01471862576143  0 4.5  C 0 6.98528137423857  2.01471862576143 9  4.5 9  C 6.98528137423857 9  9 6.98528137423857  9 4.5  Z M 8.1 4.5  C 8.1 6.48822509939086  6.48822509939086 8.1  4.5 8.1  C 2.51177490060914 8.1  0.9 6.48822509939086  0.9 4.5  C 0.9 2.51177490060914  2.51177490060914 0.9  4.5 0.9  C 6.48822509939086 0.9  8.1 2.51177490060914  8.1 4.5  Z M 6.5407582833694 2.91817818057987  C 6.45551211242264 2.91817818057987  6.37201940927098 2.94239172937565  6.3 2.988  L 4.05 5.2155  L 2.8845 4.05  C 2.8029616349392 3.98017233327064  2.69914639785379 3.94179460225793  2.59179460225793 3.94179460225793  C 2.34326646483407 3.94179460225793  2.14179460225793 4.14326646483407  2.14179460225793 4.39179460225793  C 2.14179460225793 4.49914639785379  2.18017233327064 4.6029616349392  2.25 4.6845  L 3.7305 6.1695  C 3.8149949699575 6.25469069287039  3.93001310863325 6.30260924595375  4.05 6.30260924595375  C 4.16998689136675 6.30260924595375  4.2850050300425 6.25469069287039  4.3695 6.1695  L 6.912 3.6225  C 6.96330365399892 3.54761041080389  6.9907582833694 3.45895546564394  6.9907582833694 3.36817818057987  C 6.9907582833694 3.11965004315601  6.78928642079326 2.91817818057987  6.5407582833694 2.91817818057987  Z " fill-rule="nonzero" fill="#70b603" stroke="none" transform="matrix(1 0 0 1 1202 325 )" />
  </g>
</svg>