<?xml version="1.0" encoding="utf-8"?>
<svg version="1.1" xmlns:xlink="http://www.w3.org/1999/xlink" width="10px" height="10px" xmlns="http://www.w3.org/2000/svg">
  <g transform="matrix(1 0 0 1 -1202 -280 )">
    <path d="M 0 5  C 0 2.23850000215742  2.23850000215742 0  5 0  C 7.76149999784258 0  10 2.23850000215742  10 5  C 10 7.76149999784258  7.76149999784258 10  5 10  C 2.23850000215742 10  0 7.76149999784258  0 5  Z M 1.83500000247266 2.55500000191016  C 1.29268878406833 3.2545603246109  0.998887334483895 4.11485319598151  1.00000000703125 5  C 1.00020105768 7.20899681420354  2.79100316007994 8.99963593513713  4.99999998343274 8.99963593513713  C 5.88505540649136 8.99963593513713  6.745119344977 8.70610076185827  7.4455000019957 8.16499999752734  L 1.83500000247266 2.55500000191016  Z M 5 1.00000000703125  C 4.10871475684325 0.998548637530518  3.24269737017299 1.29608256155282  2.54050000582773 1.84499999855859  L 8.15500000144141 7.45999999807812  C 8.70317646126958 6.7571512667601  9.00089164746783 5.89134370085837  9.00089164746783 4.99999990061903  C 9.00089164746783 2.79086090517911  7.21003064993901 0.999999907650281  5.00089165449908 0.999999907650281  Z " fill-rule="nonzero" fill="#7f7f7f" stroke="none" transform="matrix(1 0 0 1 1202 280 )" />
  </g>
</svg>