<?xml version="1.0" encoding="utf-8"?>
<svg version="1.1" xmlns:xlink="http://www.w3.org/1999/xlink" width="8px" height="10px" xmlns="http://www.w3.org/2000/svg">
  <g transform="matrix(1 0 0 1 -1264 -280 )">
    <path d="M 0.666666666666667 9.16666666259766  L 0.666666666666667 2.39583333740234  L 7.33333333333333 2.39583333740234  L 7.33333333333333 9.16666666259766  L 0.666666666666667 9.16666666259766  Z M 6.2222222265625 3.4375  L 1.7777777734375 3.4375  L 1.7777777734375 8.125  L 6.2222222265625 8.125  L 6.2222222265625 3.4375  Z M 2.33333333333333 7.08333333740234  L 2.33333333333333 4.47916666259766  L 3.44444444010417 4.47916666259766  L 3.44444444010417 7.08333333740234  L 2.33333333333333 7.08333333740234  Z M 4.55555555989583 7.08333333740234  L 4.55555555989583 4.47916666259766  L 5.66666666666667 4.47916666259766  L 5.66666666666667 7.08333333740234  L 4.55555555989583 7.08333333740234  Z M 0.111111106770833 3.4375  L 0.111111106770833 2.39583333740234  L 7.88888889322917 2.39583333740234  L 7.88888889322917 3.4375  L 0.111111106770833 3.4375  Z M 2.33333333333333 1.875  L 2.33333333333333 0.833333337402344  L 5.66666666666667 0.833333337402344  L 5.66666666666667 1.875  L 2.33333333333333 1.875  Z " fill-rule="nonzero" fill="#d9001b" stroke="none" transform="matrix(1 0 0 1 1264 280 )" />
  </g>
</svg>