<?xml version="1.0" encoding="utf-8"?>
<svg version="1.1" xmlns:xlink="http://www.w3.org/1999/xlink" width="49px" height="49px" xmlns="http://www.w3.org/2000/svg">
  <g transform="matrix(1 0 0 1 -128 -205 )">
    <path d="M 49 5.88  C 49 2.63256567099493  46.3674343290051 0  43.12 0  L 5.88 0  C 2.63256567099493 0  0 2.63256567099493  0 5.88  L 0 43.12  C 0 46.3674343290051  2.63256567099493 49  5.88 49  L 43.12 49  C 46.3674343290051 49  49 46.3674343290051  49 43.12  L 49 5.88  Z M 45 5.88  L 45 43.12  C 45.08 44.2024781096684  44.2024781096684 45.08  43.12 45  L 5.88 45  C 4.79752189033165 45.08  3.92 44.2024781096684  4 43.12  L 4 5.88  C 3.92 4.79752189033165  4.79752189033165 3.92  5.88 4  L 43.12 4  C 44.2024781096684 3.92  45.08 4.79752189033165  45 5.88  Z M 13.72 22.54  L 13.72 18.62  L 16.66 18.62  C 18.943901674279 18.0958159555651  20.562788618233 16.0632831178103  20.562788618233 13.72  C 20.562788618233 11.3767168821897  18.943901674279 9.3441840444349  16.66 8.82  L 11 8.82  L 11 22.54  L 13.72 22.54  Z M 13.72 15.68  L 13.72 11.76  L 15.8172 11.76  C 16.8285121003125 11.7686943020422  17.64376137792 12.5909824462319  17.64376137792 13.6023319185344  C 17.64376137792 13.6415846662909  17.6425069450286 13.6808273892489  17.64 13.72  C 17.6413864182189 13.749384877172  17.6420799163051 13.7787983549568  17.6420799163051 13.8082159204898  C 17.6420799163051 14.8389689124956  16.8087442249941 15.6757487448621  15.778 15.68  L 13.72 15.68  Z M 29.4 22.54  L 32.34 22.54  L 35.28 12.74  L 35.28 22.54  L 38 22.54  L 38 8.82  L 33.32 8.82  L 30.87 17.3852  L 28.42 8.82  L 24 8.82  L 24 22.54  L 26.46 22.54  L 26.46 12.74  L 29.4 22.54  Z M 15.2194 37.7692  L 16.9834 35.7504  C 17.7111265474611 35.0580517747947  18.3920903227461 34.3181584420331  19.0218 33.5356  C 19.4020353809353 33.0506203917662  19.715186250897 32.5166157503578  19.9528 31.948  C 20.1506039964647 31.448747078094  20.2536296179958 30.9170019347077  20.2566 30.38  C 20.3384486392024 29.2671599132351  19.896285045703 28.1798723882367  19.061 27.44  C 18.0846602787564 26.7251939058295  16.8872626127211 26.3781221185729  15.68 26.46  C 14.8137556165321 26.4517462430873  13.9588226251699 26.657064796131  13.1908 27.0578  C 12.466255120463 27.4318896326823  11.861711444793 28.0024701805056  11.4464 28.7042  C 11.0191031677488 29.3970408826526  10.7887143912318 30.1932373897333  10.78 31.0072  L 13.9454 31.0072  C 13.9297565066247 30.4687838278351  14.0878158336892 29.9396286894015  14.3962 29.498  C 14.6606120281624 29.1100621593069  15.102804667902 28.8815959621081  15.5722 28.8904  C 15.9910795885061 28.8619820063124  16.3996610820303 29.0283072160656  16.6796 29.3412  C 16.9663122155903 29.7201055923358  17.1056181683209 30.1902631828017  17.0716 30.6642  C 17.0716 31.3894  16.5228 32.3498  15.4448 33.6042  L 11.074 38.1416  L 11.074 40.18  L 20.58 40.18  L 20.58 37.7692  L 15.2194 37.7692  Z M 25.9014 36.7892  C 25.5270058206162 36.4274491649289  25.0200570530269 36.2360139659791  24.5 36.26  C 23.9736708572325 36.2491250972036  23.4650933214621 36.4504370384461  23.0888 36.8186  C 22.3550705540076 37.6201028735245  22.3550705540076 38.8492971264755  23.0888 39.6508  C 23.4698652012654 40.0082377142899  23.9778685430752 40.1987389674686  24.5 40.18  C 25.0243889341054 40.1962199146281  25.5319564765657 39.9939027823187  25.9014 39.6214  C 26.6592774834734 38.8294354835935  26.6592774834734 37.5811645164065  25.9014 36.7892  Z M 33.8884 31.0954  L 33.8982 31.1052  C 33.524327787741 31.1070595796206  33.1522096510305 31.1564557924583  32.7908 31.2522  C 32.4772914814843 31.3289783883421  32.1744658671131 31.4441837851137  31.8892 31.5952  L 32.2028 28.91  L 37.7594 28.91  L 37.7594 26.46  L 29.5568 26.46  L 28.6944 33.3886  L 31.2816 33.9766  C 31.7106205989139 33.5012423674875  32.3397164659982 33.2576040837034  32.977 33.32  C 34.3098 33.32  34.937 34.0354  34.937 35.476  C 34.937 36.9166  34.3882 37.8182  33.3004 37.8182  C 32.8697337358264 37.8356393200224  32.4499278076814 37.680416960036  32.1342 37.387  C 31.826988109753 37.0677901410408  31.6519346557329 36.6441607823121  31.6442 36.2012  L 28.42 36.2012  C 28.4143380646135 36.9275024360969  28.6447682278502 37.6359892066455  29.0766 38.22  C 29.5370305224178 38.853762819622  30.1600140791792 39.3514725089912  30.8798 39.6606  C 31.6466830940392 40.0062882604722  32.4788112937931 40.1834079174479  33.32 40.18  C 34.2090557296242 40.1990908471508  35.0896699227411 40.0041457204302  35.8876 39.6116  C 36.5991290252794 39.2460516695644  37.1883911057861 38.6806325634135  37.583 37.9848  C 37.9862795813155 37.2672702705742  38.192525674469 36.4558102319376  38.1808 35.6328  C 38.2525049745089 34.4381503557319  37.8671130685373 33.2609532611279  37.1028 32.34  C 36.2598908788617 31.4826116537213  35.0889124083878 31.0292145020439  33.8884 31.0954  Z " fill-rule="nonzero" fill="#f59a23" stroke="none" fill-opacity="0.988235294117647" transform="matrix(1 0 0 1 128 205 )" />
  </g>
</svg>