<?xml version="1.0" encoding="utf-8"?>
<svg version="1.1" xmlns:xlink="http://www.w3.org/1999/xlink" width="20px" height="17px" xmlns="http://www.w3.org/2000/svg">
  <g transform="matrix(1 0 0 1 -719 -379 )">
    <path d="M 18.5807291666666 6.16471354166672  L 16.7057291666666 4.57096354166672  L 12.0833333333334 8.5  L 16.7057291666666 12.4290364583333  L 18.5807291666666 10.8352864583333  C 18.8324652777779 10.6065538194444  19.1362847222221 10.5549045138889  19.4921875 10.6803385416667  C 19.8307291666666 10.8057725694444  20 11.0234375  20 11.3333333333333  L 20 16.2916666666667  C 20 16.4835069444444  19.9175347222221 16.6495225694444  19.7526041666666 16.7897135416667  C 19.587673611111 16.9299045138889  19.392361111111 17  19.1666666666666 17  L 13.3333333333334 17  C 12.96875 17  12.712673611111 16.8524305555556  12.5651041666666 16.5572916666667  C 12.4175347222221 16.26953125  12.478298611111 16.0149739583333  12.7473958333334 15.7936197916667  L 14.6223958333334 14.1998697916667  L 10 10.2708333333333  L 5.37760416666655 14.1998697916667  L 7.25260416666655 15.7936197916667  C 7.52170138888897 16.0149739583333  7.58246527777793 16.26953125  7.43489583333345 16.5572916666667  C 7.28732638888897 16.8524305555556  7.03125 17  6.66666666666655 17  L 0.83333333333345 17  C 0.607638888888967 17  0.412326388888967 16.9299045138889  0.24739583333345 16.7897135416667  C 0.0824652777779332 16.6495225694444  0 16.4835069444444  0 16.2916666666667  L 0 11.3333333333333  C 0 11.0234375  0.173611111111033 10.8057725694444  0.52083333333345 10.6803385416667  C 0.859375 10.5549045138889  1.15885416666655 10.6065538194444  1.41927083333345 10.8352864583333  L 3.29427083333345 12.4290364583333  L 7.91666666666655 8.5  L 3.29427083333345 4.57096354166672  L 1.41927083333345 6.16471354166672  C 1.25434027777793 6.30490451388891  1.05902777777793 6.375  0.83333333333345 6.375  C 0.72916666666655 6.375  0.625 6.35655381944438  0.52083333333345 6.31966145833328  C 0.173611111111033 6.19422743055562  0 5.9765625  0 5.66666666666672  L 0 0.708333333333284  C 0 0.516493055555622  0.0824652777779332 0.350477430555622  0.24739583333345 0.210286458333284  C 0.412326388888967 0.0700954861110946  0.607638888888967 0  0.83333333333345 0  L 6.66666666666655 0  C 7.03125 0  7.28732638888897 0.147569444444378  7.43489583333345 0.442708333333284  C 7.58246527777793 0.73046875  7.52170138888897 0.985026041666716  7.25260416666655 1.20638020833328  L 5.37760416666655 2.80013020833328  L 10 6.72916666666672  L 14.6223958333334 2.80013020833328  L 12.7473958333334 1.20638020833328  C 12.478298611111 0.985026041666716  12.4175347222221 0.73046875  12.5651041666666 0.442708333333284  C 12.712673611111 0.147569444444378  12.96875 0  13.3333333333334 0  L 19.1666666666666 0  C 19.392361111111 0  19.587673611111 0.0700954861110946  19.7526041666666 0.210286458333284  C 19.9175347222221 0.350477430555622  20 0.516493055555622  20 0.708333333333284  L 20 5.66666666666672  C 20 5.9765625  19.8307291666666 6.19422743055562  19.4921875 6.31966145833328  C 19.3793402777779 6.35655381944438  19.2708333333334 6.375  19.1666666666666 6.375  C 18.9409722222221 6.375  18.7456597222221 6.30490451388891  18.5807291666666 6.16471354166672  Z " fill-rule="nonzero" fill="#ffffff" stroke="none" transform="matrix(1 0 0 1 719 379 )" />
  </g>
</svg>