<?xml version="1.0" encoding="utf-8"?>
<svg version="1.1" xmlns:xlink="http://www.w3.org/1999/xlink" width="20px" height="17px" xmlns="http://www.w3.org/2000/svg">
  <g transform="matrix(1 0 0 1 -665 -379 )">
    <path d="M 19.7526041666666 0.210286458333284  C 19.9175347222221 0.350477430555622  20 0.516493055555622  20 0.708333333333284  L 20 16.2916666666667  C 20 16.4835069444444  19.9175347222221 16.6495225694444  19.7526041666666 16.7897135416667  C 19.587673611111 16.9299045138889  19.392361111111 17  19.1666666666666 17  L 0.83333333333345 17  C 0.607638888888967 17  0.412326388888967 16.9299045138889  0.24739583333345 16.7897135416667  C 0.0824652777779332 16.6495225694444  0 16.4835069444444  0 16.2916666666667  L 0 0.708333333333284  C 0 0.516493055555622  0.0824652777779332 0.350477430555622  0.24739583333345 0.210286458333284  C 0.412326388888967 0.0700954861110946  0.607638888888967 0  0.83333333333345 0  L 19.1666666666666 0  C 19.392361111111 0  19.587673611111 0.0700954861110946  19.7526041666666 0.210286458333284  Z " fill-rule="nonzero" fill="#ffffff" stroke="none" transform="matrix(1 0 0 1 665 379 )" />
  </g>
</svg>