<?xml version="1.0" encoding="utf-8"?>
<svg version="1.1" xmlns:xlink="http://www.w3.org/1999/xlink" width="41px" height="43px" xmlns="http://www.w3.org/2000/svg">
  <g transform="matrix(1 0 0 1 -116 -208 )">
    <path d="M 0 0.170634903971354  L 8.73936057021423 0.170634903971354  L 8.73936057021423 1.40347223888579  L 39.6139937106918 19.7893849039714  L 35.2754716981132 19.8149801420666  L 8.75870019285574 4.01631942778088  L 9 3.01383928571429  L 9 19.8725694277809  C 8.80992558508445 19.863810988114  8.88098225723866 19.859536408982  8.95209641927083 20  L 40.8280922599744 20  L 40.8280922599744 29  L 8.95209641927083 29  L 8.73936057021423 29.3726686674572  L 8.73936057021423 30  L 40.8280922599744 30  L 40.8280922599744 37  L 8.73936057021423 37  L 8.73936057021423 42.8293650960286  L 0 42.8293650960286  L 0 0.170634903971354  Z M 35.3120020796482 32.5400793817429  L 35.3120020796482 32.5379464285714  L 33.4919287379619 35.6008432373047  L 38.6620545241254 35.6029761904762  L 38.6620545241254 32.5400793817429  L 35.3120020796482 32.5400793817429  Z M 11.3674004360751 35.6029761904762  L 13.1896226415094 32.5379464285714  L 8.73936057021423 32.5400793817429  L 8.73936057021423 35.6029761904762  L 11.3674004360751 35.6029761904762  Z M 16.3527253500884 35.6008432373047  L 18.1749476058864 32.5379464285714  L 15.377148863748 32.5379464285714  L 13.5570754716981 35.6008432373047  L 16.3527253500884 35.6008432373047  Z M 23.1581237065153 32.5379464285714  L 23.1602725198998 32.5379464285714  L 20.360324964377 32.5379464285714  L 18.538102708579 35.6008432373047  L 21.3380503144654 35.6008432373047  L 23.1581237065153 32.5379464285714  Z M 26.3212264150943 35.6008432373047  L 28.1434486205287 32.5379464285714  L 25.3456498783903 32.5379464285714  L 23.523427672956 35.6008432373047  L 26.3212264150943 35.6008432373047  Z M 31.3065513794713 35.6008432373047  L 33.1287735849057 32.5379464285714  L 30.3288259790193 32.5379464285714  L 28.5087526373329 35.6008432373047  L 31.3065513794713 35.6008432373047  Z " fill-rule="nonzero" fill="#33ccb0" stroke="none" transform="matrix(1 0 0 1 116 208 )" />
  </g>
</svg>