<?xml version="1.0" encoding="utf-8"?>
<svg version="1.1" xmlns:xlink="http://www.w3.org/1999/xlink" width="656px" height="213px" xmlns="http://www.w3.org/2000/svg">
  <g transform="matrix(1 0 0 1 -60 -38 )">
    <path d="M 0 211.667342675581  L 0 172.647782753161  C 0 173.223890049425  17.9792631902953 148.999564618362  26.9688947854428 137.175455550962  C 35.7088143918365 122.986524670082  36.0760599536822 112.696290027042  53.1886536046235 94.6086629083225  C 66.0462807946453 81.0184397669097  70.6684928174106 83.5728277787494  79.4084124238042 78.0549102139627  C 88.2285356530095 70.6940625462573  90.3132838562046 65.2419268243765  105.86878211142 55.9723672108466  C 119.758414399214 47.6955012185559  123.188214078584 49.4106662249375  131.847930062165 46.1298157319832  C 140.587849668559 40.2177611982834  144.103242503234 40.4142019958061  158.067688881346 28.3936521308835  C 173.7966435346 14.8542193017451  169.527418292767 0.670733429305721  184.709712929513 0.015790369123707  C 198.498155536076 -0.579023854414301  201.408618012134 15.7812691256571  209.758070553445 23.6640085039236  C 218.747702148593 35.0939806024101  227.046750285063 43.6005709648215  236.726965338888 57.953924799383  C 246.407180392713 72.3072786339448  244.972295334747 90.8918603098643  262.946724158068 101.703128348762  C 275.357251678707 109.167818373052  280.334106205354 92.6131359894018  289.166482977249 98.1558956285426  C 297.998859749145 103.698655267683  301.559053767908 147.684579422071  315.38624179643 146.634742804882  C 331.038129095354 145.44636492352  331.607753705815 90.7363233592228  341.60600061561 87.5141974678827  C 351.604247525405 84.2920715765422  354.388345413614 111.635073493696  367.825759434791 108.797593789202  C 384.009015376111 105.380294879325  384.63511972634 75.4172038310424  394.045518253972 70.9604447735227  C 403.455916781604 66.5036857160033  406.442896173732 79.9179371801292  421.014413039415 76.8724993072228  C 435.382080546335 73.8696658222648  437.495404297185 65.8366641776496  445.735899926071 60.3187466128629  C 454.725531521218 55.1949660169897  457.202848392309 47.5084573945271  472.704794711514 44.9474048252434  C 487.428070858831 42.514995150424  490.684057901809 48.8887745143765  499.673689496956 50.8594593589431  C 508.163897114596 53.2242811724231  511.679252715085 61.5209430909858  525.144312349875 57.953924799383  C 541.198946501227 53.7009043719876  541.837588729016 30.9028114136456  552.113207135318 34.3057066645833  C 562.388825541619 37.7086019155214  567.616875712657 91.9147171690829  577.583829988236 93.4262520015826  C 587.550784263815 94.9377868340822  588.592903782802 77.9980352957802  604.552724773679 63.8659793330831  C 618.089197456553 51.87974279564  617.357944628862 59.7732102595324  630.023347626597 46.1298157319832  C 645.487011562896 29.4720853808777  654.052230965422 8.33657676358709  654.152683327637 8.29266671630385  C 654.253135689852 8.24875666902047  655 211.223799576356  655 211.667342675581  C 655 212.110885774806  0 212.110885774806  0 211.667342675581  Z " fill-rule="nonzero" fill="#33ccb0" stroke="none" transform="matrix(1 0 0 1 60 38 )" />
  </g>
</svg>