<?xml version="1.0" encoding="utf-8"?>
<svg version="1.1" xmlns:xlink="http://www.w3.org/1999/xlink" width="655px" height="173px" xmlns="http://www.w3.org/2000/svg">
  <g transform="matrix(1 0 0 1 -60 -39 )">
    <path d="M 0.813311688311728 171.941558441558  L 6.98214285714295 162.038961038961  L 15.586038961039 151.487012987013  L 25.0016233766234 138.337662337662  L 28.4107142857143 134.279220779221  L 33.6055194805195 123.88961038961  L 38.6379870129871 112.850649350649  L 48.5405844155845 98.5649350649351  L 59.5795454545454 87.2012987012988  L 70.1314935064935 80.5454545454546  L 78.7353896103896 77.6233766233767  L 85.8782467532469 71.7792207792209  L 93.1834415584415 63.5  L 104.38474025974 55.5454545454546  L 116.560064935065 48.7272727272727  L 125.975649350649 48  L 135.391233766234 42.8831168831169  L 144.644480519481 37.525974025974  L 152.112012987013 32.1688311688312  L 160.715909090909 24.2142857142857  L 168.508116883117 15.448051948052  L 172.891233766234 6.84415584415584  L 179.547077922078 0.5  L 189.774350649351 0.5  L 196.592532467532 2.6233766233766  L 201.787337662338 11.0649350649351  L 210.391233766234 24.2142857142857  L 227.112012987013 42.8831168831169  L 232.956168831169 52.2987012987013  L 242.047077922078 65.935064935065  L 248.053571428571 83.4675324675325  L 259.741883116883 98.5649350649351  L 268.345779220779 102.461038961039  L 274.51461038961 102.461038961039  L 279.38474025974 98.5649350649351  L 284.904220779221 96.1298701298702  L 289.936688311688 96.1298701298702  L 293.832792207792 102.461038961039  L 297.079545454546 108.792207792208  L 298 115.448051948052  L 305.845779220779 134.279220779221  L 311.36525974026 144.344155844156  L 316.397727272727 144.344155844156  L 320.618506493506 144.344155844156  L 324.676948051948 136.714285714286  L 327.923701298701 126.162337662338  L 331.657467532468 108.792207792208  L 334.904220779221 98.5649350649351  L 337.01461038961 92.8831168831169  L 340.099025974026 87.2012987012988  L 347.404220779221 87.2012987012988  L 354.060064935065 98.5649350649351  L 362.176948051948 107.331168831169  L 368.670454545455 107.331168831169  L 375.326298701299 104.896103896104  L 377.923701298701 100.350649350649  L 382.956168831169 91.4220779220779  L 384.579545454546 87.2012987012988  L 387.988636363636 80.5454545454546  L 392.047077922078 71.7792207792209  L 394.482142857143 69.0194805194806  L 398.702922077922 65.935064935065  L 402.761363636364 69.0194805194806  L 410.391233766234 71.7792207792209  L 419.482142857143 74.3766233766233  L 432.956168831169 69.0194805194806  L 441.073051948052 61.0649350649351  L 451.949675324675 52.2987012987013  L 464.774350649351 48  L 480.683441558441 42.8831168831169  L 490.586038961039 44.6688311688312  L 498.378246753247 48.7272727272727  L 511.040584415585 52.2987012987013  L 514.774350649351 55.5454545454546  L 523.378246753247 55.5454545454546  L 531.170454545455 52.2987012987013  L 535.066558441558 46.2922077922078  L 539.125 42.8831168831169  L 548.702922077922 34.9285714285714  L 554.38474025974 32.1688311688312  L 559.579545454546 37.525974025974  L 561.36525974026 48.7272727272727  L 567.209415584416 61.0649350649351  L 569.969155844156 71.7792207792209  L 572.728896103896 85.7402597402597  L 577.923701298701 91.4220779220779  L 584.417207792208 89.474025974026  L 597.079545454546 77.6233766233767  L 597.079545454546 71.7792207792209  L 606.819805194805 61.0649350649351  L 614.449675324675 55.5454545454546  L 623.86525974026 52.2987012987013  L 631.170454545455 44.6688311688312  L 637.501623376623 37.525974025974  L 640.910714285714 32.1688311688312  L 644.969155844156 25.6753246753247  L 649.189935064935 19.5064935064935  L 653.410714285714 11.0649350649351  " stroke-width="1" stroke="#33ccb0" fill="none" transform="matrix(1 0 0 1 60 39 )" />
  </g>
</svg>