<?xml version="1.0" encoding="utf-8"?>
<svg version="1.1" xmlns:xlink="http://www.w3.org/1999/xlink" width="10px" height="10px" xmlns="http://www.w3.org/2000/svg">
  <g transform="matrix(1 0 0 1 -1461 -289 )">
    <path d="M 9.30207319335937 4.83662077148438  L 7.49693708007813 3.03147465820313  C 7.4084570703125 2.9429946484375  7.26498434570312 2.9429946484375  7.17645436523437 3.03147465820313  L 6.8115717578125 3.39634727539063  C 6.72309174804688 3.48482728515625  6.72309174804688 3.62834998046875  6.8115717578125 3.71682999023438  L 7.60784188476562 4.5131001171875  L 3.97836266601563 4.5131001171875  C 3.8532375 4.5131001171875  3.75180626953125 4.61453134765625  3.75180626953125 4.73965651367187  L 3.75180626953125 5.25572662109375  C 3.75180626953125 5.38088176757813  3.8532375 5.48233297851563  3.97836266601563 5.48233297851563  L 7.60609306640625 5.48233297851563  L 6.80982293945313 6.27860310546875  C 6.7213429296875 6.36708311523437  6.7213429296875 6.51060581054687  6.80982293945313 6.5990858203125  L 7.17474551757813 6.96396842773438  C 7.26322552734375 7.05243844726563  7.40672823242187 7.05243844726563  7.4952082421875 6.96396842773438  L 8.93714061523437 5.5220360546875  L 9.3021131640625 5.15706350585937  C 9.390553203125 5.068563515625  9.390553203125 4.92510078125  9.30207319335937 4.83662077148438  Z M 6.19222166992187 0.63237125  L 1.31133091796875 0.63237125  C 0.935925439453124 0.63237125  0.631561796874999 0.936734892578125  0.631561796874999 1.31214037109375  L 0.631561796874999 8.683292734375  C 0.631561796874999 9.05874817382813  0.935925439453124 9.36306185546875  1.31133091796875 9.36306185546875  L 6.19222166992187 9.36306185546875  C 6.5676271484375 9.36306185546875  6.87199079101562 9.05874818359375  6.87199079101562 8.683292734375  L 6.87199079101562 7.72687119140625  C 6.87199079101562 7.601756015625  6.77055956054687 7.50026483398438  6.64538443359375 7.50026483398438  L 6.154247421875 7.50026483398438  C 6.02912225585937 7.50026483398438  5.92763106445313 7.60175602539063  5.92763106445313 7.72687119140625  L 5.92763106445313 8.09071450195313  C 5.92763106445313 8.42595720703125  5.92763106445313 8.42595720703125  5.58787142578125 8.42595720703125  L 1.90624756835937 8.42595719726562  C 1.56638798828125 8.42595719726562  1.56638798828125 8.42601715820313  1.56638798828125 8.08604765625  L 1.56638798828125 1.90149079101563  C 1.56638798828125 1.560661875  1.56565848632813 1.56162122070312  1.90624756835937 1.56162122070312  L 5.58786143554688 1.56162122070312  C 5.92769103515625 1.56162122070312  5.92762107421875 1.56440932617188  5.92762107421875 1.89687391601562  L 5.92762107421875 2.27141997070313  C 5.92762107421875 2.3965751171875  6.029112265625 2.498026328125  6.15423743164062 2.498026328125  L 6.64537444335937 2.498026328125  C 6.7705495703125 2.498026328125  6.87198080078125 2.39657510742187  6.87198080078125 2.27141997070313  L 6.87198080078125 1.31214037109375  C 6.87199079101562 0.936734892578125  6.5676271484375 0.63237125  6.19222166992187 0.63237125  Z " fill-rule="nonzero" fill="#f59a23" stroke="none" transform="matrix(1 0 0 1 1461 289 )" />
  </g>
</svg>