<?xml version="1.0" encoding="utf-8"?>
<svg version="1.1" xmlns:xlink="http://www.w3.org/1999/xlink" width="7px" height="10px" xmlns="http://www.w3.org/2000/svg">
  <g transform="matrix(1 0 0 1 -147 -236 )">
    <path d="M 3.3828125 9.51869421226563  C 2.30301338757813 9.51869421226563  1.22321427515625 8.84381978085938  0.81828963109375 7.76402063148437  C 0.683314737421875 7.49407084414062  0.81828963109375 7.08914620007813  1.08823938148438 6.95417130640625  C 1.35818916882813 6.81919641273437  1.76311381289062 6.95417130640625  1.89808874351563 7.22412109375  C 2.16803853085938 7.89899552515625  2.70793806859375 8.30392020617187  3.3828125 8.30392020617187  C 4.32763671875 8.30392020617187  5.00251115015625 7.62904577476563  5.00251115015625 6.68422155601563  C 5.00251115015625 5.73939733726563  4.32763671875 5.06452290585938  3.3828125 5.06452286890625  C 3.11286271265625 5.06452286890625  2.84291296226563 4.7945730815625  2.84291296226563 4.52462333117187  L 2.84291296226563 1.15025110023437  C 2.84291296226563 0.880301312890623  3.11286274960938 0.6103515625  3.3828125 0.6103515625  C 3.65276225039063 0.6103515625  3.92271203773437 0.880301349843752  3.92271203773437 1.15025110023437  L 3.92271203773437 3.84974889976563  C 5.2724609375 4.11969868710938  6.21728515625 5.19949779953125  6.21728515625 6.68422155601563  C 6.21728515625 8.30392020617187  5.00251115015625 9.51869421226563  3.3828125 9.51869421226563  Z " fill-rule="nonzero" fill="#33ccb0" stroke="none" transform="matrix(1 0 0 1 147 236 )" />
  </g>
</svg>