<?xml version="1.0" encoding="utf-8"?>
<svg version="1.1" xmlns:xlink="http://www.w3.org/1999/xlink" width="7px" height="10px" xmlns="http://www.w3.org/2000/svg">
  <g transform="matrix(1 0 0 1 -147 -236 )">
    <path d="M 5.67738561851563 8.97879463757813  C 5.00251118710938 9.5186941753125  4.19266186203125 9.78864396265625  3.3828125 9.78864396265625  C 2.03306360023437 9.78864396265625  0.953264524765626 8.97879463757813  0.413364950078125 7.89899552515625  C 0.27839005640625 7.6290457378125  0.27839005640625 7.35909598742187  0.413364950078125 7.22412109375  C 0.54833984375 6.95417130640625  0.683314737421875 6.81919641273437  0.953264524765625 6.68422155601563  C 1.22321431210938 6.54924666234375  1.4931640625 6.54924666234375  1.62813895617187 6.68422155601563  C 1.89808874351562 6.8191964496875  2.0330636371875 6.95417134335938  2.16803849390625 7.22412109375  C 2.43798828125 7.76402063148437  2.8429129253125 8.03397041882813  3.3828125 8.03397041882813  C 4.05768693140625 8.03397041882813  4.73256139976563 7.49407088109375  4.73256139976563 6.68422155601563  C 4.73256139976563 5.8743722309375  4.19266186203125 5.33447265625  3.3828125 5.33447265625  C 2.84291296226563 5.33447265625  2.43798828125 4.92954797523437  2.43798828125 4.3896484375  L 2.43798828125 1.15025110023437  C 2.43798828125 0.6103515625  2.84291296226563 0.205426881484374  3.3828125 0.205426881484374  C 3.92271203773437 0.205426881484374  4.32763671875 0.6103515625  4.32763671875 1.15025110023437  L 4.32763671875 3.57979911242187  C 5.67738561851563 3.9847237934375  6.62220983726563 5.19949776257813  6.62220983726563 6.68422155601563  C 6.62220983726563 7.49407088109375  6.35226004992188 8.30392020617187  5.67738561851563 8.97879463757813  Z M 0.953264524765625 7.49407088067383  C 1.0882394184375 7.49407088067383  1.0882394184375 7.49407088067383  1.08823938148437 7.62904577476563  C 1.4931640625 8.57386999351563  2.43798828125 9.11376953125  3.3828125 9.11376953125  C 4.05768693140625 9.11376953125  4.73256139976563 8.84381974390625  5.13748604382812 8.30392020617187  C 5.54241072484375 7.7640206684375  5.81236047523437 7.22412109375  5.81236047523437 6.54924666234375  C 5.81236047523437 5.33447265625  5.00251115015625 4.3896484375  3.78773718101563 4.11969865057617  L 3.51778739367187 4.11969865057617  L 3.51778739367187 1.15025110023437  C 3.51778739367187 1.0152762065625  3.3828125 0.880301312890623  3.24783760632813 0.880301349423828  C 3.11286271265625 0.880301385957033  3.11286271265625 1.0152762430957  3.11286271265625 1.15025110023437  L 3.11286271265625 4.3896484375  C 3.11286271265625 4.52462333117187  3.24783760632813 4.65959822484375  3.3828125 4.65959822442383  C 4.46261161242187 4.65959822442383  5.40743583117188 5.60442244317383  5.40743583117188 6.68422155601563  C 5.40743583117188 7.76402066885742  4.46261161242187 8.7088448871875  3.3828125 8.70884485023437  C 2.57296317492187 8.70884485023437  1.89808874351563 8.1689453125  1.4931640625 7.49407088067383  C 1.4931640625 7.35909598700195  1.4931640625 7.35909598700195  1.35818916882813 7.35909598742187  L 1.08823938148437 7.35909598742187  C 0.9532644878125 7.35909598742187  0.9532644878125 7.35909598742187  0.953264524765625 7.49407088067383  Z " fill-rule="nonzero" fill="#33ccb0" stroke="none" transform="matrix(1 0 0 1 147 236 )" />
  </g>
</svg>