<?xml version="1.0" encoding="utf-8"?>
<svg version="1.1" xmlns:xlink="http://www.w3.org/1999/xlink" width="80px" height="30px" xmlns="http://www.w3.org/2000/svg">
  <g transform="matrix(1 0 0 1 -874 -653 )">
    <path d="M 875 658  A 4 4 0 0 1 879 654 L 949 654  A 4 4 0 0 1 953 658 L 953 678  A 4 4 0 0 1 949 682 L 879 682  A 4 4 0 0 1 875 678 L 875 658  Z " fill-rule="nonzero" fill="#f0f7ff" stroke="none" />
    <path d="M 874.5 658  A 4.5 4.5 0 0 1 879 653.5 L 949 653.5  A 4.5 4.5 0 0 1 953.5 658 L 953.5 678  A 4.5 4.5 0 0 1 949 682.5 L 879 682.5  A 4.5 4.5 0 0 1 874.5 678 L 874.5 658  Z " stroke-width="1" stroke="#7abbff" fill="none" stroke-opacity="0.996078431372549" />
  </g>
</svg>