<?xml version="1.0" encoding="utf-8"?>
<svg version="1.1" xmlns:xlink="http://www.w3.org/1999/xlink" width="15px" height="14px" xmlns="http://www.w3.org/2000/svg">
  <g transform="matrix(1 0 0 1 -45 -38 )">
    <path d="M 14.941843220339 0.536126548611112  C 14.9802252912012 0.41223551192299  14.9472416483657 0.276860195464701  14.8564618697034 0.185694444444444  C 14.7656327482132 0.0945321624689069  14.6323383126509 0.0630230478961318  14.5114406726695 0.10413580787037  L 0.274152537076271 4.94364196990741  C 0.135733697458446 4.99069510158629  0.0423696870320049 5.12279135632654  0.0423696870320049 5.27158039354648  C 0.0423696870320049 5.3930232970727  0.10486296875375 5.50555865046454  0.206991530720339 5.56802469675926  L 3.43220338983051 7.54141974768518  L 3.43220338983051 12.1851851851852  C 3.43220338540906 12.3761542607951  3.58397126445098 12.5309200238675  3.77118643095991 12.5309200238675  C 3.86110374092499 12.5309200238675  3.94733713974614 12.4944895355263  4.01091101694915 12.4296450671296  L 6.48305084745763 9.90867284490741  L 10.3111228760593 13.8123611111111  C 10.3746913607928 13.8771642175029  10.4608963384001 13.9135684543845  10.5507811550928 13.9135684543845  C 10.6986935859472 13.9135684543845  10.8295291710362 13.8157694536256  10.8740466101695 13.6719290069444  L 14.941843220339 0.536126548611112  Z " fill-rule="nonzero" fill="#2b85e4" stroke="none" transform="matrix(1 0 0 1 45 38 )" />
  </g>
</svg>