<?xml version="1.0" encoding="utf-8"?>
<svg version="1.1" xmlns:xlink="http://www.w3.org/1999/xlink" width="11px" height="12px" xmlns="http://www.w3.org/2000/svg">
  <g transform="matrix(1 0 0 1 -226 -256 )">
    <path d="M 7.3297265625 11.2595703125  C 7.31450897490919 11.2610957801608  7.29921880712961 11.261780414539  7.28392578125 11.26162109375  C 7.14191877829915 11.2615815668907  7.01003598536414 11.1880892340434  6.93529296875 11.06734375  L 4.65044921875 7.3759375  C 4.55142945024807 7.21594021207889  4.57397453879771 7.00908902463591  4.70513671875 6.8741796875  L 10.25865234375 1.16125  C 10.3358806221235 1.08178588236246  10.4419754809594 1.03695056861845  10.5527850156234 1.03695056861845  C 10.7793080575462 1.03695056861845  10.9629412656234 1.22058377669567  10.9629412656234 1.44710681861845  C 10.9629412656234 1.49295930053239  10.9552526799648 1.53848722500489  10.9401953125 1.581796875  L 7.6715234375 10.9861328125  C 7.61981264396915 11.1355354850847  7.48683641726016 11.2419164664519  7.3297265625 11.2595703125  Z M 9.55837890625 3.05849609375  L 5.51642578125 7.216796875  L 7.17947265625 9.90318359375  L 9.55837890625 3.05849609375  Z M 5.12841796875 7.29431640625  C 5.0515965855647 7.37022216520477  4.94793773251917 7.41276650963009  4.83994140625 7.41271484375  C 4.7642530601535 7.41276829561509  4.69003697192429 7.39180035742278  4.62556640625 7.3521484375  L 0.9427734375 5.092734375  C 0.82120397643082 5.01814689695478  0.747110564616385 4.88576042060052  0.747110564616385 4.74313354464162  C 0.747110564616385 4.56984154547539  0.856020561403519 4.41524795283511  1.01919921875 4.3569140625  L 10.36857421875 1.0155078125  C 10.4127971298586 0.999736366892383  10.4593996521261 0.991674976823509  10.5063507369216 0.991674976823509  C 10.7328737788444 0.991674976823509  10.9165069869216 1.17530818490072  10.9165069869216 1.40183122682351  C 10.9165069869216 1.51135053020142  10.8727066877648 1.61632119047731  10.79486328125 1.693359375  L 5.12841796875 7.29431640625  Z M 8.9030859375 2.4105859375  L 2.10146484375 4.841171875  L 4.78115234375 6.4848046875  L 8.9030859375 2.4105859375  Z " fill-rule="nonzero" fill="#ffffff" stroke="none" transform="matrix(1 0 0 1 226 256 )" />
  </g>
</svg>