<?xml version="1.0" encoding="utf-8"?>
<svg version="1.1" xmlns:xlink="http://www.w3.org/1999/xlink" width="330px" height="50px" viewBox="882 99  330 50" xmlns="http://www.w3.org/2000/svg">
  <defs>
    <filter x="882px" y="99px" width="330px" height="50px" filterUnits="userSpaceOnUse" id="filter5">
      <feOffset dx="0" dy="0" in="SourceAlpha" result="shadowOffsetInner" />
      <feGaussianBlur stdDeviation="2.5" in="shadowOffsetInner" result="shadowGaussian" />
      <feComposite in2="shadowGaussian" operator="atop" in="SourceAlpha" result="shadowComposite" />
      <feColorMatrix type="matrix" values="0 0 0 0 0.250980392156863  0 0 0 0 0.619607843137255  0 0 0 0 1  0 0 0 0.247058823529412 0  " in="shadowComposite" />
    </filter>
    <g id="widget6">
      <path d="M 887.5 106  A 1.5 1.5 0 0 1 889 104.5 L 1205 104.5  A 1.5 1.5 0 0 1 1206.5 106 L 1206.5 142  A 1.5 1.5 0 0 1 1205 143.5 L 889 143.5  A 1.5 1.5 0 0 1 887.5 142 L 887.5 106  Z " fill-rule="nonzero" fill="#ffffff" stroke="none" />
      <path d="M 887.5 106  A 1.5 1.5 0 0 1 889 104.5 L 1205 104.5  A 1.5 1.5 0 0 1 1206.5 106 L 1206.5 142  A 1.5 1.5 0 0 1 1205 143.5 L 889 143.5  A 1.5 1.5 0 0 1 887.5 142 L 887.5 106  Z " stroke-width="1" stroke="#409eff" fill="none" />
    </g>
  </defs>
  <use xlink:href="#widget6" filter="url(#filter5)" />
  <use xlink:href="#widget6" />
</svg>