<?xml version="1.0" encoding="utf-8"?>
<svg version="1.1" xmlns:xlink="http://www.w3.org/1999/xlink" width="320px" height="40px" viewBox="887 104  320 40" xmlns="http://www.w3.org/2000/svg">
  <path d="M 887.5 106  A 1.5 1.5 0 0 1 889 104.5 L 1205 104.5  A 1.5 1.5 0 0 1 1206.5 106 L 1206.5 142  A 1.5 1.5 0 0 1 1205 143.5 L 889 143.5  A 1.5 1.5 0 0 1 887.5 142 L 887.5 106  Z " fill-rule="nonzero" fill="#ffffff" stroke="none" />
  <path d="M 887.5 106  A 1.5 1.5 0 0 1 889 104.5 L 1205 104.5  A 1.5 1.5 0 0 1 1206.5 106 L 1206.5 142  A 1.5 1.5 0 0 1 1205 143.5 L 889 143.5  A 1.5 1.5 0 0 1 887.5 142 L 887.5 106  Z " stroke-width="1" stroke="#409eff" fill="none" />
</svg>