<?xml version="1.0" encoding="utf-8"?>
<svg version="1.1" xmlns:xlink="http://www.w3.org/1999/xlink" width="17px" height="31px" xmlns="http://www.w3.org/2000/svg">
  <g transform="matrix(1 0 0 1 -153 -228 )">
    <path d="M 16.1635936862385 29.5971927623853  C 15.930776870754 29.9841222401157  15.506666504583 30.2146170156654  15.0553466678899 30.1995009541284  L 9.20091113944954 30.1995009541284  C 8.75738363411903 30.1995009541284  8.39783355045872 29.8399508704681  8.39783355045872 29.3964233651376  C 8.39783355045872 28.9528958598071  8.75738363411903 28.5933457761468  9.20091113944954 28.5933457761468  L 14.4771308174312 28.5933457761468  L 8.48617210275229 17.1735826688073  C 8.43118771462986 17.06269408225  8.40257858935217 16.9405968735631  8.40257858935217 16.8168246571093  C 8.40257858935217 16.3732971517788  8.76212867301248 16.0137470681185  9.205656178343 16.0137470681185  C 9.49726857175582 16.0137470681185  9.76596535416687 16.171824634304  9.90761941192661 16.4267205266055  L 16.1635936862385 28.3684840862385  C 16.3766636560493 28.750342349602  16.3766636560493 29.2153344990218  16.1635936862385 29.5971927623853  Z M 2.47112104678899 8.68505273211009  C 2.47112101993478 9.12858021845181  2.11157094413988 9.48813027247706  1.66804345779817 9.48813027247706  C 1.22451599044524 9.48813024562285  0.864965944285403 9.12858019946301  0.864965917431194 8.68505273211009  L 0.864965917431194 1.56175460917431  C 0.865075034056471 1.11830428583557  1.22459314534659 0.758874627692332  1.66804348211009 0.758874627692332  C 2.1114938188736 0.758874627692332  2.47101193016372 1.11830428583557  2.47112104678899 1.56175460917431  L 2.47112104678899 8.68505273211009  Z " fill-rule="nonzero" fill="#33ccb0" stroke="none" fill-opacity="0.988235294117647" transform="matrix(1 0 0 1 153 228 )" />
  </g>
</svg>