<?xml version="1.0" encoding="utf-8"?>
<svg version="1.1" xmlns:xlink="http://www.w3.org/1999/xlink" width="7px" height="5px" xmlns="http://www.w3.org/2000/svg">
  <g transform="matrix(1 0 0 1 -173 -241 )">
    <path d="M 4.44332351009175 3.71582847614679  C 4.14684955836778 4.00575449794372  3.74973226541302 4.16978119491901  3.33507644311927 4.17358266880734  C 2.92042062082553 4.16978119491901  2.52330332787076 4.00575449794372  2.2268293761468 3.71582847614679  L 0.275350899082575 1.75631918623853  C -0.0360212357084038 1.44308884690653  -0.0360212357084038 0.937210117313647  0.275350899082575 0.623979777981653  C 0.588581232740445 0.31260767541427  1.09445992505773 0.31260767541427  1.4076902587156 0.623979777981653  L 3.36719954862386 2.57545830366973  L 5.26246262752294 0.623979777981653  C 5.57569296118081 0.31260767541427  6.08157165349811 0.31260767541427  6.39480198715597 0.623979777981653  C 6.70617412194694 0.937210117313647  6.70617412194695 1.44308884690653  6.39480198715597 1.75631918623853  L 4.44332351009175 3.71582847614679  Z " fill-rule="nonzero" fill="#33ccb0" stroke="none" fill-opacity="0.988235294117647" transform="matrix(1 0 0 1 173 241 )" />
  </g>
</svg>