<?xml version="1.0" encoding="utf-8"?>
<svg version="1.1" xmlns:xlink="http://www.w3.org/1999/xlink" width="11px" height="51px" xmlns="http://www.w3.org/2000/svg">
  <g transform="matrix(1 0 0 1 -160 -213 )">
    <path d="M 10 2.62835870275229  L 10 50.3954128440367  L 1 50.3954128440367  L 1 2.64442027981651  C 0.996252178750471 2.63906113032101  0.996230889892118 2.63370183283628  0.996230889892118 2.62834251421035  C 0.996230889892118 1.51065321366747  1.90229709026667 0.604587013292917  3.01998639080955 0.604587013292917  C 3.02268460900055 0.604587013292917  3.02538282449366 0.604592409484356  3.02808102110092 0.604603201834861  L 7.97503887981651 0.604603201834861  C 7.9777157880711 0.604592579114649  7.98039271476796 0.604587267738861  7.98306964409943 0.604587267738861  C 9.1007589446423 0.604587267738861  10.0068251450169 1.51065346811342  10.0068251450169 2.62834276865629  C 10.0068251450169 2.6283480799235  10.006825144996 2.62835339148508  10 2.62835870275229  Z M 3.40552747431193 3.01383592018349  L 3.40552747431193 47.9861801256881  L 7.59759242660551 47.9861801256881  L 7.59759242660551 3.01383592018349  L 3.40552747431193 3.01383592018349  Z " fill-rule="nonzero" fill="#33ccb0" stroke="none" fill-opacity="0.988235294117647" transform="matrix(1 0 0 1 160 213 )" />
  </g>
</svg>