<?xml version="1.0" encoding="utf-8"?>
<svg version="1.1" xmlns:xlink="http://www.w3.org/1999/xlink" width="27px" height="17px" xmlns="http://www.w3.org/2000/svg">
  <g transform="matrix(1 0 0 1 -151 -228 )">
    <path d="M 6.16561472844036 4.30827991100917  L 6.16561472844036 4.31631072385321  C 5.95215430877479 4.31754485937039  5.74698550504684 4.23374351601693  5.59542964220184 4.08341822110092  L 3.63592040091743 2.12390893119266  L 1.74065732201835 4.07538745688073  C 1.59013287704504 4.22485187208816  1.38661309949884 4.30873156515957  1.17448761788991 4.30873156515957  C 0.730710697714143 4.30873156515957  0.370958423372542 3.94897929081797  0.370958423372542 3.5052023706422  C 0.370958423372542 3.29110912157455  0.456397139114259 3.08586819599168  0.608317913761468 2.93501728440367  L 2.55979643944954 0.983538758715596  C 3.18025142679187 0.392065418917554  4.15583553742831 0.392065418917554  4.77629052477064 0.983538758715596  L 6.72776905045871 2.93501728440367  C 6.87980611605779 3.08580897819324  6.96532512195322 3.29107530111272  6.96532512195322 3.50520938114649  C 6.96532512195322 3.94742248121061  6.60782394140941 4.30642577142011  6.16561472844036 4.30827991100917  Z M 26.1381540321101 16.1215510486239  C 26.1381540321101 16.5650785539544  25.7786039484498 16.9246286376147  25.3350764431193 16.9246286376147  C 24.8915489377887 16.9246286376147  24.5319988541284 16.5650785539544  24.5319988541284 16.1215510486239  L 24.5319988541284 9.02234531559633  C 24.5319988541284 8.57881781026581  24.8915489377887 8.2192677266055  25.3350764431193 8.2192677266055  C 25.7786039484498 8.2192677266055  26.1381540321101 8.57881781026581  26.1381540321101 9.02234531559633  L 26.1381540321101 16.1215510486239  Z " fill-rule="nonzero" fill="#33ccb0" stroke="none" fill-opacity="0.988235294117647" transform="matrix(1 0 0 1 151 228 )" />
  </g>
</svg>