<?xml version="1.0" encoding="utf-8"?>
<svg version="1.1" xmlns:xlink="http://www.w3.org/1999/xlink" width="39px" height="30px" xmlns="http://www.w3.org/2000/svg">
  <g transform="matrix(1 0 0 1 -146 -222 )">
    <path d="M 17 0  L 17 22  L 2.73330018990826 22  C 1.40271770077093 21.9529047568807  0.324067471559633 20.8742545276694  1 19.5436720385321  L 1 2.4702428  C 0.324067471559633 1.13966031086267  1.40271770077093 0.061010081651375  2.73330018990826 0  L 17 0  Z M 16 2  L 2.73330018990826 2  C 2.28977270356654 1.66716523786338  1.93022264954128 2.02671531365828  2 2.4702428  L 2 19.5436720385321  C 1.93022264954129 19.9871995248738  2.28977270356654 20.3467496006687  2.73330018990826 20  L 16 20  L 16 2  Z M 38 27.2291244348624  C 38.6790524293578 28.5597069239997  37.6004022001465 29.638357153211  36.2698197110092 29.638357153211  L 22 29.638357153211  L 22 8  L 36.2698197110092 8  C 37.6004022001465 7.74646247798166  38.6790524293578 8.82511270719295  38 10.1556951963303  L 38 27.2291244348624  Z M 23 9.35261760733945  L 23 28  L 36.2698197110092 28  C 36.7133472163397 28.0322020238532  37.0728973 27.6726519401929  37 27.2291244348624  L 37 10.1556951963303  C 37.0728973 9.71216769099976  36.7133472163397 9.35261760733945  36.2698197110092 9.35261760733945  L 23 9.35261760733945  Z " fill-rule="nonzero" fill="#33ccb0" stroke="none" fill-opacity="0.988235294117647" transform="matrix(1 0 0 1 146 222 )" />
  </g>
</svg>