<?xml version="1.0" encoding="utf-8"?>
<svg version="1.1" xmlns:xlink="http://www.w3.org/1999/xlink" width="9px" height="15px" xmlns="http://www.w3.org/2000/svg">
  <g transform="matrix(1 0 0 1 -161 -231 )">
    <path d="M 7.80220881009175 14.5992138045872  L 1.5301729587156 14.5992138045872  C 1.5280272723205 14.5992275640266  1.52588154732406 14.5992344437993  1.52373581681249 14.5992344437993  C 0.969326435149352 14.5992344437993  0.519888830573962 14.1497968392239  0.519888830573962 13.5953874575608  C 0.519888830573962 13.4300634980935  0.560720510763812 13.2672985920531  0.638756817431194 13.1215510486239  L 7.06337743211009 0.810371848623848  C 7.20503148986985 0.555475956322471  7.47372827228087 0.397398390137013  7.76534066569363 0.397398390137013  C 8.20886817102414 0.397398390137013  8.56841825468445 0.756948473797326  8.56841825468445 1.20047597912784  C 8.56841825468445 1.32424819558156  8.53980912940679 1.44634540426841  8.4848247412844 1.55723399082569  L 2.52598913211009 12.9930586266055  L 7.80220881009173 12.9930586266055  C 8.24573631542226 12.9930586266055  8.60528639908257 13.3526087102658  8.60528639908257 13.7961362155963  C 8.60528639908257 14.2396637209268  8.24573631542226 14.5992138045872  7.80220881009173 14.5992138045872  Z " fill-rule="nonzero" fill="#33ccb0" stroke="none" fill-opacity="0.988235294117647" transform="matrix(1 0 0 1 161 231 )" />
  </g>
</svg>