<?xml version="1.0" encoding="utf-8"?>
<svg version="1.1" xmlns:xlink="http://www.w3.org/1999/xlink" width="9px" height="16px" xmlns="http://www.w3.org/2000/svg">
  <g transform="matrix(1 0 0 1 -161 -218 )">
    <path d="M 8.1073782880734 14.3644953577982  C 7.85820404525837 14.783649061306  7.39783250965847 15.030828403127  6.91079266880734 15.0069574192661  L 1.20091113944954 15.0069574192661  C 0.757460816110807 15.0068483026408  0.398031157967562 14.6473301913507  0.398031157967562 14.2038798545872  C 0.398031157967562 13.7604295178236  0.757460816110807 13.4009114065335  1.20091113944954 13.4008022899083  L 6.4771308174312 13.4008022899083  L 0.855587791743122 2.67971664220184  C 0.647551474212907 2.28133859377692  0.662778230788714 1.80321833404004  0.895741661467891 1.41888486055046  C 1.12523417029085 1.0345316611636  1.54027410056147 0.799545820463615  1.98792715137615 0.800515140366972  L 7.80220881009174 0.800515140366972  C 8.24565913343218 0.800624256989846  8.60508879157807 1.16014236828067  8.60508879157807 1.60359270504587  C 8.60508879157807 2.04704304181108  8.24565913343218 2.4065611531019  7.80220881009175 2.40667026972477  L 2.52598913211009 2.40667026972477  L 8.14753215779817 13.063509706422  C 8.37276912521284 13.4719559931011  8.35737527690243 13.9707167827481  8.1073782880734 14.3644953577982  Z " fill-rule="nonzero" fill="#33ccb0" stroke="none" fill-opacity="0.988235294117647" transform="matrix(1 0 0 1 161 218 )" />
  </g>
</svg>