<?xml version="1.0" encoding="utf-8"?>
<svg version="1.1" xmlns:xlink="http://www.w3.org/1999/xlink" width="340px" height="40px" viewBox="1040 217  340 40" xmlns="http://www.w3.org/2000/svg">
  <path d="M 1041 219  A 1 1 0 0 1 1042 218 L 1378 218  A 1 1 0 0 1 1379 219 L 1379 255  A 1 1 0 0 1 1378 256 L 1042 256  A 1 1 0 0 1 1041 255 L 1041 219  Z " fill-rule="nonzero" fill="#f0f0f0" stroke="none" />
  <path d="M 1040.5 219  A 1.5 1.5 0 0 1 1042 217.5 L 1378 217.5  A 1.5 1.5 0 0 1 1379.5 219 L 1379.5 255  A 1.5 1.5 0 0 1 1378 256.5 L 1042 256.5  A 1.5 1.5 0 0 1 1040.5 255 L 1040.5 219  Z " stroke-width="1" stroke="#d7d7d7" fill="none" stroke-opacity="0.996078431372549" />
</svg>