<?xml version="1.0" encoding="utf-8"?>
<svg version="1.1" xmlns:xlink="http://www.w3.org/1999/xlink" width="211px" height="42px" xmlns="http://www.w3.org/2000/svg">
  <g transform="matrix(1 0 0 1 -478 -177 )">
    <path d="M 479 204.9  C 479 204.9  479 182  479 182  C 479 179.790861000677  480.790861000677 178  483 178  C 483 178  684 178  684 178  C 686.209138999323 178  688 179.790861000677  688 182  C 688 182  688 204.9  688 204.9  C 688 207.109138999323  686.209138999323 208.9  684 208.9  C 684 208.9  596.75468342154 208.9  596.75468342154 208.9  C 596.75468342154 208.9  586.8518812014 217.64777517529  586.8518812014 217.64777517529  C 586.8518812014 217.64777517529  577.528803915408 208.9  577.528803915408 208.9  C 577.528803915408 208.9  483 208.9  483 208.9  C 480.790861000677 208.9  479 207.109138999323  479 204.9  Z " fill-rule="nonzero" fill="#333333" stroke="none" fill-opacity="0.8" />
  </g>
</svg>