<?xml version="1.0" encoding="utf-8"?>
<svg version="1.1" xmlns:xlink="http://www.w3.org/1999/xlink" width="26px" height="22px" xmlns="http://www.w3.org/2000/svg">
  <g transform="matrix(1 0 0 1 -496 -269 )">
    <path d="M 24.1549479166665 7.9778645833334  L 21.7174479166665 5.9153645833334  L 15.7083333333335 11  L 21.7174479166665 16.0846354166666  L 24.1549479166665 14.0221354166666  C 24.4822048611113 13.7261284722221  24.8771701388887 13.6592881944445  25.33984375 13.8216145833334  C 25.7799479166665 13.9839409722221  26 14.265625  26 14.6666666666666  L 26 21.0833333333334  C 26 21.3315972222221  25.8927951388887 21.5464409722221  25.6783854166665 21.7278645833334  C 25.4639756944443 21.9092881944445  25.2100694444443 22  24.9166666666665 22  L 17.3333333333335 22  C 16.859375 22  16.5264756944443 21.8090277777779  16.3346354166665 21.4270833333334  C 16.1427951388887 21.0546875  16.2217881944443 20.7252604166666  16.5716145833335 20.4388020833334  L 19.0091145833335 18.3763020833334  L 13 13.2916666666666  L 6.99088541666652 18.3763020833334  L 9.42838541666652 20.4388020833334  C 9.77821180555566 20.7252604166666  9.85720486111131 21.0546875  9.66536458333348 21.4270833333334  C 9.47352430555566 21.8090277777779  9.140625 22  8.66666666666652 22  L 1.08333333333348 22  C 0.789930555555657 22  0.536024305555657 21.9092881944445  0.321614583333485 21.7278645833334  C 0.107204861111313 21.5464409722221  0 21.3315972222221  0 21.0833333333334  L 0 14.6666666666666  C 0 14.265625  0.225694444444343 13.9839409722221  0.677083333333485 13.8216145833334  C 1.1171875 13.6592881944445  1.50651041666652 13.7261284722221  1.84505208333348 14.0221354166666  L 4.28255208333348 16.0846354166666  L 10.2916666666665 11  L 4.28255208333348 5.9153645833334  L 1.84505208333348 7.9778645833334  C 1.63064236111131 8.15928819444447  1.37673611111131 8.25  1.08333333333348 8.25  C 0.947916666666515 8.25  0.8125 8.22612847222214  0.677083333333485 8.1783854166666  C 0.225694444444343 8.01605902777786  0 7.734375  0 7.3333333333334  L 0 0.916666666666602  C 0 0.668402777777863  0.107204861111313 0.453559027777863  0.321614583333485 0.272135416666603  C 0.536024305555657 0.0907118055555342  0.789930555555657 0  1.08333333333348 0  L 8.66666666666652 0  C 9.140625 0  9.47352430555566 0.190972222222137  9.66536458333348 0.572916666666602  C 9.85720486111131 0.9453125  9.77821180555566 1.2747395833334  9.42838541666652 1.5611979166666  L 6.99088541666652 3.6236979166666  L 13 8.7083333333334  L 19.0091145833335 3.6236979166666  L 16.5716145833335 1.5611979166666  C 16.2217881944443 1.2747395833334  16.1427951388887 0.9453125  16.3346354166665 0.572916666666602  C 16.5264756944443 0.190972222222137  16.859375 0  17.3333333333335 0  L 24.9166666666665 0  C 25.2100694444443 0  25.4639756944443 0.0907118055555342  25.6783854166665 0.272135416666603  C 25.8927951388887 0.453559027777863  26 0.668402777777863  26 0.916666666666602  L 26 7.3333333333334  C 26 7.734375  25.7799479166665 8.01605902777786  25.33984375 8.1783854166666  C 25.1931423611113 8.22612847222214  25.0520833333335 8.25  24.9166666666665 8.25  C 24.6232638888887 8.25  24.3693576388887 8.15928819444447  24.1549479166665 7.9778645833334  Z " fill-rule="nonzero" fill="#ffffff" stroke="none" transform="matrix(1 0 0 1 496 269 )" />
  </g>
</svg>