<?xml version="1.0" encoding="utf-8"?>
<svg version="1.1" xmlns:xlink="http://www.w3.org/1999/xlink" width="26px" height="22px" xmlns="http://www.w3.org/2000/svg">
  <g transform="matrix(1 0 0 1 -426 -269 )">
    <path d="M 25.6783854166665 0.272135416666603  C 25.8927951388887 0.453559027777863  26 0.668402777777863  26 0.916666666666602  L 26 21.0833333333334  C 26 21.3315972222221  25.8927951388887 21.5464409722221  25.6783854166665 21.7278645833334  C 25.4639756944443 21.9092881944445  25.2100694444443 22  24.9166666666665 22  L 1.08333333333348 22  C 0.789930555555657 22  0.536024305555657 21.9092881944445  0.321614583333485 21.7278645833334  C 0.107204861111313 21.5464409722221  0 21.3315972222221  0 21.0833333333334  L 0 0.916666666666602  C 0 0.668402777777863  0.107204861111313 0.453559027777863  0.321614583333485 0.272135416666603  C 0.536024305555657 0.0907118055555342  0.789930555555657 0  1.08333333333348 0  L 24.9166666666665 0  C 25.2100694444443 0  25.4639756944443 0.0907118055555342  25.6783854166665 0.272135416666603  Z " fill-rule="nonzero" fill="#ffffff" stroke="none" transform="matrix(1 0 0 1 426 269 )" />
  </g>
</svg>