<?xml version="1.0" encoding="utf-8"?>
<svg version="1.1" xmlns:xlink="http://www.w3.org/1999/xlink" width="80px" height="30px" xmlns="http://www.w3.org/2000/svg">
  <g transform="matrix(1 0 0 1 -290 -375 )">
    <path d="M 290.5 380  A 4.5 4.5 0 0 1 295 375.5 L 365 375.5  A 4.5 4.5 0 0 1 369.5 380 L 369.5 400  A 4.5 4.5 0 0 1 365 404.5 L 295 404.5  A 4.5 4.5 0 0 1 290.5 400 L 290.5 380  Z " fill-rule="nonzero" fill="#ffffff" stroke="none" />
    <path d="M 290.5 380  A 4.5 4.5 0 0 1 295 375.5 L 365 375.5  A 4.5 4.5 0 0 1 369.5 380 L 369.5 400  A 4.5 4.5 0 0 1 365 404.5 L 295 404.5  A 4.5 4.5 0 0 1 290.5 400 L 290.5 380  Z " stroke-width="1" stroke="#e4e4e4" fill="none" />
  </g>
</svg>