<?xml version="1.0" encoding="utf-8"?>
<svg version="1.1" xmlns:xlink="http://www.w3.org/1999/xlink" width="11px" height="11px" xmlns="http://www.w3.org/2000/svg">
  <g transform="matrix(1 0 0 1 -24 -67 )">
    <path d="M 10.2390079580078 5.44726876074219  C 10.320616625 5.36564909375  10.320616625 5.23333180175781  10.2390189472656 5.15171213476563  L 5.9435053046875 0.856220481445312  C 5.82490670996094 0.73762188671875  5.66721862695312 0.6722931875  5.49947235449219 0.6722931875  C 5.33174807128906 0.6722931875  5.17404898828125 0.737599908203125  5.05543940429687 0.856220481445312  L 0.759958750976562 5.15171213476563  C 0.678339083984375 5.23333180175781  0.678339083984375 5.36566008300781  0.759958750976562 5.44726875  C 0.84157841796875 5.52887741699219  0.97390669921875 5.52889940625  1.05551536621094 5.44726875  L 1.52336916015625 4.97941495605469  L 1.52336916015625 10.0779011845703  C 1.52336916015625 10.1933229277344  1.61693771679687 10.286891484375  1.73235945996094 10.286891484375  L 9.26659624902344 10.286891484375  C 9.38202898144531 10.286891484375  9.47558654882812 10.1933229277344  9.47558654882812 10.0779011845703  L 9.47558654882812 4.97942595605469  L 9.94342935351563 5.44726876074219  C 9.98422269238281 5.48807309960937  10.0377124267578 5.50848625292969  10.0912131611328 5.50848625292969  C 10.1447028955078 5.50848625292969  10.1981926298828 5.48807308886719  10.2390079580078 5.44726876074219  Z M 6.9597992578125 9.86663542089844  L 4.03388002832031 9.86663542089844  L 4.03388002832031 6.407786515625  L 6.9597992578125 6.407786515625  L 6.9597992578125 9.86663542089844  Z M 9.03533504199219 9.76441572949219  C 9.03533504199219 9.82212660644531  8.98855076367188 9.86891088476562  8.93083988671875 9.86891088476562  L 7.37779085742187 9.86891087402344  L 7.37779085742187 6.1987852265625  C 7.37779085742187 6.08336348339844  7.28422230078125 5.98979492675781  7.16880055761719 5.98979492675781  L 3.82488972851562 5.98979491601563  C 3.70945699609375 5.98979491601563  3.61589942871094 6.08336347265625  3.61589942871094 6.19878521582031  L 3.61589942871094 9.86891087402344  L 2.05492475976562 9.86891087402344  C 1.9972138828125 9.86891087402344  1.95042960449219 9.82212659570313  1.95042960449219 9.76441571875  L 1.95042960449219 4.55236550097656  L 5.35101800878906 1.15177709667969  C 5.39067912109375 1.112126984375  5.44339937109375 1.09028478710938  5.49948335449219 1.09028478710938  C 5.55556733789063 1.09028478710938  5.60829857714844 1.11212697363281  5.64793770019531 1.15177709667969  L 9.03533504199219 4.53916344921875  L 9.03533504199219 9.76441572949219  Z " fill-rule="nonzero" fill="#2b85e4" stroke="none" transform="matrix(1 0 0 1 24 67 )" />
  </g>
</svg>