<?xml version="1.0" encoding="utf-8"?>
<svg version="1.1" xmlns:xlink="http://www.w3.org/1999/xlink" width="11px" height="11px" xmlns="http://www.w3.org/2000/svg">
  <g transform="matrix(1 0 0 1 -1155 -20 )">
    <path d="M 0.7772724609375 3.55579296875  L 0.7750703125 3.55914453125  L 5.3453447265625 6.1978447265625  C 5.391138671875 6.2243564453125  5.4431953125 6.23833203125  5.495875 6.23833203125  C 5.5501875 6.23833203125  5.6035009765625 6.223701171875  5.649595703125 6.196201171875  L 10.1848828125 3.5778466796875  C 10.3284306640625 3.4947236328125  10.377576171875 3.3102802734375  10.29441015625 3.1666787109375  C 10.267404296875 3.12000390625  10.22832421875 3.0814501953125  10.181982421875 3.0554970703125  L 5.6640546875 0.435627929687499  C 5.6182607421875 0.409105468749999  5.5662578125 0.395076171874999  5.5135458984375 0.395076171874999  C 5.4542490234375 0.395076171874999  5.396853515625 0.412274414062499  5.3474287109375 0.444876953124999  L 0.8158046875 3.0611689453125  C 0.672203125 3.14363671875  0.622509765625 3.3276181640625  0.705009765625 3.4712734375  C 0.723701171875 3.50384375  0.74830078125 3.53250390625  0.7773046875 3.55579296875  Z M 1.566705078125 3.3213017578125  L 5.512439453125 1.0432705078125  L 9.433208984375 3.3169404296875  L 5.4961328125 5.5900517578125  L 1.566705078125 3.3213017578125  Z M 10.1819609375 5.264423828125  L 9.3315986328125 4.7713037109375  L 8.730498046875 5.1183408203125  L 9.433251953125 5.52591015625  L 5.4961220703125 7.7989677734375  L 1.5666943359375 5.5302822265625  L 2.2709521484375 5.1236904296875  L 1.6701630859375 4.7768251953125  L 0.815772460937499 5.270138671875  C 0.672170898437498 5.3526279296875  0.622456054687499 5.536587890625  0.704977539062499 5.680189453125  C 0.723991210937499 5.713361328125  0.749117187499999 5.7424189453125  0.778776367187499 5.7659658203125  L 0.776874999999999 5.7691669921875  L 5.345376953125 8.4068251953125  C 5.3911708984375 8.4333369140625  5.4431953125 8.4473125  5.4958857421875 8.4473125  C 5.5501982421875 8.4473125  5.60351171875 8.432681640625  5.6496064453125 8.405224609375  L 10.1848935546875 5.78681640625  C 10.32844140625 5.7036396484375  10.3775869140625 5.5192177734375  10.2944208984375 5.375669921875  C 10.26733984375 5.3289736328125  10.2283134765625 5.2903876953125  10.1819716796875 5.2644345703125  Z M 10.1819609375 7.4733935546875  L 9.335111328125 6.9822822265625  L 8.734064453125 7.3292978515625  L 9.4332626953125 7.7348369140625  L 5.4961328125 10.0079482421875  L 1.566705078125 7.739251953125  L 2.2674501953125 7.334615234375  L 1.6666826171875 6.98779296875  L 0.815772460937498 7.4791083984375  C 0.672170898437498 7.561576171875  0.622477539062498 7.7455576171875  0.704977539062498 7.8891591796875  C 0.723787109374998 7.92193359375  0.748558593749998 7.950787109375  0.777831054687498 7.974140625  L 0.775747070312498 7.97744921875  L 5.34535546875 10.615751953125  C 5.3911708984375 10.642263671875  5.4432275390625 10.6562822265625  5.4958857421875 10.6562822265625  C 5.5501982421875 10.6562822265625  5.60351171875 10.6416513671875  5.6496064453125 10.6141943359375  L 10.1848935546875 7.9957861328125  C 10.32844140625 7.912609375  10.3775869140625 7.7281337890625  10.2944208984375 7.5846396484375  C 10.2674150390625 7.537943359375  10.2283779296875 7.499357421875  10.181982421875 7.473404296875  Z " fill-rule="nonzero" fill="#ffffff" stroke="none" transform="matrix(1 0 0 1 1155 20 )" />
  </g>
</svg>