<?xml version="1.0" encoding="utf-8"?>
<svg version="1.1" xmlns:xlink="http://www.w3.org/1999/xlink" width="11px" height="11px" xmlns="http://www.w3.org/2000/svg">
  <g transform="matrix(1 0 0 1 -1260 -20 )">
    <path d="M 5.51261155326801 10.99999985591  C 5.50840769737168 10.99999985591  5.50420384307852 10.9999946653293  5.5 10.9999842841797  C 5.49930797803004 10.9999845654929  5.49861595600776 10.9999847061495  5.49792393398062 10.9999847061495  C 2.67737265178141 10.9999847061495  0.390864064839998 8.7134761192081  0.390864064839998 5.89292483700889  C 0.390864064839998 5.4329323639945  0.453010010171858 4.97504843815281  0.575615734375 4.53169653320313  C 0.645933768381973 4.2756327561536  0.878723831887383 4.09815150530621  1.14426720654297 4.09815150530621  C 1.46995129555748 4.09815150530621  1.73397041510394 4.36217062485267  1.73397041510394 4.68785471386719  C 1.73397041510394 4.74061480412138  1.72688997746963 4.79313627972026  1.71291867871094 4.84401289453125  C 1.61827516167083 5.1856145663809  1.57030026914496 5.53845406964576  1.57030026914496 5.89292423415639  C 1.57030026914496 8.06257906616096  3.3291530279607 9.82143182497671  5.49880785996527 9.82143182497671  C 7.66846269196984 9.82143182497671  9.42731545078559 8.06257906616096  9.42731545078559 5.89292423415639  C 9.42731545078559 3.72373494717322  7.66918918710587 1.96507508370588  5.5 1.96441682421875  C 4.8650760896081 1.96179311221347  4.23919352772542 2.11489154099851  3.67717247949219 2.41030243652344  C 3.57883345528547 2.47806991134666  3.46222448737931 2.51435778989917  3.34279670867668 2.51435778989917  C 3.01734848654573 2.51435778989917  2.75352057488762 2.25052987824106  2.75352057488762 1.92508165611011  C 2.75352057488762 1.68131417526322  2.90361432735314 1.46270974681327  3.13110992089844 1.37514069042969  C 3.86527312634813 0.988135700274268  4.6826907891939 0.785880117628788  5.51261155326801 0.785880117628788  C 8.33316283546723 0.785880117628788  10.6196714224086 3.0723887045702  10.6196714224086 5.89293998676941  C 10.6196714224086 8.71349126896863  8.33316283546723 10.99999985591  5.51261155326801 10.99999985591  Z " fill-rule="nonzero" fill="#ffffff" stroke="none" transform="matrix(1 0 0 1 1260 20 )" />
  </g>
</svg>