<?xml version="1.0" encoding="utf-8"?>
<svg version="1.1" xmlns:xlink="http://www.w3.org/1999/xlink" width="5px" height="7px" xmlns="http://www.w3.org/2000/svg">
  <g transform="matrix(1 0 0 1 -1262 -20 )">
    <path d="M 4.08927613378906 3.19600395898437  L 3.5 3.19600395898437  C 3.39151725928968 3.19600395898437  3.30357462207031 3.28394659620375  3.30357462207031 3.39242933691406  L 3.30357462207031 5.80649725390625  C 3.30357462207031 5.91497999461657  3.21563198485094 6.00292263183594  3.10714924414062 6.00292263183594  L 1.28432172363281 6.00292263183594  C 1.17583897218031 6.00292263183594  1.08789633496094 6.09086526905531  1.08789633496094 6.19934800976563  L 1.08789633496094 6.78862415429688  C 1.08789633496094 6.89710689500719  1.17583897218031 6.98504953222656  1.28432171289063 6.98504953222656  L 4.08927613378906 6.98504953222656  C 4.19775888524157 6.98504953222656  4.28570152246094 6.89710689500719  4.28570152246094 6.78862415429688  L 4.28570152246094 3.39242933691406  C 4.28570152246094 3.28394659620375  4.19775888524157 3.19600395898437  4.08927614453125 3.19600395898437  Z M 2.9005967907653 2.85234657119632  C 2.9005967907653 3.1738467359773  2.6429004062388 3.43601050505428  2.32144772167969 3.44153567871094  C 2.24825946973915 3.44185027094924  2.17565304529113 3.42852799300532  2.1073440546875 3.40225060742187  L 0.480941912109375 2.76583237304687  C 0.254985829574237 2.67746929205841  0.106282785041628 2.459647732428  0.106282785041628 2.21702830757417  C 0.106282785041628 2.14334914936981  0.120100260926114 2.07032345676906  0.147018768554687 2.00173765429687  L 0.783437002929687 0.37533551171875  C 0.871662053254977 0.149107054498185  1.08962301145559 0.0001589426327923  1.33244593945312 0.0001589426327923  C 1.6578964242494 0.0001589426327923  1.92172617016018 0.263988688543568  1.92172617016018 0.589439173339844  C 1.92172617016018 0.662689722245929  1.90806905700505 0.735298214050381  1.88145487597656 0.803542834960937  L 1.44931903808594 1.88191816699219  L 2.52769437011719 2.304232734375  C 2.75272542631636 2.39306611520008  2.9005967907653 2.61041611465368  2.9005967907653 2.85234657119632  Z " fill-rule="nonzero" fill="#ffffff" stroke="none" transform="matrix(1 0 0 1 1262 20 )" />
  </g>
</svg>