<?xml version="1.0" encoding="utf-8"?>
<svg version="1.1" xmlns:xlink="http://www.w3.org/1999/xlink" width="11px" height="11px" xmlns="http://www.w3.org/2000/svg">
  <g transform="matrix(1 0 0 1 -1365 -20 )">
    <path d="M 10.8481770833333 3.03072916666667  C 10.8481770833333 1.46953125  9.57630208333333 0.19765625  8.013671875 0.19765625  L 3.04361979166667 0.19765625  C 1.48098958333333 0.19765625  0.210546875 1.46809895833333  0.210546875 3.03072916666667  L 0.210546875 8.00221354166667  C 0.210546875 9.56484375  1.48098958333333 10.8352864583333  3.04361979166667 10.8352864583333  L 8.01510416666667 10.8352864583333  C 9.577734375 10.8352864583333  10.8481770833333 9.56484375  10.8481770833333 8.00221354166667  L 10.8481770833333 3.03072916666667  Z M 0.820703125 3.03072916666667  C 0.820703125 1.80611979166667  1.817578125 0.809244791666667  3.04361979166667 0.809244791666667  L 8.01510416666667 0.809244791666667  C 9.23971354166667 0.809244791666667  10.2365885416667 1.80611979166667  10.2365885416667 3.03072916666667  L 10.2365885416667 3.58645833333333  L 0.820703125 3.58645833333333  L 0.820703125 3.03072916666667  Z M 6.85208333333333 6.67161458333333  L 4.09921875 6.67161458333333  L 4.09921875 4.19947916666667  L 6.85208333333333 4.19947916666667  L 6.85208333333333 6.67161458333333  Z M 0.820703125 6.67161458333333  L 0.820703125 4.19947916666667  L 3.48619791666667 4.19947916666667  L 3.48619791666667 6.67161458333333  L 0.820703125 6.67161458333333  Z M 4.09921875 10.2236979166667  L 4.09921875 7.283203125  L 6.85208333333333 7.283203125  L 6.85208333333333 10.2236979166667  L 4.09921875 10.2236979166667  Z M 10.23515625 6.67161458333333  L 7.463671875 6.67161458333333  L 7.463671875 4.19947916666667  L 10.23515625 4.19947916666667  L 10.23515625 6.67161458333333  Z M 3.0421875 10.2236979166667  C 1.817578125 10.2236979166667  0.820703125 9.22825520833333  0.820703125 8.00221354166667  L 0.820703125 7.283203125  L 3.48619791666667 7.283203125  L 3.48619791666667 10.2236979166667  L 3.0421875 10.2236979166667  Z M 10.23515625 8.00221354166667  C 10.2365885416667 9.22825520833333  9.23971354166667 10.2236979166667  8.013671875 10.2236979166667  L 7.463671875 10.2236979166667  L 7.463671875 7.283203125  L 10.23515625 7.283203125  L 10.23515625 8.00221354166667  Z " fill-rule="nonzero" fill="#ffffff" stroke="none" transform="matrix(1 0 0 1 1365 20 )" />
  </g>
</svg>