<?xml version="1.0" encoding="utf-8"?>
<svg version="1.1" xmlns:xlink="http://www.w3.org/1999/xlink" width="14px" height="13px" xmlns="http://www.w3.org/2000/svg">
  <g transform="matrix(1 0 0 1 -1089 -19 )">
    <path d="M 13.793828125 8.74791666666667  C 13.793828125 8.373828125  13.501796875 8.07083333333333  13.13921875 8  L 0.86078125 8  C 0.498203125 8.07083333333333  0.20453125 8.373828125  0.20453125 8.74791666666667  C 0.20453125 8.89010416666667  0.2471875 9.02213541666667  0.319375 9.13046875  C 0.350546875 9.206640625  0.398125 9.277734375  0.4571875 9.34036458333333  L 3.349609375 12.3229166666667  C 3.477578125 12.4549479166667  3.644921875 12.5209635416667  3.81390625 12.5209635416667  C 3.982890625 12.5209635416667  4.150234375 12.4549479166667  4.278203125 12.3229166666667  C 4.534140625 12.0588541666667  4.534140625 11.6305989583333  4.278203125 11.36484375  L 2.394765625 9.425  L 13.137578125 9.425  C 13.50015625 9.425  13.793828125 9.12200520833333  13.793828125 8.74791666666667  Z M 0.20453125 4.25208333333333  C 0.20453125 4.626171875  0.498203125 4.92916666666667  0.86078125 5  L 13.13921875 5  C 13.501796875 4.92916666666667  13.79546875 4.626171875  13.79546875 4.25208333333333  C 13.79546875 4.10989583333333  13.7528125 3.97786458333333  13.680625 3.86953125  C 13.65765625 3.813671875  13.62484375 3.75950520833333  13.58546875 3.70872395833333  L 11.2196875 0.726171875  C 10.99 0.43671875  10.5765625 0.394401041666667  10.296015625 0.631380208333334  C 10.01546875 0.868359375  9.974453125 1.294921875  10.204140625 1.584375  L 11.7840625 3.575  L 0.86078125 3.575  C 0.498203125 3.575  0.20453125 3.87799479166667  0.20453125 4.25208333333333  Z " fill-rule="nonzero" fill="#ffffff" stroke="none" transform="matrix(1 0 0 1 1089 19 )" />
  </g>
</svg>