<?xml version="1.0" encoding="utf-8"?>
<svg version="1.1" xmlns:xlink="http://www.w3.org/1999/xlink" width="11px" height="12px" xmlns="http://www.w3.org/2000/svg">
  <g transform="matrix(1 0 0 1 -236 -67 )">
    <path d="M 2.63541667114258 4.33333333333333  L 2.63541667114258 3.7777777734375  L 7.79166667114258 3.7777777734375  L 7.79166667114258 4.33333333333333  L 2.63541667114258 4.33333333333333  Z M 2.63541667114258 6  L 2.63541667114258 5.44444444010417  L 6.64583332885742 5.44444444010417  L 6.64583332885742 6  L 2.63541667114258 6  Z M 2.63541667114258 7.66666666666667  L 2.63541667114258 7.11111110677083  L 6.64583332885742 7.11111110677083  L 6.64583332885742 7.66666666666667  L 2.63541667114258 7.66666666666667  Z M 1 11  L 1 1  L 10.0833333288574 1  L 10.0833333288574 8.2222222265625  L 10.65625 8.2222222265625  L 10.65625 0.7202777734375  C 10.65625 0.5702777734375  10.5279166711426 0.444444440104167  10.3697916711426 0.444444440104167  L 0.630208328857422 0.444444440104167  C 0.474088532714844 0.444444440104167  0.34375 0.568888880208333  0.34375 0.7227777734375  L 0.34375 11.2772222265625  C 0.34375 11.4305555598958  0.472083328857422 11.5555555598958  0.630208328857422 11.5555555598958  L 7.21875 11.5555555598958  L 7.21875 11  L 1 11  Z M 7.21875 11.5555555598958  L 7.21875 8.50055555989583  C 7.21875 8.346944453125  7.349375 8.2222222265625  7.50578125 8.2222222265625  L 10.65625 8.2222222265625  L 7.21875 11.5555555598958  Z M 7.79166667114258 10.2144444401042  L 9.27322917114258 8.7777777734375  L 7.79166667114258 8.7777777734375  L 7.79166667114258 10.2144444401042  Z " fill-rule="nonzero" fill="#2b85e4" stroke="none" transform="matrix(1 0 0 1 236 67 )" />
  </g>
</svg>