<?xml version="1.0" encoding="utf-8"?>
<svg version="1.1" xmlns:xlink="http://www.w3.org/1999/xlink" width="14px" height="12px" xmlns="http://www.w3.org/2000/svg">
  <g transform="matrix(1 0 0 1 -352 -67 )">
    <path d="M 8.38095635179153 0.164617589576547  L 0.785094462540717 1.35189055374593  C 0.354897719869707 1.35189055374593  0 1.73889250814332  0 2.20994918566775  L 0 9.92547231270358  C 0 10.396528990228  0.356065146579805 10.7835309446254  0.785094462540717 10.7835309446254  L 8.38095635179153 11.6415895765472  C 8.81115309446254 11.6415895765472  9.16605081433225 11.2545876221498  9.16605081433225 10.7835309446254  L 9.16605081433225 1.02209250814332  C 9.15437654723127 0.551035830618893  8.80122996742671 0.164033876221499  8.38095635179153 0.164033876221499  Z M 7.86903973941368 6.16694201954397  L 4.15312052117264 9.51395439739414  C 4.07932970521843 9.58178719569972  3.9827536807565 9.61943189833181  3.88252208371667 9.61943189833181  C 3.75444524886183 9.61943189833181  3.63411959794079 9.55807728052087  3.5589003257329 9.45441563517915  C 3.41076719221439 9.25656885960672  3.43462439371389 8.97907193690189  3.61435309446254 8.80941237785016  L 7.33027231270358 5.46181628664495  C 7.4040921936269 5.39383903143239  7.50077411772943 5.35610494217508  7.60112491267279 5.35610494217508  C 7.72904929015863 5.35610494217508  7.84925083789552 5.41731440043788  7.92449250814332 5.52077133550489  C 8.07333941368078 5.71865016286645  8.04823973941368 6.00875570032573  7.86903973941368 6.16752573289902  Z M 8.45683908794788 7.74997263843648  C 8.59285411142328 7.93137206304322  8.5701968337291 8.18614056333779  8.40430488599348 8.34069055374593  L 6.01983583061889 10.4875882736156  C 5.95243769104725 10.5498333034312  5.86406173286963 10.5843996714792  5.77231777963858 10.5843996714792  C 5.65471927715419 10.5843996714792  5.54433175710996 10.5277119640686  5.47581498371336 10.432135504886  L 5.43845732899023 10.3831035830619  C 5.3016433276004 10.202029422671  5.32355504751926 9.94689640798353  5.48924039087948 9.7918019543974  L 7.87546058631922 7.64490423452769  C 7.94283021304893 7.58280260633272  8.03110121256905 7.54832504628649  8.12272696675513 7.54832504628649  C 8.24047800641608 7.54832504628649  8.35098923938321 7.60515905488109  8.41948143322476 7.70094071661238  L 8.45683908794788 7.74997263843648  Z M 11.58787752443 10.0130293159609  C 11.5867100977199 10.7613498371336  11.0041641693811 11.3689954397394  10.2826944625407 11.3689954397394  L 10.2593459283388 11.3689954397394  L 9.71999478827362 11.3135426710098  L 9.71999478827362 10.18172247557  L 10.3042918566775 10.241261237785  C 10.4379622149837 10.2325055374593  10.549451465798 10.1315231270358  10.549451465798 10.0147804560261  L 10.549451465798 1.91108794788274  C 10.5424469055375 1.79434527687296  10.4344599348534 1.68810944625407  10.3112964169381 1.67468403908795  L 9.71999478827362 1.75873876221498  L 9.71999478827362 0.627502280130293  L 10.250590228013 0.542863843648209  L 10.2844456026059 0.542863843648209  C 10.9849016286645 0.542863843648209  11.5709498371336 1.14408859934853  11.58787752443 1.88248599348534  L 11.58787752443 10.0130293159609  Z M 13.9881068403909 9.14329641693811  C 13.989857980456 9.89161693811075  13.403809771987 10.4992625407166  12.6823400651466 10.4992625407166  L 12.6589915309446 10.4992625407166  L 12.1569980456026 10.4467283387622  L 12.1569980456026 9.31198957654723  L 12.7856573289902 9.36977719869707  C 12.9193276872964 9.36102149837134  13.0308169381107 9.25945537459284  13.0308169381107 9.14329641693811  L 13.0308169381107 2.80708794788274  C 13.0238123778502 2.69034527687296  12.9158254071661 2.58410944625407  12.7926618892508 2.57068403908795  L 12.1575817589577 2.65532247557003  L 12.1575817589577 1.52408599348534  L 12.6502358306189 1.44294983713355  L 12.6840912052117 1.44294983713355  C 13.3851309446254 1.44294983713355  13.9711791530945 2.04417459283388  13.9881068403909 2.78257198697068  L 13.9881068403909 9.14329641693811  Z " fill-rule="nonzero" fill="#2b85e4" stroke="none" transform="matrix(1 0 0 1 352 67 )" />
  </g>
</svg>