<?xml version="1.0" encoding="utf-8"?>
<svg version="1.1" xmlns:xlink="http://www.w3.org/1999/xlink" width="11px" height="11px" xmlns="http://www.w3.org/2000/svg">
  <g transform="matrix(1 0 0 1 -112 -67 )">
    <path d="M 8.17361110693359 5.5  C 8.17361110693359 6.97422916666667  6.97422916666667 8.17361110693359  5.5 8.17361110693359  C 4.02577083333333 8.17361110693359  2.82638889306641 6.97422916666667  2.82638889306641 5.5  C 2.82638889306641 4.02577083333333  4.02577083333333 2.82638889306641  5.5 2.82638889306641  C 6.97422916666667 2.82638889306641  8.17361110693359 4.02577083333333  8.17361110693359 5.5  Z M 7.37152777360026 5.5  C 7.37152777360026 4.46798611946615  6.53201389306641 3.62847222639974  5.5 3.62847222639974  C 4.46798610693359 3.62847222639974  3.62847222639974 4.46798611946615  3.62847222639974 5.5  C 3.62847222639974 6.53201388053385  4.46798611946615 7.37152777360026  5.5 7.37152777360026  C 6.53201388053385 7.37152777360026  7.37152777360026 6.53201388053385  7.37152777360026 5.5  Z M 4.07015277360026 10.1480729166667  C 3.9226660511887 10.2542439395378  3.74563083105135 10.3115571631814  3.56390451806641 10.3119652736003  C 3.44038368473307 10.3119652736003  3.31672916666667 10.2852291666667  3.20149652360026 10.2312222263997  C 2.94782879074952 10.1125192666729  2.70367521008709 9.97446500602385  2.47119964860026 9.81828298193359  C 2.21238495348292 9.64486930398253  2.07199784379616 9.34150523574202  2.10732118473307 9.03197395833333  C 2.16349580377332 8.53662570375192  2.05597845537771 8.03650571417926  1.80119270833333 7.60800868473307  L 1.79410764306641 7.59597743473307  C 1.53637153613281 7.159109375  1.15217361946615 6.82156597639974  0.6826875 6.61890625  C 0.392294732926759 6.49408985230864  0.194744366628706 6.2189083655044  0.169354166666666 5.90384895833333  C 0.148123033338615 5.64211890979284  0.147273829334094 5.37913426922084  0.166814231933593 5.11727256526692  C 0.191099909491581 4.78985780032393  0.39589165753716 4.50329371944841  0.69779339860026 4.37427604166666  C 1.16006075553385 4.17469097639974  1.53797569026693 3.84196006526692  1.79049826806641 3.4123107680664  L 1.79851910139974 3.39880902360026  C 2.05719097639974 2.96140625  2.16293229166667 2.47160069026692  2.10785589860026 1.976046875  C 2.07283158886719 1.65909027360026  2.21747395833333 1.35082291666666  2.48523610693359 1.17128993473307  C 2.71177964578783 1.01988312747088  2.94963004250719 0.886120208972819  3.19668402360026 0.771184023600257  C 3.48023080365557 0.63869385698127  3.8131426984374 0.669083943802274  4.06801389306641 0.850723958333329  C 4.48160651186043 1.14736485086806  4.9780603269704 1.30633296462165  5.48703298193359 1.30510416666666  L 5.51136285139974 1.30510416666666  C 6.02144043712735 1.30653061558766  6.51899415265105 1.14716561622498  6.93332291666666 0.849654518066402  C 7.18574183093474 0.667789947740622  7.51680780569306 0.636744519346634  7.79863714860026 0.768510416666663  C 8.0503198635726 0.886233822702203  8.29263162896396 1.02303137289775  8.523453125 1.17770660139974  C 8.78626910139974 1.35389757779948  8.92783680973307 1.65668403613281  8.89321354166667 1.96775868473307  C 8.83700876331495 2.46317697844169  8.94447627731492 2.96337745351329  9.19920833333333 3.39199131526692  L 9.20749652360026 3.40602777360026  C 9.46402950553385 3.84062325553385  9.84809375 4.17830033886718  10.3177135416667 4.38096006526692  C 10.6081852052609 4.50575024925133  10.8057625582928 4.78102078177603  10.831046875 5.09615104166666  C 10.852703125 5.36351214860026  10.8531041666667 5.63434895833333  10.83225 5.90117535139974  C 10.8078333380568 6.21701572882996  10.610294867636 6.49327098713202  10.3193177083333 6.61850520833333  L 10.3039444402669 6.62532291666666  C 9.84060763053385 6.82530902360025  9.46269270833333 7.15803993473307  9.21003645833333 7.58768923193359  L 9.20295139306641 7.59972048193359  C 8.94708680973307 8.03217708333333  8.83827083333333 8.53521700553385  8.89241145833333 9.02381944026692  C 8.92756944026693 9.34077604166666  8.78306076806641 9.64917708333333  8.51503125 9.8285763930664  C 8.28857126520389 9.98000445406375  8.05076011395887 10.1137257383789  7.80371701806641 10.2285486069336  C 7.52022658815321 10.3607436178834  7.1875688514862 10.3304184650933  6.93265451806641 10.1491423569336  C 6.51902441577039 9.85245998517139  6.02252913285864 9.69344680497822  5.51350173193359 9.69462847639974  L 5.48582985693359 9.69462847639974  C 4.97800132512678 9.69318493677306  4.48263834197456 9.85185077467412  4.07015277360026 10.1480729166667  Z M 3.60093402360026 1.50308506526693  C 3.5904014005804 1.49571947975261  3.57782562707989 1.49183922351169  3.56497395833333 1.49198958333333  C 3.55466334065139 1.49197043127744  3.54447857342693 1.49425400962537  3.53516319026693 1.49867360693359  C 3.32548487268802 1.5960884350896  3.12364993192944 1.70956472560901  2.93146180973307 1.83808854166667  C 2.91328125 1.85025347639974  2.90298785139974 1.86950347639974  2.90512673193359 1.88808506526693  C 2.97707512731471 2.55353844762317  2.8323452637205 3.22444364620856  2.49245485693359 3.80105381526693  L 2.48095833333333 3.82057118473307  C 2.14261285139974 4.39646701806641  1.6355625 4.84322743473307  1.01555208333333 5.11098958333333  C 0.987479166666666 5.12302083333333  0.968763893066406 5.14842014306641  0.966625 5.17716145833333  C 0.950226184084774 5.39754707687165  0.950941291915964 5.61887251695193  0.968763893066406 5.83914756526693  C 0.970471853886673 5.85844842337189  0.982716734440044 5.87522083040542  1.00057985693359 5.88272743473307  C 1.627140625 6.1530295180664  2.14020658886719 6.60446875  2.48443402360026 7.187984375  L 2.49151910139974 7.200015625  C 2.83228006096628 7.7793764598726  2.97705109918757 8.4532087702577  2.90432464860026 9.12140625  C 2.90271141216731 9.13371732146738  2.90819849317732 9.14588207456808  2.91849479166667 9.15282118473307  C 3.11665993832088 9.2859690214508  3.32479316460104 9.40364451524813  3.54104514306641 9.50480208333333  C 3.55818147123676 9.51334673275365  3.57855231794897 9.51222912851629  3.59465104166667 9.50186110693359  C 4.15343576806641 9.10162152360026  4.80432639306641 8.8928125  5.48502777360026 8.8928125  L 5.513234375 8.8928125  C 6.18970486861334 8.89129418764825  6.84949191068985 9.10274220711519  7.39906597639974 9.49718229166667  C 7.41711285139974 9.51014930973307  7.44291320279948 9.51188714860026  7.46510416666667 9.50146006526693  C 7.67463049109022 9.40396665633729  7.8763672883406 9.29053998487826  8.06853819026693 9.16217881526693  C 8.08685242220052 9.14988020833333  8.09687846386719 9.13089756526693  8.0948732680664 9.11244964860026  C 8.022887365664 8.44680131606764  8.16766858931475 7.77582847341019  8.50767881526693 7.19921354166667  L 8.51837326806641 7.18103298193359  C 8.85765451806641 6.60393402360026  9.36470486946614 6.15717360693359  9.98471527360026 5.88941145833333  L 9.99982118473307 5.88272743473307  C 10.0179824806841 5.87515397679536  10.0304076919191 5.85808863914533  10.0320381902669 5.83847916666667  C 10.0498177083333 5.61389583333333  10.0494166666667 5.38610416666667  10.0311024347331 5.16111979166667  C 10.0295421268219 5.14176377977101  10.0172470988926 5.12492269492037  9.99928645833333 5.11753993473307  C 9.37272569026692 4.84710416666667  8.85979339860026 4.39579861946615  8.51543229166666 3.81241666666667  L 8.50714410139974 3.79838020833333  C 8.16711065896268 3.21949625687828  8.0228140090113 2.5463931704579  8.09567535139974 1.87899479166667  C 8.09714583333333 1.86642881526693  8.08952604166666 1.85306076806641  8.07615798193359 1.84397048193359  C 7.87944557521564 1.71242715153311  7.6730798257504 1.59592747285466  7.45882118473307 1.49546527360026  C 7.44180236818737 1.48687367124239  7.42150555209086 1.48794192472115  7.40548264306641 1.49827256526693  C 6.85402184870753 1.89564567793677  6.19121153838827 2.10883219479171  5.51149652360026 2.10745485693359  L 5.486765625 2.10745485693359  C 4.81031482460398 2.10884629826854  4.15056580950205 1.89741046565576  3.60093402360026 1.50308506526693  Z " fill-rule="nonzero" fill="#2b85e4" stroke="none" transform="matrix(1 0 0 1 112 67 )" />
  </g>
</svg>