<?xml version="1.0" encoding="utf-8"?>
<svg version="1.1" xmlns:xlink="http://www.w3.org/1999/xlink" width="11px" height="12px" xmlns="http://www.w3.org/2000/svg">
  <g transform="matrix(1 0 0 1 -480 -67 )">
    <path d="M 10.5285373263889 1.475390625  C 10.5285373263889 1.27653984375  10.3840489366319 1.105996875  10.1849031032986 1.069787109375  L 5.57650466579861 0.231896484375  C 5.52607212324206 0.22272922643249  5.47435603089656 0.222707381741492  5.42391547309028 0.23183203125  L 0.789258355034722 1.06972265625  C 0.589915581597222 1.105751953125  0.445203993055556 1.27638515625  0.445203993055556 1.475390625  L 0.445203993055556 6.837890625  C 0.445203993055556 7.68343828125  0.7163642578125 8.473801171875  1.25116167534722 9.187039453125  C 1.66683658854167 9.74140078125  2.24131087239583 10.2475640625  2.95863237847222 10.69149140625  C 4.15761686197917 11.433488671875  5.34205403645833 11.748084375  5.3918798828125 11.761116796875  C 5.46364619175832 11.7798657306286  5.53919067219727 11.7796122079713  5.61082476128472 11.76038203125  C 5.66036176215278 11.74707890625  6.83787977430556 11.42599921875  8.02984006076389 10.680805078125  C 8.74288140190972 10.235034375  9.31391579861111 9.72861328125  9.7270830078125 9.1755796875  C 10.2589000651042 8.4638109375  10.5285373263889 7.677289453125  10.5285373263889 6.837890625  L 10.5285373263889 1.475390625  Z M 9.68825954861111 1.81851328125  L 9.68825954861111 6.837890625  C 9.68825954861111 8.045896875  8.98397547743055 9.101239453125  7.59497005208333 9.974605078125  C 6.70803059895833 10.5322921875  5.8054541015625 10.83751640625  5.49852951388889 10.932249609375  C 4.82521755642361 10.729016015625  1.28548177083333 9.531425390625  1.28548177083333 6.837890625  L 1.28548177083333 1.81887421875  L 5.49977680121528 1.05698671875  L 9.68825954861111 1.81851328125  Z M 5.08152853732639 6.663880078125  L 3.70282964409722 5.310235546875  C 3.53875227864583 5.14914140625  3.27273871527778 5.14914140625  3.10866134982639 5.310235546875  C 2.944583984375 5.4713296875  2.944583984375 5.732506640625  3.10866134982639 5.89360078125  L 4.77635015190972 7.530955078125  C 4.85897309027778 7.612088671875  4.96746082899305 7.652307421875  5.07575162760417 7.651714453125  C 5.18404242621528 7.652307421875  5.29251703559028 7.612088671875  5.37515310329861 7.530955078125  L 8.09652398003472 4.96217578125  C 8.26058821614583 4.80109453125  8.26060134548611 4.5399046875  8.09652398003472 4.378810546875  C 7.93244661458333 4.21771640625  7.666419921875 4.21771640625  7.50235568576389 4.378810546875  L 5.08152853732639 6.663880078125  Z " fill-rule="nonzero" fill="#2b85e4" stroke="none" transform="matrix(1 0 0 1 480 67 )" />
  </g>
</svg>