<?xml version="1.0" encoding="utf-8"?>
<svg version="1.1" xmlns:xlink="http://www.w3.org/1999/xlink" width="11px" height="11px" xmlns="http://www.w3.org/2000/svg">
  <g transform="matrix(1 0 0 1 -604 -67 )">
    <path d="M 5.959072306 10.9317746870079  C 5.820438459 11  5.681804612 11  5.543170765 11  C 5.023293847 11  4.503416918 10.863549363189  3.879564612 10.5224227765748  C 3.325029224 10.2495215029528  2.770493847 9.84016959251968  2.215958459 9.43081768208661  C 2.1813 9.39670502559055  2.111983071 9.36259236909449  2.042666153 9.32847971259842  C 1.141546153 8.68033919586614  0.517693847 8.10042399212598  0.136450765 7.58873410137795  C -0.00218308199999962 7.41817080807087  0.0324753770000004 7.11115687795276  0.0671338470000004 7.04293155413386  L 0.0671338470000004 2.43772259153543  C 0.0671338470000004 2.36949727854331  0.0324753880000004 2.16482131791339  0.171109235 1.9942580246063  C 0.309743082 1.65313143799213  0.933595388 1.14144154724409  1.661423082 0.834427617125984  C 2.354592306 0.527413687007874  3.394346153 0.0839491200787401  5.404536918 0.0839491200787401  C 6.444290765 0.0839491200787401  7.414727683 0.28862506988189  8.073238459 0.459188374015748  C 8.870383071 0.663864323818898  9.39026 0.902652940944882  9.598210765 1.00499091043307  L 9.806161541 1.10732889074803  C 10.222063082 1.31200484055118  10.637964623 1.5166808011811  10.811256918 1.75546940748031  C 11.019207683 2.02837068110236  10.984549224 2.4036099242126  10.984549235 2.43772259153543  L 10.984549235 6.73591762401575  C 10.984549235 7.17938219094488  10.984549235 7.31583282775591  10.915232306 7.45228346456693  C 10.845915388 7.55462144488189  10.707281541 7.82752271850394  9.979453847 8.40743791141732  C 9.736844612 8.57800120472441  9.459576929 8.68033918503937  9.147650765 8.68033918503937  C 8.731749224 8.68033918503937  8.385164612 8.47566323523622  8.350506153 8.44155057874016  L 6.201681541 7.34994548425197  C 6.097706153 7.48639612106299  5.855096929 7.72518473818898  5.404536918 8.03219866830709  C 4.85000153 8.37332525492126  3.706272306 8.61211387204724  3.671613847 8.61211387204724  L 3.567638459 8.64622652854331  L 3.221053847 7.92986068799213  L 3.429004612 7.92986068799213  C 3.429004612 7.92986068799213  3.775589224 7.89574803149606  4.295466153 7.72518473818898  C 4.988635388 7.48639612106299  5.439195388 7.21349485826772  5.681804612 6.87236826082677  C 5.889755377 6.56535433070866  5.959072306 5.84898849015748  5.924413847 5.61019988385827  L 5.924413847 5.47374924704724  L 6.652241541 5.47374924704724  L 6.652241541 5.61019988385827  C 6.652241541 5.61019988385827  6.652241541 6.01955179429134  6.617583082 6.29245305708661  C 6.617583082 6.4630163503937  6.548266164 6.63357964370079  6.513607694 6.77003028051181  C 6.756216929 6.87236826082677  7.414727694 7.17938219094488  8.03858 7.45228346456693  C 8.211872306 7.52050877755906  8.350506153 7.58873410137795  8.48914 7.65695941437008  C 8.870383082 7.82752270767717  9.009016918 7.92986068799213  9.182309235 7.92986068799213  L 9.216967694 7.92986068799213  C 9.494235388 7.92986068799213  9.979453847 7.48639612106299  10.222063082 7.17938219094488  L 10.222063082 2.23304664173228  L 10.222063082 2.16482131791339  C 10.187404623 2.16482131791339  10.152746164 2.09659600492126  10.048770765 2.0624833484252  L 10.014112306 2.02837068110236  C 9.632869224 1.78958206397638  8.281189224 1.03910356692913  6.097706153 0.868540273622048  C 5.820438459 0.834427617125985  5.543170765 0.834427617125985  5.300561541 0.834427617125985  C 3.429004623 0.834427617125985  2.1813 1.38023016437008  1.626764612 1.68724409448819  C 1.002912306 2.0624833484252  0.829619999999998 2.30127195472441  0.794961540999998 2.36949727854331  L 0.794961540999998 7.21349484744094  C 0.864278458999998 7.24760750393701  0.968253846999998 7.41817079724409  1.037570765 7.48639612106299  C 1.106887683 7.55462143405512  1.834715377 8.2709872746063  2.978444612 9.05557843897638  C 4.226149224 9.90839491633858  4.953976918 10.2154088464567  5.543170765 10.2154088464567  C 5.75112153 10.2154088464567  5.959072306 10.1812961899606  6.201681541 10.1130708661417  C 7.033484623 9.84016959251969  8.107896929 8.91912780216536  8.107896918 8.88501514566929  L 8.211872306 8.78267716535433  L 8.697090765 9.36259236909449  L 8.627773847 9.46493034940945  C 8.627773847 9.46493034940945  8.523798459 9.56726832972441  8.211872306 9.84016959251969  L 8.177213847 9.84016959251969  C 7.830629235 10.1130708661417  6.998826153 10.761211382874  5.959072306 10.9317746870079  Z M 2.527884612 8.64622652854331  L 1.938690765 8.16864930511811  L 2.008007694 8.06631132480315  C 2.008007694 8.06631132480315  2.285275388 7.62284675787402  2.493226153 6.94059358464567  C 2.701176918 6.25834040059055  2.701176918 4.82560873031496  2.701176918 4.82560871948819  L 2.701176918 1.89192004429134  L 2.874469235 1.89192004429134  C 3.11707847 1.89192004429134  4.330124623 1.89192004429134  5.855096918 1.82369473129921  C 6.929509224 1.75546941830709  8.523798459 1.61901878149606  8.523798459 1.61901878149606  L 8.627773847 1.61901878149606  L 8.905041541 2.33538461122047  L 8.731749235 2.33538461122047  C 8.731749235 2.33538461122047  7.380069235 2.4036099242126  6.548266153 2.4718352480315  L 6.548266153 3.18820108858268  L 8.835724612 3.18820108858268  L 8.835724612 3.87045427263779  L 6.513607694 3.87045427263779  L 6.513607694 4.51859478937008  L 8.385164612 4.51859478937008  L 8.385164612 7.14526953444882  L 7.622678459 7.14526953444882  L 7.622678459 5.2008479734252  L 4.676709235 5.2008479734252  L 4.676709235 7.14526953444882  L 3.914223082 7.14526953444882  L 3.914223082 4.51859478937008  L 5.751121541 4.51859478937008  L 5.751121541 3.87045427263779  L 3.53298 3.87045427263779  L 3.53298 3.18820108858268  L 5.751121541 3.18820108858268  L 5.751121541 2.50594791535433  C 4.988635388 2.54006057185039  3.775589235 2.57417322834646  3.394346153 2.57417322834646  L 3.394346153 4.21158085925197  C 3.394346153 5.50786190354331  3.359687694 6.36067838090551  3.186395388 7.11115687795276  C 3.013103082 7.861635375  2.63186 8.50977589173228  2.597201541 8.50977589173228  L 2.527884612 8.64622652854331  Z " fill-rule="nonzero" fill="#2b85e4" stroke="none" transform="matrix(1 0 0 1 604 67 )" />
  </g>
</svg>