<?xml version="1.0" encoding="utf-8"?>
<svg version="1.1" xmlns:xlink="http://www.w3.org/1999/xlink" width="11px" height="11px" xmlns="http://www.w3.org/2000/svg">
  <g transform="matrix(1 0 0 1 -727 -67 )">
    <path d="M 3.64373581578947 5.52615480372807  C 1.7504189879386 2.03158307675439  3.1039298245614 0.0510835899122807  5.13673890679825 0.0510835899122807  C 6.91163261732456 0.0510835899122807  8.20556862390351 1.56224974342105  7.1375810120614 4.41021672039474  L 10.9489164100877 4.41021672039474  L 10.9489164100877 10.9489164100877  L 5.13673890679825 10.9489164100877  L 5.13673890679825 10.585655316886  L 0.0532631578947368 10.585655316886  L 0.0518101085526315 9.74506914912281  L 0.0568957631578947 9.52275335964912  C 0.088136221491228 8.7708029002193  0.265407626096491 8.30437565350877  1.18591125438596 8.05517852960526  L 1.32249742214912 8.02103199671053  C 2.66946955482456 7.71008049890351  4.2823488125 6.70457379166667  3.64373581578947 5.52615480372807  Z M 10.2223942236842 10.2223942236842  L 10.2223942236842 5.13673890679825  L 5.86326109320176 5.13673890679825  L 5.86326109320176 10.2223942236842  L 10.2223942236842 10.2223942236842  Z M 6.35729618092105 4.41021672039474  C 7.32938287390351 2.10205573464912  6.66461506140351 0.77760577631579  5.13673890679825 0.77760577631579  C 3.43449742214912 0.77760577631579  2.7987905 2.44206811074561  4.2823488125 5.18033024232456  C 5.14908978399123 6.77940557346491  3.63356449451754 8.1830464495614  1.63054283333333 8.69379153837719  L 1.32395045942982 8.76789680153509  C 0.880771929824561 8.88414035087719  0.793589258771929 9.0018369495614  0.779785344298245 9.61356862390351  L 0.77760577631579 9.85913313048246  L 5.13673890679825 9.85913313048246  L 5.13673890679825 4.41021672039474  L 6.35729618092105 4.41021672039474  Z M 6.95304437280702 8.22445820504386  L 8.40608874561404 8.22445820504386  L 8.40608874561404 8.95098039144737  L 6.95304437280702 8.95098039144737  L 6.95304437280702 8.22445820504386  Z M 6.95304437280702 6.40815273903509  L 9.13261094407895 6.40815273903509  L 9.13261094407895 7.1346749254386  L 6.95304437280702 7.1346749254386  L 6.95304437280702 6.40815273903509  Z " fill-rule="nonzero" fill="#2b85e4" stroke="none" transform="matrix(1 0 0 1 727 67 )" />
  </g>
</svg>