<?xml version="1.0" encoding="utf-8"?>
<svg version="1.1" xmlns:xlink="http://www.w3.org/1999/xlink" width="12px" height="11px" xmlns="http://www.w3.org/2000/svg">
  <g transform="matrix(1 0 0 1 -848 -67 )">
    <path d="M 11.9130434782609 4.06521739130435  C 11.9130434782609 3.92076791529562  11.7427170243921 3.80366847826087  11.5326086956522 3.80366847826087  L 10.2215217391304 3.80366847826087  C 10.1573508223703 2.84240149248611  9.3996741598057 1.9665493704835  8.20173913043478 1.46885869565217  L 8.20173913043478 0.291440217391304  C 8.20173913043478 0.146990741382571  8.03141267656606 0.0298913043478261  7.82130434782609 0.0298913043478261  L 4.25217391304348 0.0298913043478261  C 4.0420655843035 0.0298913043478261  3.87173913043478 0.146990741382571  3.87173913043478 0.291440217391304  L 3.87173913043478 1.46885869565217  C 2.6738608202041 1.96658809046669  1.91620400425219 2.84241727036396  1.85195652173913 3.80366847826087  L 0.532608695652174 3.80366847826087  C 0.322500366912198 3.80366847826087  0.152173913043478 3.92076791529562  0.152173913043478 4.06521739130435  L 0.152173913043478 6.62839673913044  C 0.152173850860601 6.77291317185392  0.32240297532711 6.88994569492464  0.532391242164948 6.88994569492464  L 1.84782608695652 6.88994565217391  L 1.84782608695652 10.4381929347826  L 1.06521739130435 10.4381929347826  C 0.855109062564372 10.4381929347826  0.684782608695651 10.5552923718174  0.684782608695651 10.6997418478261  C 0.684782608695651 10.8441913238348  0.855109062564372 10.9612907608696  1.06521739130435 10.9612907608696  L 11.0560869565217 10.9612907608696  C 11.2661952852617 10.9612907608696  11.4365217391304 10.8441913238348  11.4365217391304 10.6997418478261  C 11.4365217391304 10.5552923718174  11.2661952852617 10.4381929347826  11.0560869565217 10.4381929347826  L 10.2173913043478 10.4381929347826  L 10.2173913043478 6.88994565217391  L 11.5326086956522 6.88994565217391  C 11.7428144159772 6.88994569492464  11.9130435404437 6.77291317185392  11.9130435404437 6.6285462384029  L 11.9130434782609 4.06521739130435  Z M 4.63260869565217 1.2203125  L 4.63260869565217 0.552989130434783  L 7.44086956521739 0.552989130434783  L 7.44086956521739 1.2203125  C 6.53267950416816 0.998115222877176  5.54079875670141 0.998115222877176  4.63260869565217 1.2203125  Z M 1.84782608695652 6.36684782608696  L 0.91304347826087 6.36684782608696  L 0.91304347826087 4.32676630434783  L 1.84782608695652 4.32676630434783  L 1.84782608695652 6.36684782608696  Z M 9.45652173913044 10.4381929347826  L 2.60869565217391 10.4381929347826  L 2.60869565217391 4.06521739130435  L 2.60869565217391 3.93369565217391  C 2.60869565217391 2.63417119565217  4.14652173913044 1.57676630434783  6.03695652173913 1.57676630434783  C 7.92739130434783 1.57676630434783  9.46521739130435 2.63417119565217  9.46521739130435 3.93369565217391  L 9.46521739130435 4.01021739130435  C 9.45955882843473 4.02829451398002  9.45664466462527 4.04672660007485  9.45652173913044 4.06521739130435  L 9.45652173913044 10.4381929347826  Z M 11.1521739130435 4.32676630434783  L 11.1521739130435 6.36684782608696  L 10.2173913043478 6.36684782608696  L 10.2173913043478 4.5760597826087  C 10.2229768007207 4.55797740199899  10.225818101611 4.53954537314653  10.2258695652174 4.5210597826087  L 10.2258695652174 4.32676630434783  L 11.1521739130435 4.32676630434783  Z " fill-rule="nonzero" fill="#2b85e4" stroke="none" transform="matrix(1 0 0 1 848 67 )" />
  </g>
</svg>