<?xml version="1.0" encoding="utf-8"?>
<svg version="1.1" xmlns:xlink="http://www.w3.org/1999/xlink" width="5px" height="7px" xmlns="http://www.w3.org/2000/svg">
  <g transform="matrix(1 0 0 1 -852 -69 )">
    <path d="M 0.810267857142857 4.48889112903226  C 0.810144713977021 4.35252242051877  0.635328059383586 4.24199318084033  0.419642857142857 4.24191532258064  C 0.203906626740203 4.24191532258064  0.0290178571428574 4.35249015755187  0.0290178571428574 4.48889112903226  L 0.0290178571428574 6.64280241935484  C 0.0290178571428574 6.77920339083523  0.203906626740203 6.88977822580645  0.419642857142857 6.88977822580645  C 0.63537908754551 6.88977822580645  0.810267857142857 6.77920339083523  0.810267857142857 6.64280241935484  L 0.810267857142857 4.48889112903226  Z M 2.875 4.48889112903226  C 2.87487685683416 4.35252242051877  2.70006020224073 4.24199318084033  2.484375 4.24191532258064  C 2.26863876959734 4.24191532258064  2.09375 4.35249015755187  2.09375 4.48889112903226  L 2.09375 6.64280241935484  C 2.09375 6.77920339083523  2.26863876959734 6.88977822580645  2.484375 6.88977822580645  C 2.70011123040265 6.88977822580645  2.875 6.77920339083523  2.875 6.64280241935484  L 2.875 4.48889112903226  Z M 4.93973214285714 4.41733870967742  C 4.93960899969131 4.28097000116393  4.76479234509787 4.1704407614855  4.54910714285714 4.1703629032258  C 4.33337091245449 4.1703629032258  4.15848214285714 4.28093773819703  4.15848214285714 4.41733870967742  L 4.15848214285714 6.57125  C 4.15848214285714 6.70765097148039  4.33337091245449 6.81822580645161  4.54910714285714 6.81822580645161  C 4.76484337325979 6.81822580645161  4.93973214285714 6.70765097148039  4.93973214285714 6.57125  L 4.93973214285714 4.41733870967742  Z M 0 1.62298387096774  C 0.00159899568386278 2.47994229589567  1.09996371567522 3.1743922478902  2.45535714285714 3.17540322580645  C 3.81141344824525 3.17540322580645  4.91071428571429 2.48036140598732  4.91071428571429 1.62298387096774  C 4.91071428571429 0.765606335948163  3.81141344824525 0.0705645161290315  2.45535714285714 0.0705645161290315  C 1.09930083746903 0.0705645161290315  0 0.765606335948163  0 1.62298387096774  Z M 0.78125 1.62298387096774  C 0.782356958594168 1.03869842569354  1.53123220390305 0.565216012530507  2.45535714285714 0.564516129032257  C 3.37994098743994 0.564516129032257  4.12946428571428 1.03840827890894  4.12946428571428 1.62298387096774  C 4.12946428571428 2.20755946302654  3.37994098743994 2.68145161290323  2.45535714285714 2.68145161290323  C 1.53077329827434 2.68145161290323  0.781249999999999 2.20755946302654  0.78125 1.62298387096774  Z " fill-rule="nonzero" fill="#2b85e4" stroke="none" transform="matrix(1 0 0 1 852 69 )" />
  </g>
</svg>