<?xml version="1.0" encoding="utf-8"?>
<svg version="1.1" xmlns:xlink="http://www.w3.org/1999/xlink" width="11px" height="11px" xmlns="http://www.w3.org/2000/svg">
  <g transform="matrix(1 0 0 1 -970 -67 )">
    <path d="M 10.6071428571429 10.1983050847458  L 6.48371428571429 10.1983050847458  L 6.29514285714286 4.84671186440678  L 6.37921428571429 4.90040677966102  C 6.38235714285714 5.18901694915254  6.56935714285714 5.44183050847458  6.6935 5.60664406779661  C 6.80271428571429 5.7535593220339  6.95907142857143 5.93254237288136  7.11071428571429 6.08393220338983  L 8.239 7.21003389830509  C 8.51007142857143 7.47925423728814  8.86678571428571 7.63362711864407  9.218 7.63362711864407  C 9.50871428571429 7.63362711864407  9.77978571428572 7.52549152542373  9.97935714285714 7.32935593220339  C 10.1805 7.13172881355932  10.2857857142857 6.86996610169492  10.274 6.59254237288136  C 10.2606428571429 6.25918644067797  10.0854285714286 5.92806779661017  9.79314285714286 5.68271186440678  L 8.56978571428571 4.65132203389831  C 8.25157142857143 4.38433898305085  7.74635714285714 4.09945762711864  7.27885714285714 4.09945762711864  C 7.08242857142857 4.09945762711864  6.90721428571428 4.15016949152542  6.76185714285714 4.24637288135593  L 6.24485714285714 3.91823728813559  L 6.67307142857143 3.67437288135593  C 6.69978571428571 3.67661016949153  6.72571428571429 3.68183050847458  6.75321428571429 3.68183050847458  C 7.33385714285714 3.68183050847458  7.942 3.2224406779661  8.17692857142857 3.02481355932203  L 9.40028571428572 1.99416949152542  C 9.69178571428571 1.74806779661017  9.86778571428571 1.41694915254237  9.88114285714286 1.08433898305085  C 9.89401095047808 0.810482155195008  9.78743249043111 0.543691582031555  9.5865 0.34677966101695  C 9.14335714285714 -0.0879999999999994  8.33957142857143 -0.0261016949152537  7.84614285714286 0.466101694915255  L 6.71785714285714 1.59220338983051  C 6.55388205709577 1.75699435731101  6.39964598954731 1.93027652521049  6.25585714285714 2.11125423728814  C 6.16942857142857 2.21864406779661  6.09242857142857 2.33349152542373  6.02564285714286 2.45430508474576  C 5.96514285714286 2.56915254237288  5.80878571428572 2.87640677966102  5.96907142857143 3.20603389830508  L 5.52121428571429 3.46108474576271  L 4.78971428571429 2.99871186440678  C 4.884 2.42745762711864  4.28135714285714 1.82264406779661  4.04957142857143 1.59145762711864  L 2.92128571428571 0.466101694915254  C 2.42785714285714 -0.0261016949152543  1.62407142857143 -0.088  1.18092857142857 0.346779661016949  C 0.980198909311647 0.54351073052064  0.873636542244135 0.809991302051093  0.886285714285714 1.08359322033898  C 0.900428571428571 1.41620338983051  1.07485714285714 1.74732203389831  1.36635714285714 1.99342372881356  L 2.59128571428571 3.02406779661017  C 3.11378571428571 3.46406779661017  3.553 3.67735593220339  3.93642857142857 3.67735593220339  C 4.07314285714286 3.67735593220339  4.19964285714286 3.64752542372881  4.31514285714286 3.59383050847458  L 4.77557142857143 3.8846779661017  L 4.06764285714286 4.2888813559322  C 3.90590631234508 4.13230121502792  3.68423754440092 4.0445907588402  3.45321428571429 4.04576271186441  C 3.08785714285714 4.04576271186441  2.68871428571429 4.23816949152542  2.19842857142857 4.65132203389831  L 0.974285714285715 5.68196610169492  C 0.682 5.92806779661017  0.506785714285715 6.25993220338983  0.493428571428572 6.59179661016949  C 0.480857142857143 6.86549152542373  0.587714285714286 7.13172881355932  0.788071428571429 7.32861016949153  C 0.987642857142857 7.52474576271186  1.26264285714286 7.63437288135593  1.54942857142857 7.63362711864407  C 1.90142857142857 7.63362711864407  2.25814285714286 7.47925423728814  2.52842857142857 7.20928813559322  L 3.65671428571429 6.08318644067797  C 4.08964285714286 5.65213559322034  4.26642857142857 5.29864406779661  4.31042857142857 5.01972881355932  L 4.66557142857143 4.81837288135593  L 4.41414285714286 10.1990508474576  L 0.392857142857143 10.1990508474576  C 0.175888133995046 10.1990508474576  0 10.3659955170122  0 10.5719322033898  C 0 10.7778688897674  0.175888133995046 10.944813559322  0.392857142857143 10.944813559322  C 0.392857142857143 10.944813559322  0.392857142857143 10.944813559322  0.392857142857143 11  L 10.6071428571429 11  C 10.6071428571429 10.944813559322  10.6071428571429 10.944813559322  10.6071428571429 10.944813559322  C 10.824111866005 10.944813559322  11 10.7778688897674  11 10.5719322033898  C 11 10.3659955170122  10.824111866005 10.1990508474576  10.6071428571429 10.1990508474576  Z M 6.68171428571429 2.90325423728814  C 6.69139060070755 2.86297900097125  6.70727601462881 2.82427961971224  6.72885714285714 2.78840677966102  C 6.76028571428571 2.72874576271186  6.81371428571429 2.6504406779661  6.88678571428571 2.55722033898305  C 7.01150525074767 2.39993848571178  7.14528034049616 2.24931369207009  7.2875 2.10603389830509  L 8.41578571428571 0.980677966101695  C 8.60514285714286 0.792  8.87935714285714 0.725627118644068  9.02157142857143 0.865084745762712  C 9.07411205384729 0.915333799562972  9.10130929104957 0.984624887386095  9.09621428571429 1.05525423728814  C 9.09071428571429 1.18203389830509  9.00821428571429 1.32820338983051  8.87935714285715 1.43633898305085  L 7.65521428571429 2.46698305084746  C 7.32757142857143 2.74291525423729  6.95671428571429 2.93681355932203  6.754 2.93681355932203  C 6.74535714285715 2.93681355932203  6.71392857142857 2.93606779661017  6.70528571428572 2.9271186440678  L 6.68171428571429 2.90325423728814  Z M 3.11378571428571 2.46623728813559  L 3.11221428571429 2.46772881355932  L 1.88885714285714 1.43559322033898  C 1.76078571428571 1.32745762711864  1.67828571428571 1.18203389830508  1.672 1.05525423728814  C 1.66731677579565 0.984540573105991  1.69477600886643 0.915310727016532  1.74742857142857 0.865084745762712  C 1.79777482845889 0.814065471062797  1.86865853696447 0.785851507261779  1.94228571428571 0.787525423728814  C 2.07664285714286 0.787525423728814  2.23378571428571 0.862101694915254  2.35242857142857 0.980677966101695  L 3.48071428571429 2.10603389830508  C 4.00242857142857 2.62657627118644  4.04721428571429 2.85850847457627  3.99142857142857 2.91294915254237  C 3.97885714285714 2.92562711864407  3.97021428571429 2.93233898305085  3.93721428571429 2.93233898305085  C 3.87357142857143 2.93233898305085  3.62607142857143 2.89877966101695  3.11378571428571 2.46623728813559  Z M 3.08707142857143 5.57010169491526  L 3.08785714285714 5.56935593220339  L 1.95957142857143 6.69545762711864  C 1.771 6.88338983050847  1.496 6.95125423728814  1.35378571428571 6.8095593220339  C 1.30137008367263 6.75953998850197  1.27417494970521 6.69052596788598  1.27914285714286 6.62013559322034  C 1.28464285714286 6.49335593220339  1.36792857142857 6.34793220338983  1.49678571428571 6.23979661016949  L 2.72014285714286 5.20915254237288  C 3.17978571428571 4.82135593220339  3.39742857142857 4.79152542372881  3.454 4.79152542372881  C 3.47914285714286 4.79152542372881  3.49328571428571 4.79525423728814  3.51685714285714 4.81837288135593  C 3.58207142857143 4.88325423728814  3.49171428571429 5.16664406779661  3.08707142857143 5.57010169491526  Z M 8.04885714285714 5.20840677966102  L 9.27378571428572 6.23905084745763  C 9.40185714285714 6.34718644067797  9.48435714285714 6.49261016949152  9.49064285714286 6.61938983050848  C 9.49553223234734 6.68999071801046  9.46836549812146 6.75920409263056  9.416 6.8095593220339  C 9.273 6.95125423728814  8.998 6.88338983050847  8.80942857142857 6.69471186440678  L 7.68192857142857 5.56935593220339  C 7.55750754698603 5.44488665395041  7.44176241775707 5.31285562141589  7.33542857142857 5.17410169491525  C 7.28687016036579 5.11038772309058  7.24125559148701 5.04469847836977  7.19871428571429 4.97722033898305  L 7.29221428571428 4.84522033898305  C 7.48707142857143 4.8504406779661  7.80292857142857 5.00033898305085  8.04885714285714 5.20840677966102  Z M 5.20142857142857 10.1983050847458  L 5.45914285714286 4.66922033898305  L 5.48035714285714 4.64013559322034  L 5.48035714285714 4.6326779661017  L 5.50235714285714 4.66474576271187  L 5.69721428571429 10.1983050847458  L 5.20142857142857 10.1983050847458  Z " fill-rule="nonzero" fill="#2b85e4" stroke="none" transform="matrix(1 0 0 1 970 67 )" />
  </g>
</svg>