<?xml version="1.0" encoding="utf-8"?>
<svg version="1.1" xmlns:xlink="http://www.w3.org/1999/xlink" width="13px" height="11px" xmlns="http://www.w3.org/2000/svg">
  <g transform="matrix(1 0 0 1 -1092 -67 )">
    <path d="M 6.850390625 2.09765625  L 11.13759765625 2.09638671875  C 11.7076171875 2.09638671875  12.16845703125 2.56484375  12.16845703125 3.14248046875  L 12.16845703125 9.415234375  C 12.16845703125 9.9916015625  11.7076171875 10.46005859375  11.13759765625 10.46005859375  L 1.8509765625 10.46005859375  C 1.57548828125 10.4587890625  1.3126953125 10.3470703125  1.11845703125 10.1515625  C 0.92548828125 9.9560546875  0.817578125 9.69072265625  0.81884765625 9.415234375  L 0.81884765625 1.574609375  C 0.81884765625 0.99697265625  1.28095703125 0.528515625  1.84970703125 0.528515625  L 5.4615234375 0.528515625  C 6.03154296875 0.528515625  6.1267578125 0.88525390625  6.4923828125 1.574609375  L 6.850390625 2.09765625  Z M 6.49365234375 7.729296875  C 6.61298828125 7.72802734375  6.7259765625 7.67978515625  6.80849609375 7.5947265625  L 8.35859375 5.90751953125  C 8.5033203125 5.75771484375  8.5033203125 5.5203125  8.35859375 5.37177734375  C 8.29384765625 5.29814453125  8.201171875 5.25751953125  8.1046875 5.25751953125  C 8.00693359375 5.25751953125  7.9142578125 5.2994140625  7.85078125 5.37177734375  L 6.8580078125 6.469921875  L 6.8580078125 3.5373046875  C 6.8580078125 3.33291015625  6.687890625 3.15390625  6.494921875 3.15390625  C 6.30068359375 3.15390625  6.1318359375 3.30751953125  6.1318359375 3.5373046875  L 6.1318359375 6.469921875  L 5.0908203125 5.37177734375  C 5.02607421875 5.29814453125  4.9333984375 5.25625  4.83564453125 5.25625  C 4.737890625 5.25625  4.64521484375 5.29814453125  4.58046875 5.37177734375  C 4.4357421875 5.52158203125  4.4357421875 5.758984375  4.58046875 5.90751953125  L 6.17880859375 7.5947265625  C 6.261328125 7.67978515625  6.37431640625 7.729296875  6.49365234375 7.729296875  Z M 4.07138671875 8.4884765625  C 3.87841796875 8.4884765625  3.70830078125 8.66748046875  3.7095703125 8.871875  C 3.7095703125 9.07626953125  3.87841796875 9.2552734375  4.07265625 9.2552734375  L 8.9171875 9.2552734375  C 9.11142578125 9.2552734375  9.2802734375 9.07626953125  9.2802734375 8.871875  C 9.2802734375 8.66748046875  9.11015625 8.4884765625  8.9171875 8.4884765625  L 4.07138671875 8.4884765625  Z " fill-rule="nonzero" fill="#2b85e4" stroke="none" transform="matrix(1 0 0 1 1092 67 )" />
  </g>
</svg>