<?xml version="1.0" encoding="utf-8"?>
<svg version="1.1" xmlns:xlink="http://www.w3.org/1999/xlink" width="4px" height="2px" xmlns="http://www.w3.org/2000/svg">
  <g transform="matrix(1 0 0 1 -73 -203 )">
    <path d="M 0.494333333333332 1.14175  C 0.41 1.1015  0.325666666666666 1.0555  0.249 1.0095  L 2.44933333333333 0.23325  C 2.526 0.273499999999999  2.60266666666667 0.313750000000001  2.687 0.35975  C 2.77133333333333 0.40575  2.86333333333333 0.451750000000001  2.95533333333333 0.497750000000001  C 3.04733333333333 0.54375  3.147 0.58975  3.24666666666667 0.6415  C 3.34633333333333 0.6875  3.446 0.739249999999999  3.55333333333333 0.78525  L 1.40666666666667 1.60175  L 1.08466666666667 1.4465  C 0.977333333333332 1.39475  0.877666666666666 1.343  0.777999999999999 1.29125  C 0.678333333333332 1.2395  0.586333333333332 1.1935  0.494333333333332 1.14175  Z " fill-rule="nonzero" fill="#0d577c" stroke="none" transform="matrix(1 0 0 1 73 203 )" />
  </g>
</svg>