<?xml version="1.0" encoding="utf-8"?>
<svg version="1.1" xmlns:xlink="http://www.w3.org/1999/xlink" width="9px" height="5px" xmlns="http://www.w3.org/2000/svg">
  <g transform="matrix(1 0 0 1 -67 -93 )">
    <path d="M 1.039306640625 4.14794922304687  C 1.039306640625 4.4775390796875  1.23706054107422 4.69726563574219  1.53369141205078 4.69726562070313  L 7.960693359375 4.69726562070313  C 8.25732421681641 4.69726562070313  8.45507813080078 4.47753906464844  8.45507813080078 4.14794922304687  C 8.45507813080078 3.81835938144531  8.25732423035156 3.59863281035156  7.960693359375 3.59863281035156  L 1.53369141205078 3.59863281035156  C 1.23706055460938 3.59863281035156  1.039306640625 3.81835936640625  1.039306640625 4.14794922304687  Z M 4.99438477142578 1.40136718964844  C 4.99438478496094 1.73095704628906  5.192138671875 1.95068360234375  5.48876952931641 1.95068358730469  L 7.960693359375 1.95068358730469  C 8.25732421681641 1.95068358730469  8.45507813080078 1.73095703125  8.45507813080078 1.40136718964844  C 8.45507813080078 1.07177734804688  8.25732423035156 0.852050776953125  7.960693359375 0.852050776953125  L 5.48876952931641 0.852050776953125  C 5.192138671875 0.852050776953125  4.99438475789063 1.07177733300781  4.99438477142578 1.40136718964844  Z " fill-rule="nonzero" fill="#bae7ff" stroke="none" transform="matrix(1 0 0 1 67 93 )" />
  </g>
</svg>