<?xml version="1.0" encoding="utf-8"?>
<svg version="1.1" xmlns:xlink="http://www.w3.org/1999/xlink" width="2px" height="2px" xmlns="http://www.w3.org/2000/svg">
  <g transform="matrix(1 0 0 1 -74 -205 )">
    <path d="M 0.135499999999999 1.538  C 0.106749999999999 1.515  0.0837499999999984 1.492  0.0549999999999997 1.469  L 1.65925 0.380333333333334  C 1.68225 0.403333333333334  1.70525 0.418666666666667  1.734 0.441666666666668  C 1.757 0.464666666666667  1.78 0.48  1.80875 0.503000000000001  C 1.83175 0.526  1.85475 0.541333333333334  1.8835 0.564333333333335  C 1.9065 0.587333333333333  1.93525 0.602666666666667  1.95825 0.618  L 0.365499999999997 1.722  C 0.336749999999998 1.699  0.313749999999998 1.68366666666667  0.284999999999997 1.66066666666667  C 0.261999999999997 1.63766666666667  0.233249999999997 1.62233333333333  0.210249999999998 1.59933333333333  C 0.187249999999998 1.57633333333333  0.158499999999998 1.561  0.135499999999999 1.538  Z " fill-rule="nonzero" fill="#0d577c" stroke="none" transform="matrix(1 0 0 1 74 205 )" />
  </g>
</svg>