<?xml version="1.0" encoding="utf-8"?>
<svg version="1.1" xmlns:xlink="http://www.w3.org/1999/xlink" width="3px" height="2px" xmlns="http://www.w3.org/2000/svg">
  <g transform="matrix(1 0 0 1 -72 -202 )">
    <path d="M 0.2859 1.176  C 0.244499999999999 1.153  0.2238 1.13575  0.223800000000001 1.13575  L 2.2386 0.388250000000001  C 2.2455 0.394  2.2593 0.405500000000001  2.2938 0.422750000000002  C 2.3214 0.44  2.3628 0.468750000000001  2.4111 0.497500000000001  C 2.4594 0.52625  2.5215 0.5665  2.5836 0.60675  C 2.6526 0.646999999999999  2.7285 0.693  2.8113 0.739  L 0.831 1.51525  C 0.7413 1.4635  0.6654 1.41175  0.5964 1.3715  C 0.5274 1.3255  0.4653 1.291  0.410099999999999 1.2565  C 0.3549 1.222  0.313499999999999 1.199  0.2859 1.176  Z " fill-rule="nonzero" fill="#0d577c" stroke="none" transform="matrix(1 0 0 1 72 202 )" />
  </g>
</svg>