<?xml version="1.0" encoding="utf-8"?>
<svg version="1.1" xmlns:xlink="http://www.w3.org/1999/xlink" width="19px" height="19px" xmlns="http://www.w3.org/2000/svg">
  <g transform="matrix(1 0 0 1 -1455 -272 )">
    <path d="M 5.06666666666667 6.72307692307692  L 9.24666666666667 11.5461538461538  C 9.37333333333333 11.6923076923077  9.75333333333333 11.6923076923077  9.88 11.5461538461538  L 13.9333333333333 6.86923076923077  C 14.06 6.72307692307692  14.06 6.57692307692308  14.06 6.57692307692308  C 14.06 6.28461538461538  13.9333333333333 5.99230769230769  13.68 5.99230769230769  L 11.4 5.99230769230769  L 11.4 0.730769230769231  C 11.4 0.438461538461538  11.1466666666667 0.292307692307693  11.02 0.292307692307693  L 7.98 0.292307692307693  C 7.72666666666667 0.292307692307693  7.6 0.438461538461539  7.6 0.730769230769231  L 7.6 5.84615384615385  L 5.44666666666667 5.84615384615385  C 5.32 5.84615384615385  5.19333333333333 5.84615384615385  5.06666666666667 5.99230769230769  C 4.94 6.13846153846154  4.94 6.57692307692308  5.06666666666667 6.72307692307692  Z M 6.46 6.86923076923077  L 7.98 6.86923076923077  C 8.23333333333333 6.86923076923077  8.48666666666667 6.57692307692308  8.48666666666667 6.43076923076923  L 8.48666666666667 1.31538461538462  L 10.64 1.31538461538462  L 10.64 6.43076923076923  C 10.64 6.72307692307692  10.8933333333333 6.86923076923077  11.02 6.86923076923077  L 12.54 6.86923076923077  L 9.5 10.3769230769231  L 6.46 6.86923076923077  Z M 19 10.0846153846154  C 19 10.2307692307692  19 10.0846153846154  19 10.0846153846154  C 19 9.93846153846154  19 9.79230769230769  18.8733333333333 9.5  L 16.4666666666667 4.82307692307692  C 16.34 4.38461538461539  15.8333333333333 4.23846153846154  15.4533333333333 4.53076923076923  C 15.0733333333333 4.82307692307692  14.9466666666667 5.26153846153846  15.2 5.7  L 17.1 9.35384615384615  L 13.9333333333333 9.35384615384615  C 13.5533333333333 9.35384615384615  13.3 9.64615384615385  13.1733333333333 10.0846153846154  C 13.0466666666667 11.1076923076923  12.54 12.1307692307692  11.9066666666667 12.7153846153846  C 11.2733333333333 13.3  10.3866666666667 13.7384615384615  9.5 13.7384615384615  C 8.61333333333333 13.7384615384615  7.72666666666667 13.3  7.09333333333333 12.7153846153846  C 6.46 11.9846153846154  5.95333333333333 11.1076923076923  5.82666666666667 10.0846153846154  C 5.82666666666667 9.64615384615385  5.44666666666667 9.35384615384615  5.06666666666667 9.35384615384615  L 1.9 9.35384615384615  L 3.8 5.7  C 4.05333333333333 5.26153846153846  3.92666666666667 4.82307692307692  3.54666666666667 4.53076923076923  C 3.16666666666667 4.23846153846154  2.66 4.38461538461539  2.53333333333333 4.82307692307692  L 0.126666666666667 9.64615384615385  C 0 9.79230769230769  0 9.93846153846154  0 10.0846153846154  L 0 17.8307692307692  C 0 18.2692307692308  0.38 18.7076923076923  0.76 18.7076923076923  L 18.24 18.7076923076923  C 18.62 18.7076923076923  19 18.2692307692308  19 17.8307692307692  L 19 10.0846153846154  Z M 17.48 11.1076923076923  L 17.48 17  L 1.52 17  L 1.52 11.1076923076923  L 4.43333333333333 11.1076923076923  C 4.68666666666667 12.2769230769231  5.32 13.3  6.08 14.0307692307692  C 6.96666666666667 14.9076923076923  8.23333333333333 15.4923076923077  9.5 15.4923076923077  C 10.7666666666667 15.4923076923077  12.0333333333333 14.9076923076923  12.92 14.0307692307692  C 13.68 13.3  14.3133333333333 12.2769230769231  14.5666666666667 11.1076923076923  L 17.48 11.1076923076923  Z " fill-rule="nonzero" fill="#2b85e4" stroke="none" transform="matrix(1 0 0 1 1455 272 )" />
  </g>
</svg>