<?xml version="1.0" encoding="utf-8"?>
<svg version="1.1" xmlns:xlink="http://www.w3.org/1999/xlink" width="11px" height="16px" xmlns="http://www.w3.org/2000/svg">
  <g transform="matrix(1 0 0 1 -1501 -454 )">
    <path d="M 7.56032280078125 4.43940366322419  C 7.55941255851636 4.43940732623388  7.55850230980261 4.43940915774429  7.55759206016739 4.43940915774429  C 7.1828210873479 4.43940915774429  6.87900918614395 4.13559725669796  6.87900918614395 3.7608262840729  C 6.87900918614395 3.75991603443825  6.87901101765436 3.75900578572478  6.87901468066406 3.75809554346046  C 6.87901468066406 2.43510884619419  5.80652205683935 1.36261622292589  4.48353535888672 1.36261622292589  C 3.16054866093408 1.36261622292589  2.08805603710937 2.43510884619419  2.08805603710937 3.75809554346046  C 2.08805603710937 4.13437162335746  1.78302400538518 4.43940365492341  1.40674792529297 4.43940365492341  C 1.03047184520075 4.43940365492341  0.725439813476561 4.13437162335746  0.725439813476561 3.75809554346046  C 0.725439813476561 1.68255668640018  2.40799650074965 0  4.48353535888672 0  C 6.55907421702378 0  8.24163090429687 1.68255668640018  8.24163090429687 3.75809554346046  C 8.24163090429687 4.13437163537463  7.93659887628907 4.43940366322419  7.56032280078125 4.43940366322419  Z M 9.59607143945312 15.476595070584  C 9.21935495614224 15.475094197841  8.91476032954102 15.169281194228  8.91476331933594 14.7925617213295  L 8.93929041796875 5.17794165209885  C 8.93929041796875 4.80166557678624  9.24432244597656 4.49663354893668  9.62059852148438 4.49663354893668  C 9.99625415905295 4.49812722554597  10.3004129558378 4.80228601476156  10.3019066416016 5.17794165209885  L 10.2773795429688 14.7925617213295  C 10.2773831766594 14.7934701321586  10.2773849935102 14.7943785493471  10.2773849935102 14.7952869674437  C 10.2773849935102 15.1715630427563  9.97235296550238 15.4765950706058  9.59607688999456 15.4765950706058  Z " fill-rule="nonzero" fill="#ff517f" stroke="none" transform="matrix(1 0 0 1 1501 454 )" />
  </g>
</svg>