<?xml version="1.0" encoding="utf-8"?>
<svg version="1.1" xmlns:xlink="http://www.w3.org/1999/xlink" width="12px" height="17px" xmlns="http://www.w3.org/2000/svg">
  <g transform="matrix(1 0 0 1 -66 -194 )">
    <path d="M 0.069 1.2325  L 5.7477 0.6375  C 5.7546 0.6375  6.1134 0.7225  6.6585 0.8585  C 7.2036 0.9945  7.9419 1.173  8.694 1.3515  C 9.453 1.5385  10.2327 1.7255  10.8468 1.8785  C 11.4609 2.0315  11.9094 2.1335  11.9922 2.159  L 11.8059 13.3705  L 5.7546 16.8215  C 5.6856 16.7535  5.2923 16.3795  4.7472 15.8695  C 4.209 15.3595  3.519 14.705  2.8428 14.059  C 2.1735 13.4215  1.518 12.7925  1.035 12.3165  C 0.552 11.849  0.2346 11.526  0.2346 11.509  L 0.069 1.2325  Z M 5.7339 16.048  L 11.3229 12.8775  L 11.4816 2.6095  L 5.7546 1.258  L 0.483 1.717  L 0.6072 11.101  L 5.7339 16.048  Z " fill-rule="nonzero" fill="#ffca28" stroke="none" transform="matrix(1 0 0 1 66 194 )" />
  </g>
</svg>