<?xml version="1.0" encoding="utf-8"?>
<svg version="1.1" xmlns:xlink="http://www.w3.org/1999/xlink" width="21px" height="21px" xmlns="http://www.w3.org/2000/svg">
  <g transform="matrix(1 0 0 1 -293 -319 )">
    <path d="M 21 18.6669  C 21 19.95  19.95 21  18.6669 21  L 2.3331 21  C 1.05 21  0 19.95  0 18.6669  L 0 2.3331  C 0 1.05  1.05 0  2.3331 0  L 18.6669 0  C 19.95 0  21 1.05  21 2.3331  L 21 18.6669  Z M 8.7171 15.83925  L 8.7171 11.881275  L 10.091025 11.881275  C 11.198775 11.9175  12.121725 11.613525  12.8604 10.9683  C 13.598025 10.3236  13.9671 9.4815  13.9671 8.44305  C 13.9671 7.4172  13.6521 6.629175  13.020525 6.0774  C 12.39 5.52615  11.5017 5.25  10.35825 5.25  L 7.35 5.25  L 7.35 15.83925  L 8.7171 15.83925  Z M 8.7171 10.677975  L 8.7171 6.4533  L 10.112025 6.4533  C 11.724825 6.4533  12.53175 7.13475  12.53175 8.49765  C 12.53175 9.19905  12.31545 9.738225  11.882325 10.1136  C 11.449725 10.490025  10.816575 10.677975  9.981825 10.677975  L 8.7171 10.677975  Z " fill-rule="nonzero" fill="#f34e19" stroke="none" transform="matrix(1 0 0 1 293 319 )" />
  </g>
</svg>