<?xml version="1.0" encoding="utf-8"?>
<svg version="1.1" xmlns:xlink="http://www.w3.org/1999/xlink" width="19px" height="19px" xmlns="http://www.w3.org/2000/svg">
  <g transform="matrix(1 0 0 1 -294 -411 )">
    <path d="M 16.1757095631188 0  L 16.1767128712871 0  C 17.7354171850681 0  18.9989966918317 1.26357950676361  18.9989966918317 2.82228382054455  C 18.9989966918317 2.82228382054455  18.9989966918317 2.82228382054455  19 2.82228382054455  L 19 15.991603960396  C 18.9984427322702 17.5499164527349  17.7350254620887 18.8128845947498  16.1767128712871 18.8128844962871  L 3.00839603960396 18.8128844962871  C 1.44969172582302 18.8128844962871  0.186112219059406 17.5493049895235  0.186112219059406 15.9906006757426  L 0.186112219059406 2.82328712871287  C 0.186112219059406 1.26458281493193  1.44969172582302 0.0010033081683167  3.00839603960396 0  L 16.1757095631188 0  Z M 16.1757095631188 1.41164356435644  L 16.1767128712871 1.41164356435644  L 3.00839603960396 1.41164356435644  C 2.22883168316832 1.41164356435644  1.59675247524752 2.04372277227723  1.59675247524752 2.82228382054455  L 1.59675247524752 15.991603960396  C 1.59675247524752 16.7701650086634  2.22883168316832 17.4022442165842  3.00839603960396 17.4022442165842  L 16.1757095631188 17.4022442165842  C 16.9552739195545 17.4022442165842  17.5863498193069 16.7701650086634  17.5863498428218 15.991603960396  L 17.5863498428218 2.82228382054455  C 17.5863498428218 2.04271946410891  16.954270634901 1.41164356435644  16.1757095631188 1.41164356435644  Z " fill-rule="nonzero" fill="#f54d52" stroke="none" transform="matrix(1 0 0 1 294 411 )" />
  </g>
</svg>