<?xml version="1.0" encoding="utf-8"?>
<svg version="1.1" xmlns:xlink="http://www.w3.org/1999/xlink" width="21px" height="21px" xmlns="http://www.w3.org/2000/svg">
  <g transform="matrix(1 0 0 1 -293 -275 )">
    <path d="M 20.8973333333333 2.33041666666667  C 20.90025 1.09841666666667  19.896625 0.0980000000000004  18.6649166666667 0  L 5.264 0  C 4.03229166666667 0.0980000000000004  3.03158333333333 1.09870833333333  3.03158333333333 2.33041666666667  L 3.03158333333333 4.563125  L 1.54320833333333 4.563125  C 0.721875 4.563125  0.0545416666666668 5.23016666666667  0.0545416666666668 6.0515  L 0.0545416666666668 14.9872916666667  C 0.0545416666666668 15.8083333333333  0.721875 16.475375  1.54320833333333 16.475375  L 3.03158333333333 16.475375  L 3.03158333333333 18.7077916666667  C 3.03158333333333 19.9397916666667  4.03258333333333 20.9405  5.264 21  L 18.6649166666667 21  C 19.896625 20.9405  20.8973333333333 19.9395  20.8973333333333 18.7080833333333  L 20.8973333333333 2.33041666666667  Z M 3.85408333333333 12.6994583333333  L 2.69091666666667 8.80716666666667  L 3.86575 8.80716666666667  L 4.62525 11.5365833333333  L 4.7915 11.5365833333333  L 5.642 8.80716666666667  L 6.64679166666667 8.80716666666667  L 7.49320833333334 11.540375  L 7.67520833333334 11.540375  L 8.43879166666667 8.80716666666667  L 9.61741666666667 8.80716666666667  L 8.43879166666667 12.7073333333333  L 6.76958333333333 12.7073333333333  L 6.19995833333333 10.658375  L 6.04158333333334 10.658375  L 5.47983333333334 12.6994583333333  L 3.85408333333333 12.6994583333333  Z M 19 2.33829166666667  L 19 18.7104166666667  C 19.4086666666667 19.121375  19.075875 19.4541666666667  18.6649166666667 19.4544583333333  L 5.264 19.4544583333333  C 4.85304166666667 19.4541666666667  4.52025 19.1210833333333  4.51995833333333 18.7104166666667  L 4.51995833333333 16.478  L 10.4760833333333 16.478  C 11.297125 16.478  11.9644583333333 15.8106666666667  11.9644583333333 14.989625  L 11.9644583333333 13.50125  L 17.17625 13.50125  C 17.5872083333333 13.5009583333333  17.9202916666667 13.167875  17.9205833333333 12.7569166666667  C 17.92 12.3459583333333  17.5872083333333 12.0131666666667  17.17625 12.012875  L 11.9644583333333 12.012875  L 11.9644583333333 10.5245  L 17.17625 10.5245  C 17.5872083333333 10.5242083333333  17.9202916666667 10.191125  17.9205833333333 9.78016666666667  C 17.9202916666667 9.36920833333334  17.5872083333333 9.03641666666667  17.17625 9.03583333333333  L 11.9644583333333 9.03583333333333  L 11.9644583333333 7.54745833333334  L 17.17625 7.54745833333334  C 17.5872083333333 7.54716666666667  17.9202916666667 7.21408333333334  17.9205833333333 6.80341666666667  C 17.9202916666667 6.39245833333334  17.5872083333333 6.059375  17.17625 6.05908333333334  L 11.9644583333333 6.05908333333334  C 11.9644583333333 5.23775  11.2968333333333 4.57070833333334  10.4760833333333 4.57070833333334  L 4.51995833333333 4.57070833333334  L 4.51995833333333 2.33829166666667  C 4.52025 1.92733333333334  4.85333333333333 1.59454166666667  5.264 2  L 18.6649166666667 2  C 19.0755833333333 1.59425  19.4086666666667 1.92733333333334  19 2.33829166666667  Z " fill-rule="nonzero" fill="#54a0ff" stroke="none" transform="matrix(1 0 0 1 293 275 )" />
  </g>
</svg>