<?xml version="1.0" encoding="utf-8"?>
<svg version="1.1" xmlns:xlink="http://www.w3.org/1999/xlink" width="14px" height="8px" xmlns="http://www.w3.org/2000/svg">
  <g transform="matrix(1 0 0 1 -66 -298 )">
    <path d="M 13.912234375 7.29616393442623  C 13.989734375 7.21481967213115  13.990140625 7.08293442622951  13.91246875 7.00131147540984  L 13.615203125 6.68924590163935  C 13.601538313485 6.67006677212231  13.5870168940068 6.65157618459831  13.5716875 6.63383606557377  L 13.572703125 6.63240983606558  L 11.21615625 4.15952459016393  L 11.21615625 2.22550819672131  C 11.21615625 2.19826229508197  11.214203125 2.17188524590164  11.210875 2.14580327868852  L 11.210875 1.68985245901639  C 11.210703125 1.57501639344262  11.122625 1.48172131147541  11.0131875 1.48172131147541  L 10.1505 1.48172131147541  C 10.041296875 1.48172131147541  9.952375 1.57501639344262  9.952375 1.68959016393443  L 9.952375 2.8335737704918  L 7.468140625 0.227344262295082  C 7.367046875 0.114836065573771  7.229484375 0.0383442622950824  7.074890625 0.020836065573771  C 7.074453125 0.020836065573771  7.07378125 0.0205573770491809  7.07290625 0.0205573770491809  C 7.063875 0.0194754098360661  7.053984375 0.0189344262295087  7.04446875 0.0180491803278693  C 7.042765625 0.0180491803278693  7.04121875 0.0180491803278693  7.0394375 0.0177704918032792  C 7.028625 0.0175901639344268  7.017625 0.0168688524590168  7.00615625 0.0168688524590168  C 6.8269375 0.0168688524590168  6.66578125 0.0949836065573775  6.550859375 0.220360655737705  L 4.169703125 2.71891803278689  C 4.1694375 2.71891803278689  4.16903125 2.71945901639344  4.168515625 2.71962295081967  L 0.087375 7.00131147540984  C 0.009859375 7.08293442622951  0.0102656249999999 7.21481967213115  0.087796875 7.29614754098361  L 0.69903125 7.93718032786885  C 0.736174822134462 7.97631097606591  0.786644130645299 7.99830787454518  0.83928125 7.99830787454518  C 0.891918369354701 7.99830787454518  0.942387677865538 7.97631097606591  0.97953125 7.93718032786885  L 1.32696875 7.57265573770492  C 1.332671875 7.56729508196721  1.33890625 7.56203278688525  1.34434375 7.55622950819672  L 7.006140625 1.61711475409836  L 7.0220625 1.63327868852459  L 8.909359375 3.61383606557377  C 8.917703125 3.62867213114754  8.927265625 3.64298360655738  8.939515625 3.65549180327869  L 13.02075 7.93718032786885  C 13.0984375 8.01895081967213  13.223546875 8.0184262295082  13.30125 7.93718032786885  L 13.912234375 7.29616393442623  Z " fill-rule="nonzero" fill="#00a0e9" stroke="none" transform="matrix(1 0 0 1 66 298 )" />
  </g>
</svg>