<?xml version="1.0" encoding="utf-8"?>
<svg version="1.1" xmlns:xlink="http://www.w3.org/1999/xlink" width="19px" height="19px" xmlns="http://www.w3.org/2000/svg">
  <g transform="matrix(1 0 0 1 -1421 -272 )">
    <path d="M 10.3031529017857 10.293212890625  C 10.8359375 9.76042829241072  11.5436662946429 9.46620396205357  12.2991071428571 9.46620396205357  C 13.0525599888393 9.46620396205357  13.7622767857143 9.76042829241072  14.2950613839286 10.293212890625  C 14.8278459821429 10.8259974888393  15.1220703125 11.5357142857143  15.1220703125 12.2891671316964  C 15.1220703125 13.0426199776786  14.8278459821429 13.7523367745536  14.2950613839286 14.2851213727679  C 13.7622767857143 14.8179059709821  13.0525599888393 15.1121303013393  12.2991071428571 15.1121303013393  C 11.545654296875 15.1121303013393  10.8359375 14.8179059709821  10.3031529017857 14.2851213727679  C 9.77036830357143 13.7523367745536  9.47614397321428 13.0426199776786  9.47614397321428 12.2891671316964  C 9.47614397321428 11.5357142857143  9.77036830357143 10.8259974888393  10.3031529017857 10.293212890625  Z M 15.8775111607143 12.2891671316964  C 15.8775111607143 10.3130929129464  14.2751813616071 8.71076311383928  12.2991071428571 8.71076311383928  C 10.3230329241071 8.71076311383928  8.720703125 10.3130929129464  8.720703125 12.2891671316964  C 8.720703125 14.2652413504464  10.3230329241071 15.8675711495536  12.2991071428571 15.8675711495536  C 14.2751813616071 15.8675711495536  15.8775111607143 14.2652413504464  15.8775111607143 12.2891671316964  Z M 14.287109375 5.80231584821429  C 14.287109375 6.04485212053571  14.0902971540179 6.23967633928571  13.8497488839286 6.23967633928571  L 3.59165736607143 6.23967633928571  C 3.34912109375 6.23967633928571  3.154296875 6.04485212053571  3.154296875 5.80231584821429  C 3.154296875 5.55977957589286  3.34912109375 5.36495535714286  3.59165736607143 5.36495535714286  L 13.8497488839286 5.36495535714286  C 14.09228515625 5.36495535714286  14.287109375 5.55977957589286  14.287109375 5.80231584821429  Z M 7.92550223214286 9.7783203125  C 7.92550223214286 10.0208565848214  7.72869001116072 10.2156808035714  7.48814174107143 10.2156808035714  L 3.59165736607143 10.2156808035714  C 3.34912109375 10.2156808035714  3.154296875 10.0208565848214  3.154296875 9.7783203125  C 3.154296875 9.53578404017857  3.34912109375 9.34095982142857  3.59165736607143 9.34095982142857  L 7.48814174107143 9.34095982142857  C 7.73067801339286 9.34095982142857  7.92550223214286 9.53578404017857  7.92550223214286 9.7783203125  Z M 7.92550223214286 13.7543247767857  C 7.92550223214286 13.9968610491071  7.72869001116072 14.1916852678571  7.48814174107143 14.1916852678571  L 3.59165736607143 14.1916852678571  C 3.34912109375 14.1916852678571  3.154296875 13.9968610491071  3.154296875 13.7543247767857  C 3.154296875 13.5117885044643  3.34912109375 13.3169642857143  3.59165736607143 13.3169642857143  L 7.48814174107143 13.3169642857143  C 7.73067801339286 13.3169642857143  7.92550223214286 13.5117885044643  7.92550223214286 13.7543247767857  Z M 17.7144252232143 17.7203892299107  C 17.54345703125 17.891357421875  17.2671247209821 17.891357421875  17.0961565290179 17.7203892299107  L 14.3407854352679 14.9650181361607  C 14.1698172433036 14.7940499441964  14.1698172433036 14.5177176339286  14.3407854352679 14.3467494419643  C 14.5117536272321 14.17578125  14.7880859375 14.17578125  14.9590541294643 14.3467494419643  L 17.7144252232143 17.1021205357143  C 17.8853934151786 17.2730887276786  17.8853934151786 17.5494210379464  17.7144252232143 17.7203892299107  Z M 18.4082380022321 2.63542829241071  C 18.40625 1.50823102678571  17.4917689732143 0.59375  16.3645717075893 0.59375  L 2.63542829241071 0.59375  C 1.50823102678571 0.59375  0.59375 1.50823102678571  0.59375 2.63542829241071  L 0.59375 16.3665597098214  C 0.59375 17.4917689732143  1.50823102678571 18.40625  2.63542829241071 18.40625  L 12.0048828125 18.40625  C 12.2474190848214 18.40625  12.4422433035714 18.21142578125  12.4422433035714 17.9688895089286  C 12.4422433035714 17.7263532366071  12.2474190848214 17.5315290178571  12.0048828125 17.5315290178571  L 2.63542829241071 17.5315290178571  C 1.99131556919643 17.5315290178571  1.46847098214286 17.0086844308036  1.46847098214286 16.3645717075893  L 1.46847098214286 2.63542829241071  C 1.46847098214286 1.99131556919643  1.99131556919643 1.46847098214286  2.63542829241071 1.46847098214286  L 16.3665597098214 1.46847098214286  C 17.0106724330357 1.46847098214286  17.5335170200893 1.99131556919643  17.5335170200893 2.63542829241071  L 17.5335170200893 12.0048828125  C 17.5335170200893 12.2474190848214  17.7283412388393 12.4422433035714  17.9708775111607 12.4422433035714  C 18.2134137834821 12.4422433035714  18.4082380022321 12.2474190848214  18.4082380022321 12.0048828125  L 18.4082380022321 2.63542829241071  Z " fill-rule="nonzero" fill="#2b85e4" stroke="none" transform="matrix(1 0 0 1 1421 272 )" />
  </g>
</svg>