<?xml version="1.0" encoding="utf-8"?>
<svg version="1.1" xmlns:xlink="http://www.w3.org/1999/xlink" width="10px" height="13px" xmlns="http://www.w3.org/2000/svg">
  <g transform="matrix(1 0 0 1 -1499 -458 )">
    <path d="M 8.35849528320312 13  L 8.35849528320312 12.9863738359375  L 4.64127822167969 12.9863738359375  C 2.47712036838707 12.9833685727304  0.723894779103065 11.2289237662171  0.722393978515625 9.06476434667969  L 0.744195831054687 1.17794164648438  C 0.745689516818418 0.802286008952197  1.0498483136033 0.49812721957881  1.42550395117187 0.49663354296875  C 1.80178002667969 0.49663354296875  2.1068120546875 0.801665570976557  2.1068120546875 1.17794164648438  L 2.08501020214844 9.08111574023437  C 2.08651224033356 10.4922809537358  3.23011300818802 11.6358817290173  4.64127822167969 11.6373837763672  L 8.35849528320312 11.6373837763672  C 8.73477136329534 11.6373837763672  9.03980339501953 11.9424158080914  9.03980339501953 12.3186918881836  C 9.03980339501953 12.6949679682758  8.73477136329534 13  8.35849528320312 13  Z " fill-rule="nonzero" fill="#ff517f" stroke="none" transform="matrix(1 0 0 1 1499 458 )" />
  </g>
</svg>