<?xml version="1.0" encoding="utf-8"?>
<svg version="1.1" xmlns:xlink="http://www.w3.org/1999/xlink" width="14px" height="2px" xmlns="http://www.w3.org/2000/svg">
  <g transform="matrix(1 0 0 1 -66 -194 )">
    <path d="M 5.83100000000001 0.575  C 5.83800000000001 0.582666666666667  5.83800000000001 0.582666666666667  5.845 0.582666666666667  C 5.845 0.582666666666667  5.852 0.582666666666667  5.845 0.582666666666667  L 5.908 0.582666666666667  C 5.915 0.582666666666667  5.922 0.582666666666667  5.929 0.590333333333333  C 5.936 0.590333333333333  5.943 0.590333333333333  5.95 0.598  C 5.957 0.598  5.964 0.598  5.971 0.605666666666667  C 5.978 0.605666666666667  5.985 0.605666666666667  5.999 0.613333333333333  C 6.006 0.613333333333333  6.013 0.613333333333333  6.02 0.621  C 6.034 0.621  6.041 0.628666666666667  6.055 0.628666666666667  L 6.062 0.628666666666667  C 6.076 0.628666666666667  6.09 0.636333333333333  6.104 0.636333333333333  C 6.111 0.636333333333333  6.125 0.636333333333333  6.132 0.644  C 6.146 0.644  6.16 0.651666666666667  6.174 0.651666666666667  C 6.181 0.651666666666667  6.188 0.651666666666667  6.195 0.659333333333333  C 6.209 0.659333333333333  6.223 0.667  6.237 0.667  C 6.251 0.667  6.265 0.674666666666667  6.279 0.674666666666667  C 6.286 0.674666666666667  6.293 0.674666666666667  6.3 0.682333333333333  C 6.321 0.682333333333333  6.342 0.69  6.363 0.69  C 6.37 0.69  6.377 0.69  6.384 0.697666666666667  C 6.468 0.713  6.552 0.736  6.65 0.751333333333334  L 6.657 0.751333333333334  C 6.671 0.751333333333334  6.685 0.759  6.699 0.759  C 6.762 0.774333333333333  6.818 0.782  6.888 0.797333333333333  C 6.93 0.805  6.979 0.820333333333334  7.021 0.828  C 7.056 0.835666666666667  7.098 0.843333333333334  7.14 0.851  C 7.161 0.858666666666667  7.182 0.858666666666667  7.203 0.866333333333334  C 7.266 0.881666666666667  7.329 0.897  7.392 0.904666666666667  C 7.42 0.912333333333334  7.441 0.912333333333334  7.469 0.92  C 7.609 0.950666666666667  7.763 0.981333333333334  7.917 1.01966666666667  C 7.924 1.01966666666667  7.931 1.01966666666667  7.938 1.02733333333333  C 8.015 1.04266666666667  8.099 1.06566666666667  8.183 1.081  C 8.197 1.081  8.211 1.08866666666667  8.225 1.08866666666667  C 8.295 1.104  8.358 1.11933333333333  8.428 1.13466666666667  C 8.449 1.14233333333333  8.477 1.14233333333333  8.498 1.15  C 8.568 1.16533333333333  8.631 1.18066666666667  8.701 1.196  C 8.722 1.20366666666667  8.743 1.20366666666667  8.764 1.21133333333333  C 8.82 1.22666666666667  8.876 1.23433333333333  8.932 1.24966666666667  C 8.97399999999999 1.25733333333333  9.01599999999999 1.265  9.06499999999999 1.28033333333333  C 9.121 1.29566666666667  9.17699999999999 1.30333333333333  9.233 1.31866666666667  C 9.261 1.32633333333333  9.28899999999999 1.334  9.31699999999999 1.334  C 9.35899999999999 1.34166666666667  9.40099999999999 1.34933333333333  9.44299999999999 1.36466666666667  C 9.905 1.46433333333333  10.353 1.564  10.752 1.64833333333333  C 10.759 1.64833333333333  10.766 1.64833333333333  10.773 1.656  C 10.843 1.67133333333333  10.906 1.68666666666667  10.969 1.702  C 10.983 1.702  11.004 1.70966666666667  11.018 1.70966666666667  C 11.067 1.71733333333333  11.109 1.73266666666667  11.151 1.74033333333333  C 11.403 1.794  11.62 1.84  11.788 1.87833333333333  C 11.809 1.87833333333333  11.823 1.886  11.837 1.886  C 11.893 1.90133333333333  11.942 1.909  11.984 1.91666666666667  C 12.033 1.92433333333333  12.075 1.93966666666667  12.11 1.94733333333333  C 12.131 1.955  12.152 1.955  12.159 1.955  L 13.951 1.38766666666667  C 13.944 1.38766666666667  13.93 1.38  13.916 1.38  L 13.902 1.38  C 13.874 1.37233333333333  13.846 1.36466666666667  13.804 1.357  C 13.769 1.34933333333333  13.734 1.34166666666667  13.692 1.334  C 13.657 1.32633333333333  13.615 1.31866666666667  13.566 1.311  C 13.517 1.30333333333333  13.461 1.288  13.405 1.28033333333333  C 13.384 1.27266666666667  13.363 1.27266666666667  13.342 1.265  C 13.195 1.23433333333333  13.034 1.196  12.852 1.16533333333333  C 12.621 1.11933333333333  12.369 1.06566666666667  12.103 1.00433333333333  L 11.683 0.912333333333334  C 11.627 0.897  11.571 0.889333333333334  11.508 0.874  C 11.494 0.874  11.48 0.866333333333334  11.459 0.866333333333334  C 11.235 0.820333333333334  11.011 0.774333333333334  10.78 0.720666666666667  C 10.752 0.713  10.731 0.713  10.703 0.705333333333333  C 10.696 0.705333333333333  10.682 0.697666666666667  10.675 0.697666666666667  C 10.444 0.651666666666667  10.213 0.598  9.99599999999999 0.552  C 9.947 0.544333333333333  9.89799999999999 0.529  9.84899999999999 0.521333333333334  C 9.632 0.475333333333333  9.42899999999999 0.429333333333334  9.233 0.391  L 9.226 0.391  C 9.163 0.375666666666667  9.1 0.368  9.044 0.352666666666667  C 9.037 0.352666666666667  9.03 0.352666666666667  9.023 0.345  C 8.995 0.337333333333333  8.974 0.337333333333333  8.946 0.329666666666667  C 8.904 0.322  8.862 0.314333333333333  8.827 0.306666666666667  C 8.82 0.306666666666667  8.813 0.306666666666667  8.799 0.299  C 8.68 0.276  8.575 0.253  8.484 0.23  C 8.463 0.222333333333333  8.435 0.222333333333333  8.414 0.214666666666667  L 8.407 0.214666666666667  C 8.393 0.214666666666667  8.386 0.207  8.372 0.207  C 8.358 0.207  8.344 0.199333333333333  8.33 0.199333333333333  C 8.323 0.199333333333333  8.316 0.199333333333333  8.309 0.191666666666667  C 8.295 0.191666666666667  8.281 0.184  8.274 0.184  C 8.26 0.184  8.253 0.176333333333333  8.239 0.176333333333333  C 8.232 0.176333333333333  8.225 0.176333333333333  8.218 0.168666666666667  C 8.211 0.168666666666667  8.204 0.168666666666667  8.197 0.161  C 8.162 0.153333333333333  8.134 0.145666666666667  8.106 0.145666666666667  L 8.09900000000001 0.145666666666667  C 8.085 0.145666666666667  8.07100000000001 0.138  8.06400000000001 0.138  C 8.05000000000001 0.138  8.04300000000001 0.130333333333333  8.02900000000001 0.130333333333333  L 8.02200000000001 0.130333333333333  C 8.01500000000001 0.130333333333333  8.00800000000001 0.130333333333333  8.00100000000001 0.122666666666667  L 7.99400000000001 0.122666666666667  L 7.98700000000001 0.122666666666667  L 7.98000000000001 0.122666666666667  L 7.97300000000001 0.122666666666667  L 7.96600000000001 0.122666666666667  L 2.43600000000001 0.651666666666667  L 0.0700000000000113 1.11166666666667  L 5.82400000000001 0.575  L 5.83100000000001 0.575  Z " fill-rule="nonzero" fill="#ffe088" stroke="none" transform="matrix(1 0 0 1 66 194 )" />
  </g>
</svg>