<?xml version="1.0" encoding="utf-8"?>
<svg version="1.1" xmlns:xlink="http://www.w3.org/1999/xlink" width="12px" height="12px" xmlns="http://www.w3.org/2000/svg">
  <g transform="matrix(1 0 0 1 -298 -415 )">
    <path d="M 4.2154999921875 0.60438708870968  C 4.4074999921875 0.241032241935487  4.790499984375 0.0438709596774221  5.2054999921875 0.0758709677419361  C 5.53151815607162 0.0792131595292616  5.83779806023628 0.237674019650344  6.0355000078125 0.505290314516129  C 6.4495000078125 1.09883869354839  6.987500015625 2.04335482258064  5.9854999921875 4.20490323387097  C 6.4954999921875 5.1927742016129  7.055499984375 6.08361290322581  7.8544999921875 6.84232258064516  C 8.5245 6.71225806451613  9.194499984375 6.45522580645161  9.8644999921875 6.45522580645161  C 11.3644999921875 6.48825805645161  11.8444999921875 7.29858065322581  11.8114999921875 7.72696773387097  C 11.8114999921875 8.84903225806452  10.9095 9.21858062903226  10.0245 9.14632258064516  L 10.0245 9.1473548467742  C 9.1545 9.08748387096774  8.2615000078125 8.51561291129033  7.5985000078125 7.9323870967742  C 6.2905000078125 8.22864515322581  5.046500015625 8.65806452419355  3.8025 9.18658064516129  C 3.0795 11.4327742016129  1.8885 11.9282580725806  1.0924999921875 11.9282580725806  C 0.931500000000003 11.9282580725806  0.740499984375003 11.8952258225806  0.612499992187501 11.7961290241936  C 0.277671082962735 11.6345481306262  0.0653223675117536 11.2857679200405  0.0694999921875024 10.9042580564516  C 0.0694999921875024 10.608  -0.0205000078124971 8.89135483064516  3.1635 8.02632258870968  C 3.8025 6.43870969354839  4.1835 5.79870967741936  4.7235 4.33496775  C 3.8235 3.04051613709678  3.6415000078125 1.5963870967742  4.2154999921875 0.60438708870968  Z M 2.4565000078125 10.1135483951613  C 2.8345000078125 9.61187097580645  2.8965 9.35277420967742  3.0795 8.89135483064516  C 2.3134999921875 9.27535483064516  1.3695 9.97212902419355  1.4625 10.417032266129  C 1.5225 10.7132903225806  1.8544999921875 10.6131613064516  2.4565000078125 10.1135483951613  Z M 10.8364999921875 7.98399999193548  C 10.9744999921875 7.61445159677419  10.700499984375 7.34503224193548  10.0144999921875 7.34503226612903  C 9.7065 7.34503226612903  9.4324999921875 7.41212903225806  9.1245 7.55458064516129  C 9.3994999921875 7.87251612096774  9.6544999921875 8.12954837903226  9.9985000078125 8.20077418548387  C 10.2375 8.27199999193548  10.7005000078125 8.35561289516129  10.8364999921875 7.98399999193548  Z M 6.5355 6.93832258064516  C 6.1455 6.52541934677419  5.7934999921875 6.13419355645161  5.4925000078125 5.64490323387097  C 5.22750150004013 6.29778269326109  4.94843213230515 6.94448107086289  4.6555000078125 7.58451612096774  L 6.5355 6.93832258064516  Z M 5.1934999921875 1.50451613709677  L 5.1934999921875 1.50554837903226  C 5.0055 1.53651612096774  4.9035 1.78425805645161  4.8544999921875 1.95974194354839  C 4.7554999921875 2.45935485483871  5.015499984375 3.01677420967742  5.3404999921875 3.41316128225806  C 5.6085 2.99612903225806  5.6764999921875 2.61109676612903  5.5725 2.04438708870968  C 5.4475000078125 1.66451612903226  5.3215000078125 1.48490322580645  5.1934999921875 1.50451613709677  Z " fill-rule="nonzero" fill="#f54d52" stroke="none" transform="matrix(1 0 0 1 298 415 )" />
  </g>
</svg>