<?xml version="1.0" encoding="utf-8"?>
<svg version="1.1" xmlns:xlink="http://www.w3.org/1999/xlink" width="12px" height="15px" xmlns="http://www.w3.org/2000/svg">
  <g transform="matrix(1 0 0 1 -66 -195 )">
    <path d="M 0.624631578947368 1.09285714285714  L 6.05021052631579 0.665714285714286  L 11.9478947368421 1.94714285714286  L 11.7881052631579 11.6153571428571  L 6.04294736842105 14.6135714285714  L 0.755368421052631 9.93964285714286  L 0.624631578947368 1.09285714285714  Z M 9.27505263157895 5.91464285714286  L 9.28231578947369 5.20821428571429  L 6.84189473684211 4.96178571428571  L 6.84189473684211 3.96785714285714  L 9.62368421052632 4.2225  L 9.108 3.51607142857143  L 2.94884210526316 2.94107142857143  L 2.99242105263158 9.37285714285714  L 3.49357894736842 10.3914285714286  L 3.47905263157895 3.65571428571429  L 6.29715789473684 3.91857142857143  L 6.29715789473684 4.9125  L 3.98747368421053 4.6825  L 3.98747368421053 5.35607142857143  L 6.29715789473684 5.6025  L 6.29715789473684 6.53071428571428  L 4.49589473684211 6.32535714285714  L 4.50315789473684 8.63357142857143  L 5.02610526315789 8.69928571428571  L 5.01884210526316 7.06464285714286  L 8.14926315789474 7.43428571428571  L 8.142 9.09357142857143  L 8.694 9.1675  L 8.71578947368421 6.80178571428571  L 6.83463157894737 6.58821428571428  L 6.83463157894737 5.65178571428571  L 9.27505263157895 5.91464285714286  Z M 7.90231578947368 10.5721428571429  C 8.13473684210526 10.7610714285714  8.40347368421052 10.95  8.67221052631579 11.1307142857143  L 9.00631578947368 10.5557142857143  L 6.82736842105263 8.92107142857143  L 6.83463157894737 7.69714285714286  L 6.30442105263158 7.63142857142857  L 6.30442105263158 8.84714285714286  L 4.13273684210526 9.86571428571428  L 4.34336842105263 10.5064285714286  L 6.55863157894737 9.47964285714285  C 6.57315789473684 9.48785714285714  6.64578947368421 9.55357142857143  6.762 9.65214285714286  C 6.87821052631579 9.75071428571428  7.04526315789473 9.89035714285714  7.23410526315789 10.0464285714286  C 7.43021052631579 10.2025  7.65536842105263 10.3832142857143  7.90231578947368 10.5721428571429  Z " fill-rule="nonzero" fill="#2196f3" stroke="none" transform="matrix(1 0 0 1 66 195 )" />
  </g>
</svg>