<?xml version="1.0" encoding="utf-8"?>
<svg version="1.1" xmlns:xlink="http://www.w3.org/1999/xlink" width="13px" height="13px" xmlns="http://www.w3.org/2000/svg">
  <g transform="matrix(1 0 0 1 -67 -350 )">
    <path d="M 4.31546546164738 1.45894803149606  C 4.31546546164738 2.24755083328628  4.9376846850123 2.8906506848034  5.71394381395349 2.90435695964567  C 5.72218840674971 2.90450253301236  5.73043408939017 2.9045753238189  5.73867992773266 2.9045753238189  C 6.52469957309013 2.9045753238189  7.16189439381793 2.25734593898515  7.16189439381793 1.45894803149606  C 7.16189439381793 0.660550124006979  6.52469957309013 0.0133207391732286  5.73867992773266 0.0133207391732286  C 5.73043408939015 0.0133207391732286  5.72218840674973 0.0133935299797614  5.71394381395349 0.0135391033464567  C 4.9376846850123 0.0272453781887225  4.31546546164738 0.670345229705843  4.31546546164738 1.45894803149606  Z M 4.1273391627907 8.74364304035433  C 3.34592952129108 8.34588041646798  2.5375240454154 8.00537012372055  1.70830454166667 7.72471601476378  C 1.55947406511516 7.68781685749464  1.4085882685862 7.77718748829219  1.36690505426357 7.92692913385827  C 1.16051745736434 8.72180577854331  0.292399627906977 11.6340241427165  0.0296854118217054 12.5957375285433  C 0.0224863950976719 12.6214571405219  0.0188346836458755 12.648066801556  0.0188346836458755 12.6748057141168  C 0.0188346836458755 12.8344852984413  0.146273650047365 12.9639311776995  0.30347758190169 12.9639311776995  C 0.304514669564276 12.9639311776995  0.305551749482698 12.9639254205457  0.306588775193798 12.9639139064961  L 0.804928822674419 12.9639139064961  C 0.921306792037356 12.9657020789174  1.02640200288155 12.8934886721145  1.06807300872093 12.7831013080709  C 1.35959548934109 12.0607244094488  2.21352417151163 9.48043253740157  2.34165647965116 9.48043255019685  C 3.1961278274761 9.61804786756905  3.88434898847239 10.2658807546704  4.08434175096899 11.1208482982283  C 4.00249836693909 11.6190621212781  3.82906621046659 12.097177501568  3.57310246608527 12.5302257175197  C 3.55130134008635 12.5726116227619  3.53991531949338 12.6197242731113  3.53991531949338 12.6675462520041  C 3.53991531949338 12.8272780964855  3.66446891509257 12.9583113104167  3.82162753488372 12.9639139064961  L 4.39779291375969 12.9639139064961  C 4.5009867122093 12.9682813562992  4.59816086821705 12.9115044576772  4.64717792248062 12.8193511811024  C 5.02007363724446 12.2979460859039  5.2639964086866 11.6930661944456  5.35835517926357 11.0557732283465  C 5.26647485597288 10.1497290121228  4.82377490013917 9.31794651710149  4.12776913275194 8.74364304035433  Z M 12.8429153943798 12.3424251968504  L 10.4380699079457 7.71030341633858  C 10.0467934263566 6.98748976377953  9.22855259108527 7.50765354330709  8.83727610949612 8.19421732283464  L 7.79845854263566 9.68308241043307  L 7.24379187596899 9.14806929133858  C 7.25752599348747 9.06684698177098  7.25752599348747 8.98384068653611  7.24379187596899 8.9026183769685  C 7.06578257364341 7.85442940059055  6.27592004554263 4.27005984251968  5.69975466666666 3.69224566929134  L 5.63525854263566 3.64857113287401  L 3.85000582945736 2.68773122933071  C 3.75865209768206 2.63720768319957  3.65491052566145 2.61446481354124  3.55117378391473 2.62221941830708  C 2.93201099321705 2.62221941830708  1.50922649709302 2.8611191515748  1.05388386143411 2.93318215649606  C 0.966222107505069 2.95006052429133  0.890546648245151 3.0057892434038  0.847496264534882 3.08516955807086  C 0.698295226744184 3.37385826771653  0.285520032945734 4.08225932185039  0.0507541540697655 4.63124829822834  C -0.0429802170542655 4.84962100590551  0.00775674224806007 5.10424357381889  0.178886449612401 5.26758634744094  L 0.484598077519378 5.52046193799212  L 1.55222392151163 6.35901311909449  C 1.64681823255814 6.43369658366142  1.68637585949612 6.5599160019685  1.65197792248062 6.67652703838583  C 1.55222392151163 6.9800651003937  1.65197792248062 6.75601470669291  1.60210091569767 6.90057743208661  C 1.56715924306098 7.04518949849852  1.64337554977842 7.19366473985063  1.78011021802326 7.2473532765748  C 2.27114071317829 7.428165875  3.57998204844961 8.12957899409449  4.08520169089147 8.27370499114173  C 4.22752313372093 8.30995486417323  4.19914483914729 8.16539212598425  4.25590144089147 8.02781732283465  L 4.19914485174418 7.95575433070866  L 7.33666629457364 10.3910467234252  L 6.08458153585271 12.5590509143701  C 6.05959347466666 12.6030070694328  6.04643817738531 12.6528705618087  6.04643817738531 12.7036284958153  C 6.04643817738531 12.8633080801397  6.1738771437868 12.9927539593979  6.33108107564112 12.9927539593979  C 6.33204292135089 12.9927539593979  6.33300476088302 12.9927490073172  6.33396655717054 12.9927391033465  L 12.4735675823643 12.9927391033465  C 12.7093312084564 12.9926784058765  12.9004237054782 12.798527375094  12.9004237054782 12.5590509283005  C 12.9004237054782 12.4830082393779  12.8807395365257 12.4083021877939  12.8433453643411 12.3424251968504  Z M 2.33434691472868 3.80798319783465  C 2.49515725484496 3.81671811023622  2.61812986046512 3.95647663188976  2.60953037306202 4.12025617224409  C 2.60712235231607 4.16252048089717  2.5958333242012 4.20377121509578  2.57642237112403 4.24123464566929  L 2.57642237112403 4.25608398523622  C 2.41130912232041 4.57292935195112  2.26862656131802 4.90131952672528  2.14945803003876 5.23876115059055  C 2.10648517037695 5.34904491946987  2.00156043690243 5.42148369588381  1.88479157218579 5.42148369588381  C 1.8108963324262 5.42148369588381  1.73989731409561 5.39229396846307  1.68680582945736 5.34008609350394  L 1.1106404505814 4.79808503937008  C 1.20093502422481 4.50546562106299  1.32261770736434 4.22463831594488  1.4735386501938 3.95953385826772  C 1.52656889981949 3.86312731041007  1.62800873507501 3.80470582575497  1.73668283624031 3.80798319783465  L 2.33434691472868 3.80798319783465  Z M 6.26173089825581 8.51959264665354  L 4.54699393895349 7.06697743208661  L 4.93139083817829 6.10613752854331  C 4.96994627883803 5.9877583097616  5.07887374892714 5.90782125857983  5.20162959786822 5.90782125857983  C 5.3243854468093 5.90782125857983  5.43331291689841 5.9877583097616  5.47186835755814 6.10613752854331  C 5.69186185600832 6.9245799996297  5.95553919730481 7.73025617249849  6.26173089825581 8.51959264665354  Z " fill-rule="nonzero" fill="#f59a23" stroke="none" transform="matrix(1 0 0 1 67 350 )" />
  </g>
</svg>