<?xml version="1.0" encoding="utf-8"?>
<svg version="1.1" xmlns:xlink="http://www.w3.org/1999/xlink" width="19px" height="21px" xmlns="http://www.w3.org/2000/svg">
  <g transform="matrix(1 0 0 1 -294 -365 )">
    <path d="M 18.8412142857143 5.03475  C 18.8324028404051 4.80553745146775  18.7310624877321 4.58879166934  18.5589285714286 4.431  L 14.4820714285714 0.231  C 14.3311777773596 0.0840692016575544  14.126197747795 0.000998347570861211  13.9120714285714 0  L 0.8835 0  C 0.423415547650298 0.0139445168597563  0.0579113930054111 0.378676974398851  0.0579113930054111 0.823845523282688  C 0.0579113930054111 0.832732091788662  0.0580599957193191 0.841618079215474  0 0.8505  L 0 20.1495  C 0.0580599957193194 20.1583819207845  0.0579113930054111 20.1672679082113  0.0579113930054111 20.1761544767173  C 0.0579113930054111 20.6213230256011  0.423415547650298 20.9860554831402  0.8835 21  L 18.0160714285714 21  C 18.4761558809211 20.9860554831402  18.841660035566 20.6213230256011  18.841660035566 20.1761544767173  C 18.841660035566 20.1672679082113  18.8415114328521 20.1583819207845  18.8412142857143 20.1495  L 18.8412142857143 5.03475  Z M 14.3355 15.75  L 12.3160714285714 15.75  L 9.40635714285714 11.58675  L 6.50207142857143 15.75  L 4.47721428571429 15.75  L 8.39121428571429 10.3215  L 4.73778571428571 5.25  L 6.76264285714286 5.25  L 9.40635714285714 9.04575  L 12.0446428571429 5.25  L 14.0695 5.25  L 10.4160714285714 10.31625  L 14.3355 15.75  Z " fill-rule="nonzero" fill="#25c273" stroke="none" transform="matrix(1 0 0 1 294 365 )" />
  </g>
</svg>