<?xml version="1.0" encoding="utf-8"?>
<svg version="1.1" xmlns:xlink="http://www.w3.org/1999/xlink" width="17px" height="17px" xmlns="http://www.w3.org/2000/svg">
  <g transform="matrix(1 0 0 1 -66 -246 )">
    <path d="M 0.708333338867187 8.5  C 0.708333338867187 4.196875  4.196875 0.708333338867187  8.5 0.708333338867187  C 12.803125 0.708333338867187  16.2916666611328 4.196875  16.2916666611328 8.5  C 16.2916666611328 12.803125  12.803125 16.2916666611328  8.5 16.2916666611328  C 4.196875 16.2916666611328  0.708333338867187 12.803125  0.708333338867187 8.5  Z M 8.4999998997276 1.77083333886719  C 4.78358377371415 1.77083333886719  1.77083323859479 4.78358387398655  1.77083323859479 8.5  C 1.77083323859479 12.2164161260135  4.78358377371415 15.2291666611328  8.4999998997276 15.2291666611328  C 12.2164161260135 15.2291666611328  15.2291666611328 12.2164161260135  15.2291666611328 8.5  C 15.2291666611328 4.78358387398655  12.2164161260135 1.77083333886719  8.5 1.77083333886719  Z M 4.845 5.80833333886719  L 5.525 5.80833333886719  L 5.525 6.143375  C 5.525 6.33897584584214  5.68356581529067 6.49754166113281  5.87916666113281 6.49754166113281  L 6.44583333886719 6.49754166113281  C 6.64143418470933 6.49754166113281  6.8 6.33897584584214  6.8 6.143375  L 6.8 5.80833333886719  L 10.2 5.80833333886719  L 10.2 6.143375  C 10.2 6.33897584584214  10.3585658152907 6.49754166113281  10.5541666611328 6.49754166113281  L 11.1208333388672 6.49754166113281  C 11.3164341847093 6.49754166113281  11.475 6.33897584584214  11.475 6.143375  L 11.475 5.80833333886719  L 12.1975 5.80833333886719  C 12.3809583388672 5.80833333886719  12.53325 5.93229167773437  12.5559166611328 6.09379166113281  L 12.55875 6.134875  L 12.55875 11.2965  C 12.55875 11.46225  12.4199166611328 11.6010833388672  12.2428333388672 11.6209166611328  L 12.1975 11.62375  L 4.84429166113281 11.62375  C 4.660125 11.62375  4.50854166113281 11.4976666611328  4.485875 11.336875  L 4.48304166113281 11.2965  L 4.48304166113281 6.13558333886719  C 4.48304166113281 5.96983333886719  4.62116666113281 5.831  4.79895833886719 5.81116666113281  L 4.845 5.80833333886719  Z M 8.31725 9.93083333886719  C 8.29253649934537 9.62197469373186  8.03492875411237 9.38377996532142  7.72508333886719 9.38329166113281  L 6.36295833886719 9.38329166113281  L 6.31691666113281 9.38541666113281  C 6.0549172097963 9.40660430912986  5.8374011058035 9.59624847240389  5.78070833886719 9.85291666113281  L 5.769375 9.93083333886719  L 5.769375 10.1773333388672  L 8.319375 10.1773333388672  L 8.31725 9.93083333886719  Z M 10.4125 10.1773333388672  L 10.4125 9.75233333886719  L 9.1375 9.75233333886719  L 9.1375 10.1773333388672  L 10.4125 10.1773333388672  Z M 7.90358333886719 8.34416666113281  C 7.90358333886719 7.88375  7.52816667773437 7.50833332226562  7.06775 7.50833333886719  C 6.6061319935435 7.50833333886719  6.23191666113281 7.88254867127788  6.23191666113281 8.34416667773437  C 6.23191666113281 8.80578468419088  6.6061319935435 9.18000001660156  7.06775 9.18000001660156  C 7.5293680064565 9.18000001660156  7.90358333886719 8.80578468419088  7.90358333886719 8.34416667773437  Z M 10.8375 9.18  L 10.8375 8.755  L 9.1375 8.755  L 9.1375 9.18  L 10.8375 9.18  Z M 11.2625 8.14583333886719  L 11.2625 7.72083333886719  L 9.1375 7.72083333886719  L 9.1375 8.14583333886719  L 11.2625 8.14583333886719  Z " fill-rule="nonzero" fill="#3296fa" stroke="none" transform="matrix(1 0 0 1 66 246 )" />
  </g>
</svg>