<?xml version="1.0" encoding="utf-8"?>
<svg version="1.1" xmlns:xlink="http://www.w3.org/1999/xlink" width="12px" height="12px" xmlns="http://www.w3.org/2000/svg">
  <g transform="matrix(1 0 0 1 -68 -300 )">
    <path d="M 6.00864204545455 0.016958823529412  L 0.0379602272727273 6.19838823529412  L 0.0379602272727273 11.1912352941176  C 0.0379602272727273 11.5853647058824  0.346090909090909 11.9046705882353  0.726903409090909 11.9046705882353  L 4.69390909090909 11.9046705882353  C 4.69390909090909 11.9046705882353  4.70420454545454 8.44515882352941  4.69390909090909 8.11071176470588  C 4.68376704545454 7.776  4.24155681818182 7.73472352941176  4.24155681818182 7.73472352941176  L 3.48758522727273 7.73472352941176  L 3.48758522727273 5.01176470588235  C 3.48758522727273 5.01176470588235  5.02007386363636 5.01282352941176  5.35392613636364 5.01176470588235  C 5.68750568181818 5.01077647058823  5.97121022727273 5.73144705882353  5.97121022727273 5.73144705882353  L 6.06245454545454 5.73144705882353  C 6.06245454545454 5.73144705882353  6.25174431818182 5.01176470588235  6.58227272727273 5.01176470588235  L 8.54123863636364 5.01176470588235  L 8.54123863636364 7.73472352941176  L 7.71190909090909 7.73472352941176  C 7.71190909090909 7.73472352941176  7.37171590909091 7.71405882352941  7.37171590909091 8.0264294117647  L 7.37171590909091 11.9046882352941  L 11.2905170454545 11.9046882352941  C 11.6710056818182 11.9046882352941  11.9793409090909 11.5853823529412  11.9793409090909 11.1912529411765  L 11.9793409090909 6.19838823529412  L 6.00864204545455 0.016958823529412  Z M 3.26161363636364 4.92772941176471  L 3.26161363636364 7.99708235294118  C 3.26161380968578 8.05539328337971  3.21610711587739 8.10250609579311  3.15997176423123 8.10250609579311  L 2.71559659090909 8.10250588235294  C 2.65948295454545 8.10250588235294  2.6135625 8.05544117647059  2.6135625 7.99708235294118  L 2.6135625 4.92772941176471  C 2.6135625 4.86975882352941  2.65946590909091 4.82205882352941  2.71559659090909 4.82205882352941  L 3.15976704545455 4.82205882352941  C 3.21617045454545 4.82205882352941  3.26161363636364 4.86975882352941  3.26161363636364 4.92772941176471  Z M 8.7553125 7.99708235294118  L 8.7553125 4.92772941176471  C 8.75542527806222 4.8693486940224  8.8011605606828 4.8220781670522  8.85755113636364 4.82205882352941  L 9.30151704545455 4.82205882352941  C 9.3579375 4.82205882352941  9.40336363636364 4.86975882352941  9.40336363636364 4.92772941176471  L 9.40336363636364 7.99708235294118  C 9.40336380968578 8.05539328337972  9.35785711587739 8.10250609579311  9.30172176423123 8.10250609579311  L 8.85755113636364 8.10250588235294  C 8.80089550732776 8.10250680563621  8.75531249841991 8.05531498464925  8.75531249841991 7.99710092328327  Z " fill-rule="nonzero" fill="#036eb8" stroke="none" transform="matrix(1 0 0 1 68 300 )" />
  </g>
</svg>