<?xml version="1.0" encoding="utf-8"?>
<svg version="1.1" xmlns:xlink="http://www.w3.org/1999/xlink" width="340px" height="40px" viewBox="1036 275  340 40" xmlns="http://www.w3.org/2000/svg">
  <path d="M 1037 280  A 4 4 0 0 1 1041 276 L 1371 276  A 4 4 0 0 1 1375 280 L 1375 310  A 4 4 0 0 1 1371 314 L 1041 314  A 4 4 0 0 1 1037 310 L 1037 280  Z " fill-rule="nonzero" fill="#ffffff" stroke="none" />
  <path d="M 1036.5 280  A 4.5 4.5 0 0 1 1041 275.5 L 1371 275.5  A 4.5 4.5 0 0 1 1375.5 280 L 1375.5 310  A 4.5 4.5 0 0 1 1371 314.5 L 1041 314.5  A 4.5 4.5 0 0 1 1036.5 310 L 1036.5 280  Z " stroke-width="1" stroke="#d7d7d7" fill="none" stroke-opacity="0.996078431372549" />
</svg>