<?xml version="1.0" encoding="utf-8"?>
<svg version="1.1" xmlns:xlink="http://www.w3.org/1999/xlink" width="20px" height="17px" xmlns="http://www.w3.org/2000/svg">
  <g transform="matrix(1 0 0 1 -1461 -387 )">
    <path d="M 5.33333333333333 6.01538461538461  L 9.73333333333333 10.3307692307692  C 9.86666666666667 10.4615384615385  10.2666666666667 10.4615384615385  10.4 10.3307692307692  L 14.6666666666667 6.14615384615385  C 14.8 6.01538461538462  14.8 5.88461538461538  14.8 5.88461538461538  C 14.8 5.62307692307692  14.6666666666667 5.36153846153846  14.4 5.36153846153846  L 12 5.36153846153846  L 12 0.653846153846154  C 12 0.392307692307692  11.7333333333333 0.261538461538462  11.6 0.261538461538462  L 8.4 0.261538461538462  C 8.13333333333333 0.261538461538462  8 0.392307692307693  8 0.653846153846154  L 8 5.23076923076923  L 5.73333333333333 5.23076923076923  C 5.6 5.23076923076923  5.46666666666667 5.23076923076923  5.33333333333333 5.36153846153846  C 5.2 5.49230769230769  5.2 5.88461538461538  5.33333333333333 6.01538461538461  Z M 6.8 6.14615384615385  L 8.4 6.14615384615385  C 8.66666666666667 6.14615384615385  8.93333333333333 5.88461538461538  8.93333333333333 5.75384615384615  L 8.93333333333333 1.17692307692308  L 11.2 1.17692307692308  L 11.2 5.75384615384615  C 11.2 6.01538461538462  11.4666666666667 6.14615384615385  11.6 6.14615384615385  L 13.2 6.14615384615385  L 10 9.28461538461538  L 6.8 6.14615384615385  Z M 20 9.02307692307692  C 20 9.15384615384615  20 9.02307692307692  20 9.02307692307692  C 20 8.89230769230769  20 8.76153846153846  19.8666666666667 8.5  L 17.3333333333333 4.31538461538462  C 17.2 3.92307692307692  16.6666666666667 3.79230769230769  16.2666666666667 4.05384615384615  C 15.8666666666667 4.31538461538462  15.7333333333333 4.70769230769231  16 5.1  L 18 8.36923076923077  L 14.6666666666667 8.36923076923077  C 14.2666666666667 8.36923076923077  14 8.63076923076923  13.8666666666667 9.02307692307692  C 13.7333333333333 9.93846153846154  13.2 10.8538461538462  12.5333333333333 11.3769230769231  C 11.8666666666667 11.9  10.9333333333333 12.2923076923077  10 12.2923076923077  C 9.06666666666666 12.2923076923077  8.13333333333333 11.9  7.46666666666667 11.3769230769231  C 6.8 10.7230769230769  6.26666666666667 9.93846153846154  6.13333333333333 9.02307692307692  C 6.13333333333333 8.63076923076923  5.73333333333333 8.36923076923077  5.33333333333333 8.36923076923077  L 2 8.36923076923077  L 4 5.1  C 4.26666666666667 4.70769230769231  4.13333333333333 4.31538461538462  3.73333333333333 4.05384615384615  C 3.33333333333333 3.79230769230769  2.8 3.92307692307692  2.66666666666667 4.31538461538462  L 0.133333333333333 8.63076923076923  C 0 8.76153846153846  0 8.89230769230769  0 9.02307692307692  L 0 15.9538461538462  C 0 16.3461538461538  0.4 16.7384615384615  0.8 16.7384615384615  L 19.2 16.7384615384615  C 19.6 16.7384615384615  20 16.3461538461538  20 15.9538461538462  L 20 9.02307692307692  Z M 18.4 9.93846153846154  L 18.4 15  L 1.6 15  L 1.6 9.93846153846154  L 4.66666666666667 9.93846153846154  C 4.93333333333333 10.9846153846154  5.6 11.9  6.4 12.5538461538462  C 7.33333333333333 13.3384615384615  8.66666666666667 13.8615384615385  10 13.8615384615385  C 11.3333333333333 13.8615384615385  12.6666666666667 13.3384615384615  13.6 12.5538461538462  C 14.4 11.9  15.0666666666667 10.9846153846154  15.3333333333333 9.93846153846154  L 18.4 9.93846153846154  Z " fill-rule="nonzero" fill="#33ccb0" stroke="none" fill-opacity="0.988235294117647" transform="matrix(1 0 0 1 1461 387 )" />
  </g>
</svg>